<svg width="46" height="45" viewBox="0 0 46 45" fill="none" xmlns="http://www.w3.org/2000/svg">
<ellipse cx="23" cy="22.5" rx="23" ry="22.5" fill="#5A80FD"/>
<path d="M18.878 21.5563C19.9191 22.5384 21.1707 23.0294 22.6327 23.0294C24.0946 23.0294 25.3462 22.5384 26.3873 21.5563C27.4284 20.5743 27.949 19.3937 27.949 18.0147C27.949 16.6357 27.4284 15.4551 26.3873 14.4731C25.3462 13.491 24.0946 13 22.6327 13C21.1707 13 19.9191 13.491 18.878 14.4731C17.8369 15.4551 17.3163 16.6357 17.3163 18.0147C17.3163 19.3937 17.8369 20.5743 18.878 21.5563Z" fill="#F8F9FD"/>
<path d="M12 29.5485V31.8051C12 32.4975 12.5613 33.0588 13.2537 33.0588H32.0116C32.704 33.0588 33.2653 32.4975 33.2653 31.8051V29.5485C33.2653 28.8381 33.0715 28.1851 32.6838 27.5896C32.2962 26.9941 31.7812 26.5397 31.1388 26.2263C29.7654 25.5785 28.3699 25.0927 26.9522 24.7689C25.5345 24.445 24.0946 24.2831 22.6327 24.2831C21.1707 24.2831 19.7308 24.445 18.3131 24.7689C16.8955 25.0927 15.4999 25.5785 14.1265 26.2263C13.4841 26.5397 12.9691 26.9941 12.5815 27.5896C12.1938 28.1851 12 28.8381 12 29.5485Z" fill="#F8F9FD"/>
</svg>
