<svg width="213" height="60" viewBox="0 0 213 60" fill="none" xmlns="http://www.w3.org/2000/svg">
<mask id="mask0_19_19" style="mask-type:alpha" maskUnits="userSpaceOnUse" x="0" y="0" width="43" height="47">
<rect width="43" height="46.9091" fill="#CEDEFF"/>
</mask>
<g mask="url(#mask0_19_19)">
<path d="M31.3469 42.2415C30.5767 42.3781 29.9956 41.3281 30.1356 40.5585L33.7989 20.413C33.9001 19.8565 33.6162 19.3012 33.1058 19.0574L11.06 8.52708C10.228 8.12964 9.26603 8.73622 9.26603 9.65832V16.4459C9.26603 17.1382 8.70474 17.6995 8.01235 17.6995L5.54344 17.6995C4.85105 17.6995 4.28976 17.1383 4.28976 16.4459V7.67016C4.28976 6.98064 4.5691 3.74861 5.08965 3.25759C5.55197 2.82151 6.79569 2.13225 7.58027 1.98347C7.75802 1.94976 7.93757 1.99372 8.10192 2.06934L35.9846 14.899C36.1083 14.9558 36.2222 15.0328 36.3212 15.1262C36.8901 15.6629 37.072 15.8345 37.5527 16.2879C38.0314 16.7394 38.2138 16.8793 38.2401 17.435C38.2449 17.5382 38.2307 17.6416 38.2054 17.7418L32.563 40.1147C32.5377 40.215 32.5265 40.3181 32.5204 40.4213C32.4839 41.0444 32.2251 41.5828 31.7441 42.0365C31.6179 42.1556 31.4855 42.2169 31.3469 42.2415ZM13.9178 33.9973C12.4558 33.9973 11.2043 33.5063 10.1632 32.5242C9.12204 31.5422 8.60149 30.3616 8.60149 28.9826C8.60149 27.6036 9.12204 26.423 10.1632 25.441C11.2043 24.4589 12.4558 23.9679 13.9178 23.9679C15.3798 23.9679 16.6314 24.4589 17.6725 25.441C18.7136 26.423 19.2341 27.6036 19.2341 28.9826C19.2341 30.3616 18.7136 31.5422 17.6725 32.5242C16.6314 33.5063 15.3798 33.9973 13.9178 33.9973ZM13.9178 31.49C14.6488 31.49 15.2746 31.2444 15.7951 30.7534C16.3157 30.2624 16.576 29.6721 16.576 28.9826C16.576 28.2931 16.3157 27.7028 15.7951 27.2118C15.2746 26.7208 14.6488 26.4753 13.9178 26.4753C13.1868 26.4753 12.561 26.7208 12.0405 27.2118C11.5199 27.7028 11.2597 28.2931 11.2597 28.9826C11.2597 29.6721 11.5199 30.2624 12.0405 30.7534C12.561 31.2444 13.1868 31.49 13.9178 31.49ZM4.53883 44.0267C3.84644 44.0267 3.28516 43.4654 3.28516 42.773V40.5164C3.28516 39.806 3.47898 39.153 3.86663 38.5575C4.25428 37.962 4.7693 37.5076 5.41169 37.1942C6.78507 36.5464 8.18061 36.0606 9.5983 35.7368C11.016 35.4129 12.4558 35.251 13.9178 35.251C15.3798 35.251 16.8196 35.4129 18.2373 35.7368C19.655 36.0606 21.0506 36.5464 22.4239 37.1942C23.0663 37.5076 23.5813 37.962 23.969 38.5575C24.3566 39.153 24.5505 39.806 24.5505 40.5164V42.773C24.5505 43.4654 23.9892 44.0267 23.2968 44.0267H4.53883ZM5.94332 40.5164C5.94332 41.0703 6.39236 41.5194 6.94627 41.5194H20.8894C21.4433 41.5194 21.8923 41.0703 21.8923 40.5164V40.5164C21.8923 40.2866 21.8314 40.0776 21.7096 39.8896C21.5877 39.7015 21.4271 39.5553 21.2278 39.4508C20.0316 38.8866 18.8243 38.4635 17.606 38.1814C16.3877 37.8994 15.1583 37.7583 13.9178 37.7583C12.6773 37.7583 11.4479 37.8994 10.2296 38.1814C9.01129 38.4635 7.80404 38.8866 6.60786 39.4508C6.4085 39.5553 6.2479 39.7015 6.12607 39.8896C6.00424 40.0776 5.94332 40.2866 5.94332 40.5164V40.5164Z" fill="#F8F9FD"/>
</g>
<path d="M45.5568 42V18.7273H60.1477V21.75H49.0682V28.8409H59.3864V31.8523H49.0682V38.9773H60.2841V42H45.5568ZM84.1676 26.2955H80.6222C80.4858 25.5379 80.232 24.8712 79.8608 24.2955C79.4896 23.7197 79.035 23.2311 78.4972 22.8295C77.9593 22.428 77.357 22.125 76.6903 21.9205C76.0313 21.7159 75.3305 21.6136 74.5881 21.6136C73.2472 21.6136 72.0464 21.9508 70.9858 22.625C69.9328 23.2992 69.0994 24.2879 68.4858 25.5909C67.8797 26.8939 67.5767 28.4848 67.5767 30.3636C67.5767 32.2576 67.8797 33.8561 68.4858 35.1591C69.0994 36.4621 69.9366 37.447 70.9972 38.1136C72.0578 38.7803 73.2509 39.1136 74.5767 39.1136C75.3116 39.1136 76.0085 39.0152 76.6676 38.8182C77.3343 38.6136 77.9366 38.3144 78.4744 37.9205C79.0123 37.5265 79.4669 37.0455 79.8381 36.4773C80.2169 35.9015 80.4782 35.2424 80.6222 34.5L84.1676 34.5114C83.9782 35.6553 83.6108 36.7083 83.0653 37.6705C82.5275 38.625 81.8343 39.4508 80.9858 40.1477C80.1449 40.8371 79.1828 41.3712 78.0994 41.75C77.0161 42.1288 75.8343 42.3182 74.554 42.3182C72.5388 42.3182 70.7434 41.8409 69.1676 40.8864C67.5919 39.9242 66.3494 38.5492 65.4403 36.7614C64.5388 34.9735 64.0881 32.8409 64.0881 30.3636C64.0881 27.8788 64.5426 25.7462 65.4517 23.9659C66.3608 22.178 67.6032 20.8068 69.179 19.8523C70.7547 18.8902 72.5464 18.4091 74.554 18.4091C75.7888 18.4091 76.9403 18.5871 78.0085 18.9432C79.0843 19.2917 80.0502 19.8068 80.9062 20.4886C81.7623 21.1629 82.4706 21.9886 83.0312 22.9659C83.5919 23.9356 83.9706 25.0455 84.1676 26.2955ZM88.3693 42V18.7273H91.8807V38.9773H102.426V42H88.3693ZM109.585 42H105.858L114.233 18.7273H118.29L126.665 42H122.938L116.358 22.9545H116.176L109.585 42ZM110.21 32.8864H122.301V35.8409H110.21V32.8864ZM130.026 42V18.7273H138.321C140.124 18.7273 141.62 19.0379 142.81 19.6591C144.007 20.2803 144.901 21.1402 145.491 22.2386C146.082 23.3295 146.378 24.5909 146.378 26.0227C146.378 27.447 146.079 28.7008 145.48 29.7841C144.889 30.8598 143.995 31.697 142.798 32.2955C141.609 32.8939 140.113 33.1932 138.31 33.1932H132.026V30.1705H137.991C139.128 30.1705 140.052 30.0076 140.764 29.6818C141.484 29.3561 142.01 28.8826 142.344 28.2614C142.677 27.6402 142.844 26.8939 142.844 26.0227C142.844 25.1439 142.673 24.3826 142.332 23.7386C141.999 23.0947 141.473 22.6023 140.753 22.2614C140.041 21.9129 139.105 21.7386 137.946 21.7386H133.537V42H130.026ZM141.514 31.5L147.264 42H143.264L137.628 31.5H141.514ZM150.651 42V18.7273H165.241V21.75H154.162V28.8409H164.48V31.8523H154.162V38.9773H165.378V42H150.651ZM188.716 18.7273V42H185.489L173.659 24.9318H173.443V42H169.932V18.7273H173.182L185.023 35.8182H185.239V18.7273H188.716ZM192.69 21.75V18.7273H210.702V21.75H203.44V42H199.94V21.75H192.69Z" fill="#F8F9FD"/>
</svg>
