<svg width="483" height="455" viewBox="0 0 483 455" fill="none" xmlns="http://www.w3.org/2000/svg">
<g clip-path="url(#clip0_56_551)">
<mask id="mask0_56_551" style="mask-type:luminance" maskUnits="userSpaceOnUse" x="6" y="2" width="449" height="454">
<path d="M454.482 2.31445H6.79459V455.148H454.482V2.31445Z" fill="white"/>
</mask>
<g mask="url(#mask0_56_551)">
<path d="M238.578 406.249C343.707 406.249 428.928 319.374 428.928 212.209C428.928 105.043 343.707 18.1684 238.578 18.1684C133.45 18.1684 48.2261 105.043 48.2261 212.209C48.2261 319.374 133.45 406.249 238.578 406.249Z" stroke="#D1E8F7" stroke-width="0.958245" stroke-miterlimit="10"/>
<path d="M83.723 105.109C87.4259 105.109 90.4277 102.049 90.4277 98.2738C90.4277 94.4992 87.4259 91.4397 83.723 91.4397C80.0206 91.4397 77.0188 94.4992 77.0188 98.2738C77.0188 102.049 80.0206 105.109 83.723 105.109Z" fill="#FEBB94"/>
<path d="M428.928 226.433C432.632 226.433 435.636 223.373 435.636 219.599C435.636 215.824 432.632 212.764 428.928 212.764C425.228 212.764 422.224 215.824 422.224 219.599C422.224 223.373 425.228 226.433 428.928 226.433Z" fill="#5661AE"/>
<path d="M246.386 413.083C250.088 413.083 253.09 410.023 253.09 406.249C253.09 402.475 250.088 399.415 246.386 399.415C242.683 399.415 239.681 402.475 239.681 406.249C239.681 410.023 242.683 413.083 246.386 413.083Z" fill="#1C85E8"/>
<path d="M242.988 358.236C321.411 358.236 384.985 293.43 384.985 213.487C384.985 133.544 321.411 68.7376 242.988 68.7376C164.565 68.7376 100.99 133.544 100.99 213.487C100.99 293.43 164.565 358.236 242.988 358.236Z" stroke="#D1E8F7" stroke-width="0.71483" stroke-miterlimit="10"/>
<path d="M382.551 247.742C385.313 247.742 387.552 245.46 387.552 242.644C387.552 239.828 385.313 237.546 382.551 237.546C379.789 237.546 377.55 239.828 377.55 242.644C377.55 245.46 379.789 247.742 382.551 247.742Z" fill="#FEBB94"/>
<path d="M111.288 272.982C114.05 272.982 116.289 270.7 116.289 267.884C116.289 265.068 114.05 262.786 111.288 262.786C108.526 262.786 106.287 265.068 106.287 267.884C106.287 270.7 108.526 272.982 111.288 272.982Z" fill="#5661AE"/>
<path d="M179.383 89.0333C182.145 89.0333 184.384 86.7508 184.384 83.9348C184.384 81.1193 182.145 78.8368 179.383 78.8368C176.621 78.8368 174.381 81.1193 174.381 83.9348C174.381 86.7508 176.621 89.0333 179.383 89.0333Z" fill="#1C85E8"/>
<path d="M316.892 373.777H152.908C145.793 373.777 140.58 367.898 141.264 360.646L169.258 63.7933C169.941 56.541 176.263 50.6618 183.377 50.6618H347.362C354.477 50.6618 359.689 56.541 359.005 63.7933L331.012 360.646C330.328 367.898 324.006 373.777 316.892 373.777Z" fill="#1C85E8"/>
<path d="M305.335 373.777H141.35C134.236 373.777 129.024 367.898 129.707 360.646L157.701 63.7933C158.385 56.541 164.706 50.6618 171.821 50.6618H335.806C342.919 50.6618 348.132 56.541 347.449 63.7933L319.455 360.646C318.771 367.898 312.45 373.777 305.335 373.777Z" fill="url(#paint0_linear_56_551)"/>
<path d="M299.121 363.909H149.426C142.833 363.909 138.002 358.461 138.636 351.74L164.949 72.6995C165.584 65.9785 171.442 60.5304 178.035 60.5304H327.729C334.323 60.5304 339.154 65.9785 338.52 72.6995L312.207 351.74C311.572 358.461 305.714 363.909 299.121 363.909Z" fill="white"/>
<path d="M311.125 187.47L150.542 187.324C149.886 187.343 149.233 187.218 148.628 186.959C148.024 186.7 147.48 186.312 147.034 185.821C146.588 185.331 146.25 184.749 146.041 184.115C145.833 183.48 145.761 182.808 145.828 182.142L154.485 84.1485C154.642 82.7343 155.301 81.4277 156.338 80.475C157.375 79.5217 158.717 78.9888 160.113 78.9753L320.697 79.1208C321.353 79.103 322.005 79.2274 322.61 79.4865C323.215 79.7462 323.759 80.1336 324.205 80.6243C324.651 81.115 324.989 81.6966 325.197 82.3312C325.405 82.9653 325.478 83.6378 325.411 84.3032L316.753 182.297C316.597 183.711 315.938 185.018 314.901 185.971C313.864 186.924 312.521 187.457 311.125 187.47Z" fill="url(#paint1_linear_56_551)"/>
<path d="M306.069 293.059H238.197C237.696 293.07 237.199 292.97 236.739 292.767C236.28 292.565 235.868 292.264 235.532 291.885C235.197 291.507 234.945 291.059 234.794 290.572C234.642 290.086 234.595 289.572 234.655 289.066L242.896 201.672C243.015 200.589 243.516 199.586 244.306 198.851C245.097 198.117 246.121 197.7 247.191 197.678H315.064C315.564 197.668 316.061 197.768 316.521 197.971C316.98 198.173 317.392 198.474 317.728 198.852C318.064 199.231 318.316 199.679 318.467 200.165C318.618 200.652 318.666 201.166 318.605 201.672L310.364 289.066C310.245 290.149 309.744 291.151 308.954 291.886C308.164 292.621 307.139 293.038 306.069 293.059Z" fill="url(#paint2_linear_56_551)"/>
<path d="M289.888 244.849C297.543 237.412 298.376 225.638 291.749 218.55C285.122 211.462 273.545 211.745 265.891 219.182C258.236 226.618 257.403 238.393 264.03 245.48C270.657 252.568 282.234 252.285 289.888 244.849Z" stroke="#EF6A77" stroke-width="5.8449" stroke-miterlimit="10"/>
<path d="M269.285 249.206C262.936 246.411 258.911 239.767 259.642 232.015C260.61 221.742 269.565 213.414 279.644 213.414" stroke="white" stroke-width="5.8449" stroke-miterlimit="10" stroke-linecap="round"/>
<path d="M267.779 265.196H281.742" stroke="white" stroke-width="2.99187" stroke-miterlimit="10" stroke-linecap="round"/>
<path d="M266.258 281.317H280.222" stroke="white" stroke-width="2.99187" stroke-miterlimit="10" stroke-linecap="round"/>
<path opacity="0.4" d="M259.58 273.165H288.438" stroke="white" stroke-width="2.99187" stroke-miterlimit="10" stroke-linecap="round"/>
<path d="M223.065 293.059H155.192C154.692 293.07 154.195 292.97 153.735 292.767C153.276 292.565 152.864 292.264 152.528 291.885C152.193 291.507 151.941 291.059 151.789 290.572C151.638 290.086 151.591 289.572 151.651 289.066L159.892 201.672C160.011 200.589 160.512 199.586 161.302 198.851C162.092 198.117 163.117 197.7 164.187 197.678H232.06C232.56 197.668 233.057 197.768 233.517 197.971C233.976 198.173 234.388 198.474 234.723 198.852C235.059 199.231 235.312 199.679 235.463 200.165C235.614 200.652 235.661 201.166 235.601 201.672L227.36 289.066C227.241 290.149 226.74 291.151 225.949 291.886C225.16 292.621 224.134 293.038 223.065 293.059Z" fill="#FEBB94"/>
<path d="M206.884 244.849C214.538 237.412 215.371 225.638 208.744 218.55C202.118 211.462 190.54 211.745 182.886 219.182C175.232 226.618 174.399 238.393 181.026 245.48C187.652 252.568 199.23 252.285 206.884 244.849Z" stroke="#EF6A77" stroke-width="5.8449" stroke-miterlimit="10"/>
<path d="M213.133 232.015C212.164 242.288 203.209 250.616 193.131 250.616C183.053 250.616 175.669 242.288 176.638 232.015C177.606 221.742 186.561 213.414 196.639 213.414" stroke="white" stroke-width="5.8449" stroke-miterlimit="10" stroke-linecap="round"/>
<path d="M184.774 265.196H198.738" stroke="white" stroke-width="2.99187" stroke-miterlimit="10" stroke-linecap="round"/>
<path d="M183.254 281.317H197.218" stroke="white" stroke-width="2.99187" stroke-miterlimit="10" stroke-linecap="round"/>
<path opacity="0.4" d="M176.576 273.165H205.433" stroke="white" stroke-width="2.99187" stroke-miterlimit="10" stroke-linecap="round"/>
<path d="M300.38 355.567H149.093C148.618 355.577 148.147 355.482 147.712 355.29C147.276 355.098 146.886 354.813 146.568 354.454C146.25 354.096 146.011 353.672 145.867 353.21C145.724 352.749 145.68 352.262 145.736 351.782L150.251 303.91C150.364 302.883 150.839 301.932 151.588 301.236C152.336 300.54 153.308 300.145 154.321 300.124H305.608C306.082 300.114 306.553 300.209 306.989 300.401C307.424 300.593 307.814 300.878 308.133 301.237C308.451 301.596 308.689 302.02 308.833 302.481C308.977 302.942 309.021 303.429 308.964 303.91L304.45 351.782C304.337 352.809 303.862 353.759 303.114 354.455C302.365 355.152 301.393 355.547 300.38 355.567Z" fill="url(#paint3_linear_56_551)"/>
<path d="M159.628 344.467L161.762 321.836" stroke="white" stroke-width="5.8449" stroke-miterlimit="10" stroke-linecap="round"/>
<path d="M175.287 328.613L173.792 344.467" stroke="white" stroke-width="5.8449" stroke-miterlimit="10" stroke-linecap="round"/>
<path d="M188.941 334.028L187.957 344.467" stroke="white" stroke-width="5.8449" stroke-miterlimit="10" stroke-linecap="round"/>
<path d="M204.809 315.954L202.121 344.467" stroke="white" stroke-width="5.8449" stroke-miterlimit="10" stroke-linecap="round"/>
<path d="M217.269 334.028L216.285 344.467" stroke="white" stroke-width="5.8449" stroke-miterlimit="10" stroke-linecap="round"/>
<path d="M233.019 317.214L230.449 344.467" stroke="white" stroke-width="5.8449" stroke-miterlimit="10" stroke-linecap="round"/>
<path d="M245.68 333.151L244.613 344.467" stroke="white" stroke-width="5.8449" stroke-miterlimit="10" stroke-linecap="round"/>
<path d="M259.346 338.439L258.777 344.467" stroke="white" stroke-width="5.8449" stroke-miterlimit="10" stroke-linecap="round"/>
<path d="M275.076 321.836L272.941 344.467" stroke="white" stroke-width="5.8449" stroke-miterlimit="10" stroke-linecap="round"/>
<path d="M290.052 313.218L287.106 344.467" stroke="white" stroke-width="5.8449" stroke-miterlimit="10" stroke-linecap="round"/>
<path d="M163.549 172.443L172.051 186.02C172.435 186.633 172.565 187.375 172.415 188.086C172.263 188.797 171.844 189.417 171.245 189.814L169.871 190.724C167.571 192.247 164.807 192.868 162.091 192.47C159.376 192.072 156.895 190.683 155.109 188.56L143.826 175.147L163.549 172.443Z" fill="#FFCCB3"/>
<path d="M157.061 177.668C157.061 177.668 160.209 188.687 166.534 192.222C168.176 191.574 169.754 190.768 171.245 189.814L164.153 177.668" fill="#FCBA9F"/>
<path d="M11.6051 227.223L45.0014 210.908C48.1481 209.371 50.8087 206.965 52.6811 203.963L84.9432 152.229C86.9515 149.009 89.8646 146.478 93.3033 144.968L139.77 124.561L129.822 201.25L129.647 204.082C129.647 204.082 117.357 236.53 87.2338 248.319L39.0726 278.347L11.6051 227.223Z" fill="#FFCCB3"/>
<path d="M47.9491 209.108C47.9491 209.108 63.7468 249.304 87.2338 248.319L72.238 257.668C72.238 257.668 21.3393 248.044 40.392 213.081L47.9491 209.108Z" fill="#FCBA9F"/>
<path d="M132.578 138.754C132.578 138.754 116.149 148.902 117.02 172.443L136.75 164.928L132.578 138.754Z" fill="#FCBA9F"/>
<path d="M173.85 172.443L182.352 186.02C182.736 186.633 182.866 187.375 182.716 188.086C182.565 188.797 182.144 189.417 181.546 189.814L180.172 190.724C177.872 192.247 175.107 192.868 172.392 192.47C169.677 192.072 167.196 190.683 165.41 188.56L154.128 175.147L173.85 172.443Z" fill="#FFCCB3"/>
<path d="M299.544 177.797L138.96 177.652C138.304 177.67 137.652 177.545 137.047 177.285C136.442 177.026 135.899 176.638 135.452 176.148C135.006 175.657 134.668 175.076 134.46 174.441C134.252 173.807 134.179 173.135 134.247 172.469L142.904 74.4751C143.061 73.0609 143.72 71.7544 144.757 70.8016C145.793 69.8489 147.136 69.3155 148.532 69.3019L309.116 69.448C309.772 69.4296 310.424 69.5546 311.029 69.8137C311.633 70.0729 312.177 70.4608 312.623 70.9509C313.07 71.4416 313.408 72.0238 313.616 72.6578C313.824 73.2925 313.896 73.9649 313.83 74.6299L305.172 172.624C305.015 174.038 304.356 175.345 303.319 176.298C302.282 177.25 300.94 177.784 299.544 177.797Z" fill="#1C85E8"/>
<path d="M149.592 127.438C149.592 127.438 164.007 124.466 167.886 131.361C171.765 138.256 175.111 151.205 185.432 149.536C195.754 147.866 203.655 114.013 213.802 114.321C223.95 114.63 220.372 136.802 231.417 137.112C242.462 137.421 240.497 124.727 247.859 125.081C256.788 125.51 253.459 151.814 265.103 152.124C276.746 152.434 278.646 117.379 296.247 117.994" stroke="white" stroke-width="3.78254" stroke-miterlimit="10" stroke-linecap="round"/>
<path d="M157.791 85.7142L186.043 85.7391" stroke="white" stroke-width="5.99955" stroke-miterlimit="10" stroke-linecap="round"/>
<path opacity="0.4" d="M156.624 98.916L215.01 98.9681" stroke="white" stroke-width="5.99955" stroke-miterlimit="10" stroke-linecap="round"/>
<path d="M101.958 177.311L122.558 168.062L143.625 153.403C149.165 149.548 160.735 147.811 164.9 153.171C169.137 158.622 164.378 169.405 159.239 173.98L139.77 191.31L129.647 204.082L101.958 177.311Z" fill="#FFCCB3"/>
<path d="M143.826 158.969C143.826 158.969 146.607 169.901 153.818 171.792L161.466 165.206C162.241 164.618 162.891 163.874 163.375 163.022C163.86 162.168 164.169 161.224 164.283 160.246C164.398 159.267 164.316 158.275 164.042 157.329C163.768 156.384 163.309 155.506 162.691 154.748C161.612 153.423 160.107 152.533 158.444 152.235C156.78 151.938 155.067 152.253 153.611 153.124L143.826 158.969Z" stroke="#FF967C" stroke-width="1.5" stroke-linecap="round"/>
<path d="M46.2704 209.557C46.2704 209.557 42.2782 238.661 77.0188 255.326C77.0188 255.326 52.0628 278.662 42.4412 282.586C32.8201 286.509 -3.32964 246.411 9.52786 223.652C13.1336 217.269 46.2704 209.557 46.2704 209.557Z" fill="#1C85E8"/>
<path d="M177.903 178.915C177.903 178.915 164.362 179.197 159.649 181.711L156.247 177.667L177.122 177.668L177.903 178.915Z" fill="#FCBA9F"/>
<path d="M427.219 177.797H330.941C323.689 177.797 318.33 171.804 318.972 164.411L331.89 15.7003C332.532 8.30782 338.932 2.31445 346.184 2.31445H442.461C449.716 2.31445 455.072 8.30782 454.429 15.7003L441.511 164.411C440.869 171.804 434.469 177.797 427.219 177.797Z" fill="#FEBB94"/>
<path d="M413.436 86.2849C428.683 71.4173 430.217 47.8339 416.869 33.61C403.52 19.3862 380.34 19.9077 365.094 34.7754C349.85 49.643 348.313 73.2265 361.662 87.4503C375.012 101.675 398.192 101.153 413.436 86.2849Z" fill="white"/>
<path d="M391.306 61.6877L415.474 84.1571C415.474 84.1571 420.972 78.1329 422.612 73.8275L391.306 61.6877Z" fill="url(#paint4_linear_56_551)"/>
<path d="M392.915 18.5249L389.481 58.0607C389.404 58.7808 389.536 59.5079 389.861 60.1528C390.185 60.7972 390.687 61.3306 391.306 61.6877L424.098 80.2975C424.098 80.2975 443.571 24.9197 392.915 18.5249Z" fill="#1C85E8"/>
<path d="M341.587 125.162H381.473" stroke="white" stroke-width="6" stroke-miterlimit="10" stroke-linecap="round"/>
<path d="M338.668 158.777H378.553" stroke="white" stroke-width="6" stroke-miterlimit="10" stroke-linecap="round"/>
<path opacity="0.4" d="M340.144 141.78H422.569" stroke="white" stroke-width="6" stroke-miterlimit="10" stroke-linecap="round"/>
<path d="M308.815 287.351C308.815 287.351 321.672 283.856 328.515 291.367C328.515 291.367 340.814 289.09 345.815 296.065C345.815 296.065 356.718 296.709 359.876 301.242C362.502 301.612 364.986 302.684 367.073 304.349C369.16 306.015 370.778 308.214 371.76 310.724C374.742 317.888 372.213 359.303 369.25 374.144C368.509 377.856 368.762 381.702 369.985 385.279L377.523 407.363L325.364 429.59L312.981 396.666C312.981 396.666 297.908 371.973 295.754 367.583C293.601 363.193 297.251 326.765 289.9 304.008L308.815 287.351Z" fill="#FFCCB3"/>
<path d="M319.709 414.553L318.204 410.552C318.204 410.552 345.269 408.788 369.985 385.279L372.348 392.204C372.348 392.204 369.296 406.509 355.397 413.25C341.498 419.993 319.709 414.553 319.709 414.553Z" fill="#FCBA9F"/>
<path d="M319.709 414.553C319.709 414.553 352.469 417.594 372.349 392.204C372.349 392.204 379.688 396.127 390.958 424.844C394.42 433.665 336.618 465.069 327.272 452.015C327.272 452.015 319.204 434.618 319.709 414.553Z" fill="#5661AE"/>
<path d="M293.106 317.745C293.106 317.745 291.976 323.857 286.633 323.857C283.147 323.857 268.037 319.204 257.953 315.969C255.209 315.089 252.265 315.089 249.521 315.969C246.777 316.849 244.365 318.567 242.61 320.89L241.997 321.702C241.693 322.104 241.472 322.565 241.347 323.057C241.222 323.549 241.197 324.061 241.273 324.563C241.348 325.065 241.523 325.547 241.786 325.978C242.049 326.41 242.396 326.782 242.804 327.073C251.342 333.149 274.398 349.64 277.347 352.646C280.976 356.345 301.183 377.083 301.183 377.083L293.106 317.745Z" fill="#FFCCB3"/>
<path d="M291.879 311.622C291.879 311.622 302.8 326.691 301.183 329.989C299.567 333.288 282.633 323.203 282.633 323.203C282.633 323.203 296.297 326.786 291.879 311.622Z" fill="#FCBA9F"/>
<path d="M289.9 304.008L271.523 247.121C270.893 245.17 270.653 243.109 270.819 241.061C270.985 239.014 271.552 237.021 272.487 235.202C273.422 233.382 274.707 231.772 276.263 230.467C277.82 229.163 279.619 228.19 281.551 227.607C283.133 227.131 284.831 227.26 286.326 227.97C287.821 228.681 289.009 229.925 289.667 231.467L315.447 291.876L289.9 304.008Z" fill="#FFCCB3"/>
<path d="M281.931 279.339C282.452 280.211 283.144 280.964 283.963 281.55C284.783 282.137 285.713 282.545 286.694 282.748" stroke="#FF967C" stroke-width="1.5" stroke-linecap="round"/>
<path d="M288.543 250.217C290.779 249.207 293.245 247.795 294.306 246.148L287.463 229.586C287.317 229.229 287.098 228.908 286.82 228.644C286.543 228.38 286.213 228.179 285.854 228.055C285.495 227.93 285.114 227.886 284.736 227.923C284.358 227.96 283.992 228.079 283.663 228.271C281.228 229.703 278.014 232.288 277.889 236L282.517 247.74C282.745 248.313 283.083 248.834 283.512 249.271C283.94 249.708 284.451 250.053 285.013 250.284C285.576 250.515 286.178 250.628 286.785 250.617C287.391 250.605 287.989 250.469 288.543 250.217Z" stroke="#FF967C" stroke-width="1.5" stroke-linecap="round"/>
<path d="M313.374 287.016L319.709 301.242" stroke="#FF967C" stroke-width="1.5" stroke-linecap="round"/>
<path d="M328.768 291.658C331.987 296.362 333.713 301.961 333.711 307.698" stroke="#FF967C" stroke-width="1.5" stroke-linecap="round"/>
<path d="M346.117 296.331C346.117 296.331 349.306 303.787 349.569 309.683" stroke="#FF967C" stroke-width="1.5" stroke-linecap="round"/>
<path d="M360.323 301.685C361.579 304.831 362.066 308.241 361.742 311.622" stroke="#FF967C" stroke-width="1.5" stroke-linecap="round"/>
<path d="M256.298 334.028C256.298 334.028 260.072 329.143 258.777 326.692C257.483 324.242 251.725 320.777 248.397 321.154C246.809 321.398 245.277 321.93 243.874 322.725C243.619 322.861 243.403 323.063 243.248 323.31C243.093 323.558 243.004 323.842 242.99 324.135C242.976 324.428 243.037 324.72 243.167 324.982C243.299 325.243 243.494 325.466 243.735 325.626L256.298 334.028Z" stroke="#FF967C" stroke-width="1.5" stroke-linecap="round"/>
<path d="M191.405 393.595H76.4408C75.9664 393.605 75.4956 393.51 75.0599 393.318C74.6242 393.126 74.2341 392.841 73.9162 392.482C73.5977 392.124 73.3589 391.699 73.2156 391.238C73.0718 390.777 73.0272 390.29 73.0845 389.81L77.5989 341.937C77.7114 340.91 78.1864 339.96 78.9353 339.264C79.6842 338.568 80.6554 338.173 81.6691 338.152H196.634C197.108 338.142 197.579 338.237 198.014 338.429C198.45 338.621 198.84 338.906 199.159 339.264C199.477 339.624 199.715 340.048 199.859 340.509C200.003 340.97 200.047 341.457 199.99 341.937L195.476 389.81C195.363 390.837 194.888 391.787 194.139 392.483C193.391 393.179 192.419 393.575 191.405 393.595Z" fill="#FEBB94"/>
<path d="M87.2338 350.637H158.184" stroke="#EF6A77" stroke-width="5.8449" stroke-miterlimit="10" stroke-linecap="round"/>
<path d="M87.2338 350.637H136.537" stroke="white" stroke-width="5.8449" stroke-miterlimit="10" stroke-linecap="round"/>
<path d="M86.1723 365.874H157.122" stroke="#EF6A77" stroke-width="5.8449" stroke-miterlimit="10" stroke-linecap="round"/>
<path d="M86.1723 365.874H115.649" stroke="white" stroke-width="5.8449" stroke-miterlimit="10" stroke-linecap="round"/>
<path d="M83.8525 381.111H154.802" stroke="#EF6A77" stroke-width="5.8449" stroke-miterlimit="10" stroke-linecap="round"/>
<path d="M83.8525 381.111H101.879" stroke="white" stroke-width="5.8449" stroke-miterlimit="10" stroke-linecap="round"/>
<path d="M183.298 354.958C185.64 354.958 187.538 353.023 187.538 350.637C187.538 348.25 185.64 346.315 183.298 346.315C180.957 346.315 179.059 348.25 179.059 350.637C179.059 353.023 180.957 354.958 183.298 354.958Z" fill="white"/>
<path d="M181.924 369.528C184.265 369.528 186.163 367.594 186.163 365.207C186.163 362.82 184.265 360.886 181.924 360.886C179.582 360.886 177.684 362.82 177.684 365.207C177.684 367.594 179.582 369.528 181.924 369.528Z" fill="white"/>
<path d="M180.389 385.432C182.73 385.432 184.629 383.497 184.629 381.111C184.629 378.724 182.73 376.789 180.389 376.789C178.048 376.789 176.15 378.724 176.15 381.111C176.15 383.497 178.048 385.432 180.389 385.432Z" fill="white"/>
</g>
</g>
<defs>
<linearGradient id="paint0_linear_56_551" x1="213.357" y1="-52.1461" x2="369.658" y2="716.234" gradientUnits="userSpaceOnUse">
<stop stop-color="white"/>
<stop offset="1" stop-color="#94B9FF"/>
</linearGradient>
<linearGradient id="paint1_linear_56_551" x1="231.147" y1="78.7172" x2="246.323" y2="310.46" gradientUnits="userSpaceOnUse">
<stop stop-color="white"/>
<stop offset="1" stop-color="#94B9FF"/>
</linearGradient>
<linearGradient id="paint2_linear_56_551" x1="274.539" y1="197.451" x2="299.352" y2="399.005" gradientUnits="userSpaceOnUse">
<stop stop-color="white"/>
<stop offset="1" stop-color="#94B9FF"/>
</linearGradient>
<linearGradient id="paint3_linear_56_551" x1="223.286" y1="299.992" x2="227.658" y2="418.767" gradientUnits="userSpaceOnUse">
<stop stop-color="white"/>
<stop offset="1" stop-color="#94B9FF"/>
</linearGradient>
<linearGradient id="paint4_linear_56_551" x1="406.178" y1="61.6341" x2="409.908" y2="109.544" gradientUnits="userSpaceOnUse">
<stop stop-color="white"/>
<stop offset="1" stop-color="#94B9FF"/>
</linearGradient>
<clipPath id="clip0_56_551">
<rect width="483" height="455" fill="white"/>
</clipPath>
</defs>
</svg>
