<svg width="195" height="165" viewBox="0 0 195 165" fill="none" xmlns="http://www.w3.org/2000/svg">
<path d="M98.9994 139.455C139.834 139.455 172.938 138.464 172.938 137.241C172.938 136.019 139.834 135.027 98.9994 135.027C58.1646 135.027 25.0615 136.019 25.0615 137.241C25.0615 138.464 58.1646 139.455 98.9994 139.455Z" fill="#F5F8FF"/>
<path d="M109.102 136.346H58.901C54.8291 136.346 52.0879 132.986 52.7783 128.843L72.9968 7.50298C73.6873 3.35918 77.5481 0 81.62 0H131.821C135.893 0 138.635 3.35918 137.944 7.50298L117.726 128.843C117.035 132.986 113.174 136.346 109.102 136.346Z" fill="#5CA4E6"/>
<path d="M102.832 136.346H52.631C48.5591 136.346 45.8179 132.986 46.5083 128.843L66.7268 7.50298C67.4172 3.35918 71.2779 0 75.3499 0H125.551C129.623 0 132.365 3.35918 131.674 7.50298L111.456 128.843C110.765 132.986 106.904 136.346 102.832 136.346Z" fill="#D1E8F7"/>
<path d="M103.121 132.289H53.6944C51.58 132.289 50.1567 130.545 50.5152 128.393L70.584 7.95246C70.9425 5.80085 72.9471 4.0567 75.0615 4.0567H124.488C126.603 4.0567 128.026 5.80085 127.667 7.95246L107.599 128.393C107.24 130.545 105.235 132.289 103.121 132.289Z" fill="white"/>
<path d="M107.799 44.6372H60.5391L65.4647 16.9465C65.7874 15.2581 67.3941 13.8894 69.053 13.8894H113.676C115.335 13.8894 116.418 15.2581 116.096 16.9465L111.388 41.5803C111.065 43.2685 109.458 44.6372 107.799 44.6372Z" fill="url(#paint0_linear_29_1457)"/>
<path d="M103.99 41.0741H33.2384C31.5794 41.0741 30.4959 39.7054 30.8186 38.017L35.5267 13.3831C35.8494 11.6947 37.4559 10.326 39.115 10.326H109.867C111.525 10.326 112.609 11.6947 112.286 13.3831L107.578 38.017C107.255 39.7054 105.649 41.0741 103.99 41.0741Z" fill="#FEBB94"/>
<path d="M99.4765 129.149L55.5948 129.361C53.9357 129.361 52.8523 127.992 53.175 126.304L57.8832 101.67C58.2059 99.9817 59.8123 98.613 61.4715 98.613L105.353 98.401C107.012 98.401 108.096 99.7697 107.773 101.458L103.065 126.092C102.742 127.78 101.136 129.149 99.4765 129.149Z" fill="#FEBB94"/>
<path d="M60.4209 121.689C61.6694 111.751 70.9486 103.695 81.1465 103.695C91.3444 103.695 98.5992 111.751 97.3507 121.689" stroke="#FF967C" stroke-width="3.44183" stroke-miterlimit="10" stroke-linecap="round"/>
<path d="M60.4209 121.689C61.6694 111.751 70.9486 103.695 81.1465 103.695C86.1938 103.695 90.5203 105.668 93.4515 108.867" stroke="white" stroke-width="3.44183" stroke-miterlimit="10" stroke-linecap="round"/>
<path d="M94.2286 94.9182H62.8082C61.1312 94.9182 59.9976 93.5347 60.2766 91.8281L66.9124 51.2101C67.1912 49.5034 68.7768 48.1201 70.4539 48.1201H101.874C103.551 48.1201 104.685 49.5034 104.406 51.2101L97.7699 91.8281C97.4912 93.5347 95.9057 94.9182 94.2286 94.9182Z" fill="url(#paint1_linear_29_1457)"/>
<path d="M72.4835 69.5991H68.1996C67.964 69.6074 67.7379 69.6969 67.559 69.8529C67.38 70.0092 67.2585 70.2229 67.2148 70.4586L64.8881 84.7003C64.8654 84.8057 64.8669 84.9151 64.8921 85.0198C64.9175 85.1245 64.9658 85.222 65.0338 85.3049C65.1017 85.3878 65.1873 85.454 65.284 85.4981C65.3808 85.5422 65.4862 85.5632 65.5921 85.5596H69.876C70.1119 85.5515 70.3377 85.462 70.5167 85.3058C70.6958 85.1495 70.8171 84.9361 70.861 84.7003L73.1877 70.4586C73.2102 70.3532 73.2087 70.2438 73.1835 70.1391C73.1583 70.0342 73.1098 69.9367 73.0419 69.8538C72.9742 69.7709 72.8885 69.7049 72.7917 69.6608C72.695 69.6167 72.5896 69.5955 72.4835 69.5991Z" fill="white"/>
<path d="M80.2998 74.472H76.0159C75.78 74.4801 75.5542 74.5696 75.3752 74.7258C75.1961 74.8821 75.0748 75.0955 75.0309 75.3313L73.5002 84.7003C73.4777 84.8057 73.4792 84.9151 73.5044 85.0198C73.5296 85.1245 73.5782 85.2221 73.6461 85.3049C73.714 85.3878 73.7994 85.454 73.8963 85.4981C73.993 85.5422 74.0984 85.5632 74.2044 85.5596H78.4884C78.724 85.5515 78.95 85.462 79.129 85.3058C79.308 85.1496 79.4294 84.9361 79.4732 84.7003L81.0038 75.3313C81.0265 75.2259 81.025 75.1165 80.9998 75.0118C80.9744 74.9071 80.9261 74.8096 80.8582 74.7267C80.7902 74.6438 80.7046 74.5776 80.608 74.5335C80.5111 74.4894 80.4057 74.4684 80.2998 74.472Z" fill="white"/>
<path d="M90.6469 60.7621H86.3629C86.1273 60.7702 85.9015 60.8596 85.7223 61.0159C85.5434 61.1721 85.4219 61.3856 85.3782 61.6214L81.6077 84.7004C81.5852 84.8058 81.5865 84.9151 81.6119 85.0199C81.6371 85.1246 81.6855 85.2221 81.7534 85.305C81.8213 85.3879 81.9069 85.4541 82.0036 85.4982C82.1005 85.5422 82.2059 85.5632 82.3117 85.5596H86.5957C86.8315 85.5516 87.0573 85.4621 87.2363 85.3059C87.4155 85.1496 87.5367 84.9361 87.5807 84.7004L91.3511 61.6214C91.3736 61.516 91.3721 61.4066 91.3469 61.3019C91.3217 61.1971 91.2734 61.0996 91.2055 61.0167C91.1375 60.9338 91.0519 60.8677 90.955 60.8236C90.8584 60.7795 90.7529 60.7585 90.6469 60.7621Z" fill="white"/>
<path d="M98.0187 66.7445H93.7348C93.4991 66.7526 93.2731 66.8421 93.0942 66.9983C92.9152 67.1545 92.7937 67.368 92.75 67.6038L89.9569 84.7003C89.9344 84.8057 89.9356 84.9151 89.961 85.0198C89.9862 85.1245 90.0346 85.222 90.1025 85.3049C90.1704 85.3878 90.256 85.454 90.3527 85.4981C90.4496 85.5422 90.555 85.5632 90.6608 85.5596H94.9448C95.1806 85.5515 95.4064 85.462 95.5856 85.3058C95.7646 85.1495 95.886 84.9361 95.9298 84.7003L98.7229 67.6038C98.7454 67.4984 98.7439 67.389 98.7187 67.2843C98.6935 67.1796 98.645 67.082 98.5771 66.9992C98.5092 66.9163 98.4237 66.8501 98.3269 66.806C98.2302 66.7619 98.1248 66.7409 98.0187 66.7445Z" fill="white"/>
<path d="M70.0479 53.1171H81.6466" stroke="white" stroke-width="2.08333" stroke-miterlimit="10" stroke-linecap="round"/>
<path d="M69.3936 57.1248H75.1929" stroke="white" stroke-width="2.08333" stroke-miterlimit="10" stroke-linecap="round"/>
<path opacity="0.6" d="M66.1387 88.4619H68.382" stroke="white" stroke-width="1.25" stroke-miterlimit="10" stroke-linecap="round"/>
<path opacity="0.6" d="M74.751 88.4619H76.9941" stroke="white" stroke-width="1.25" stroke-miterlimit="10" stroke-linecap="round"/>
<path opacity="0.6" d="M82.8579 88.4619H85.1012" stroke="white" stroke-width="1.25" stroke-miterlimit="10" stroke-linecap="round"/>
<path opacity="0.6" d="M91.2075 88.4619H93.4509" stroke="white" stroke-width="1.25" stroke-miterlimit="10" stroke-linecap="round"/>
<path d="M135.443 94.9182H104.023C102.346 94.9182 101.213 93.5347 101.491 91.8281L108.127 51.2101C108.406 49.5034 109.992 48.1201 111.669 48.1201H143.089C144.766 48.1201 145.9 49.5034 145.621 51.2101L138.985 91.8281C138.706 93.5347 137.121 94.9182 135.443 94.9182Z" fill="url(#paint2_linear_29_1457)"/>
<path d="M112.884 75.7225H108.6C108.365 75.7305 108.139 75.82 107.96 75.9762C107.781 76.1325 107.659 76.346 107.616 76.5817L106.103 84.7004C106.08 84.8057 106.082 84.9151 106.107 85.0198C106.132 85.1246 106.181 85.2221 106.249 85.305C106.317 85.3879 106.402 85.454 106.499 85.4981C106.595 85.5422 106.701 85.5632 106.807 85.5596H111.091C111.327 85.5516 111.553 85.4621 111.732 85.3058C111.91 85.1496 112.032 84.9361 112.076 84.7004L113.589 76.5817C113.611 76.4763 113.61 76.367 113.584 76.2622C113.559 76.1575 113.511 76.06 113.443 75.9771C113.375 75.8942 113.289 75.828 113.193 75.7839C113.096 75.7399 112.99 75.7189 112.884 75.7225Z" fill="white"/>
<path d="M123.132 63.1509H118.848C118.613 63.159 118.387 63.2484 118.208 63.4047C118.029 63.5609 117.907 63.7744 117.864 64.0102L114.715 84.7003C114.693 84.8057 114.694 84.9151 114.719 85.0198C114.744 85.1246 114.793 85.2221 114.861 85.305C114.929 85.3879 115.014 85.454 115.111 85.4981C115.208 85.5422 115.313 85.5632 115.419 85.5596H119.703C119.939 85.5515 120.165 85.4621 120.344 85.3058C120.523 85.1496 120.644 84.9361 120.688 84.7003L123.837 64.0102C123.859 63.9048 123.858 63.7954 123.832 63.6907C123.807 63.5859 123.759 63.4884 123.691 63.4055C123.623 63.3226 123.537 63.2565 123.441 63.2124C123.344 63.1683 123.238 63.1473 123.132 63.1509Z" fill="white"/>
<path d="M130.444 69.0583H126.16C125.925 69.0664 125.699 69.1559 125.52 69.3121C125.341 69.4684 125.219 69.6819 125.176 69.9176L122.823 84.7003C122.8 84.8057 122.801 84.9151 122.827 85.0198C122.852 85.1245 122.9 85.2221 122.968 85.305C123.036 85.3878 123.122 85.454 123.219 85.4981C123.315 85.5422 123.421 85.5632 123.527 85.5596H127.811C128.046 85.5515 128.272 85.4621 128.451 85.3058C128.63 85.1496 128.752 84.9361 128.795 84.7003L131.149 69.9176C131.171 69.8122 131.17 69.7028 131.144 69.5981C131.119 69.4934 131.071 69.3959 131.003 69.313C130.935 69.2301 130.849 69.1639 130.753 69.1198C130.656 69.0757 130.55 69.0547 130.444 69.0583Z" fill="white"/>
<path d="M139.234 66.7445H134.95C134.714 66.7526 134.488 66.8421 134.309 66.9983C134.13 67.1545 134.009 67.368 133.965 67.6038L131.172 84.7003C131.149 84.8057 131.151 84.9151 131.176 85.0198C131.201 85.1245 131.25 85.222 131.317 85.3049C131.385 85.3878 131.471 85.454 131.568 85.4981C131.665 85.5422 131.77 85.5632 131.876 85.5596H136.16C136.395 85.5515 136.621 85.462 136.8 85.3058C136.979 85.1495 137.101 84.9361 137.145 84.7003L139.938 67.6038C139.96 67.4984 139.959 67.389 139.934 67.2843C139.908 67.1796 139.86 67.082 139.792 66.9992C139.724 66.9163 139.638 66.8501 139.542 66.806C139.445 66.7619 139.34 66.7409 139.234 66.7445Z" fill="white"/>
<path d="M111.263 53.1171H122.861" stroke="white" stroke-width="2.08333" stroke-miterlimit="10" stroke-linecap="round"/>
<path d="M110.608 57.1248H116.408" stroke="white" stroke-width="2.08333" stroke-miterlimit="10" stroke-linecap="round"/>
<path opacity="0.6" d="M107.354 88.4619H109.597" stroke="white" stroke-width="1.25" stroke-miterlimit="10" stroke-linecap="round"/>
<path opacity="0.6" d="M115.966 88.4619H118.209" stroke="white" stroke-width="1.25" stroke-miterlimit="10" stroke-linecap="round"/>
<path opacity="0.6" d="M124.073 88.4619H126.316" stroke="white" stroke-width="1.25" stroke-miterlimit="10" stroke-linecap="round"/>
<path opacity="0.6" d="M132.422 88.4619H134.665" stroke="white" stroke-width="1.25" stroke-miterlimit="10" stroke-linecap="round"/>
<path d="M2.07425 140.567L10.9963 159.56L9.88987 160.098C9.51633 160.28 9.08737 160.303 8.69716 160.163C8.30696 160.023 7.98737 159.731 7.80904 159.351L0.232579 143.223C0.0542461 142.843 0.0313309 142.406 0.169039 142.009C0.306956 141.612 0.594041 141.287 0.967583 141.105L2.07425 140.567Z" fill="#71C8EA"/>
<path d="M11.7879 136.278L5.63037 138.868L9.08474 143.839L14.5435 142.144L11.7879 136.278Z" fill="#FFCCB3"/>
<path d="M7.85442 139.067C7.85442 139.067 10.2584 142.845 10.6211 144.956C10.9838 147.067 12.2257 157.747 11.8915 158.709C11.6513 159.401 10.7788 159.698 10.2253 159.761C10.1038 159.774 9.98129 159.749 9.87484 159.688C9.76838 159.627 9.68296 159.534 9.63088 159.422L1.53192 142.18C1.3965 141.893 1.37754 141.563 1.47879 141.261C1.58025 140.959 1.79379 140.71 2.074 140.567C3.19442 139.994 4.90838 139.135 5.63004 138.868C6.74546 138.455 7.48171 138.457 7.85442 139.067Z" fill="#5661AE"/>
<path d="M51.4436 148.105L43.0763 163.823C42.879 164.194 42.5454 164.469 42.1488 164.589C41.7521 164.709 41.3248 164.664 40.9609 164.463L39.8823 163.869L49.7365 145.358L50.8148 145.953C51.1788 146.153 51.4494 146.493 51.5673 146.897C51.6852 147.3 51.6409 147.735 51.4436 148.105Z" fill="#71C8EA"/>
<path d="M40.2481 140.575L46.2692 143.479L42.5723 148.266L37.2046 146.292L40.2481 140.575Z" fill="#FFCCB3"/>
<path d="M44.0378 143.563C44.0378 143.563 41.4493 147.212 40.9822 149.302C40.5153 151.392 38.7447 161.994 39.0305 162.973C39.236 163.676 40.0926 164.018 40.6424 164.109C40.763 164.128 40.8866 164.109 40.996 164.054C41.1053 163.998 41.1951 163.91 41.2528 163.8L50.1978 146.998C50.3472 146.717 50.3826 146.389 50.2964 146.082C50.2101 145.776 50.0091 145.516 49.7366 145.358C48.646 144.728 46.9766 143.783 46.2693 143.479C45.1758 143.009 44.4403 142.974 44.0378 143.563Z" fill="#5661AE"/>
<path d="M58.3874 118.185C58.3874 118.185 60.6924 129.833 58.9036 132.116L13.3234 143.992L9.43652 136.584L36.0534 124.293L41.384 116.858L58.3874 118.185Z" fill="#D1E8F7"/>
<path d="M46.8533 126.497L36.7966 129.919L32.1039 131.922L38.2064 137.509L32.7506 138.763L17.8691 126.497H46.8533Z" fill="#5CA4E6"/>
<path d="M12.2925 135.612L12.6019 136.706L19.6685 142.319L26.3066 140.67C26.3066 140.67 13.501 134.469 12.2925 135.612Z" fill="#5CA4E6"/>
<path d="M25.0855 117.506C25.0855 117.506 12.1969 116.794 5.80861 117.366C1.69506 117.734 0.212151 128.445 3.49486 130.394L38.7253 148.751L42.8769 141.117L20.1501 125.462L36.4094 123.135L25.0855 117.506Z" fill="#D1E8F7"/>
<path d="M6.89208 131.306C10.6983 131.306 13.784 128.166 13.784 124.293C13.784 120.419 10.6983 117.279 6.89208 117.279C3.08563 117.279 0 120.419 0 124.293C0 128.166 3.08563 131.306 6.89208 131.306Z" fill="#D1E8F7"/>
<path d="M57.7588 132.212C61.565 132.212 64.6507 129.072 64.6507 125.199C64.6507 121.325 61.565 118.185 57.7588 118.185C53.9523 118.185 50.8667 121.325 50.8667 125.199C50.8667 129.072 53.9523 132.212 57.7588 132.212Z" fill="#D1E8F7"/>
<path d="M38.8794 92.1035C38.1534 88.456 39.8608 88.5499 40.4292 87.9701C40.4292 87.9701 42.5609 86.1812 44.1852 87.8486C45.9046 89.6125 55.7606 103.314 55.7606 103.314L49.5938 109.086L48.4346 107.679L45.4319 104.034L42.2202 100.139L41.8213 99.696L37.4888 94.7022C37.4888 94.7022 39.29 94.0238 38.8794 92.1035Z" fill="#5661AE"/>
<path d="M42.2994 95.7665C44.7815 94.9206 46.1194 92.1875 45.2882 89.6617C44.4569 87.1361 41.7711 85.7744 39.289 86.6203C36.8071 87.4664 35.469 90.1995 36.3005 92.7251C37.1317 95.2507 39.8175 96.6124 42.2994 95.7665Z" fill="#5661AE"/>
<path d="M41.878 99.6764C41.7536 98.9141 41.5049 97.3894 41.2372 95.9997L39.8145 89.2739C39.8145 89.2739 43.6357 95.0213 45.3963 99.0245C46.7001 102.025 48.2126 105.082 48.4628 107.669L45.4603 104.025L42.2486 100.13L41.878 99.6764Z" fill="#465393"/>
<path d="M61.9204 87.8884C63.3858 85.1684 62.6817 84.7067 63.305 83.1593C63.9192 81.6492 62.8288 77.9059 63.8727 78.4164C64.9165 78.9267 65.2396 80.2833 65.2396 80.2833C65.9535 78.9979 66.611 76.6332 68.32 76.3625C70.0294 76.092 70.1806 76.6394 71.1494 77.4484C73.7267 79.6305 70.4402 82.91 69.8917 84.1587C69.5387 84.9416 66.9456 87.3281 66.6583 87.8496L65.3531 89.7763L61.9204 87.8884Z" fill="#FFCCB3"/>
<path d="M66.9556 80.4518L69.0383 76.5389" stroke="#E56441" stroke-width="0.197221" stroke-linecap="round"/>
<path d="M68.3198 81.0855L70.5898 77.4412" stroke="#E56441" stroke-width="0.197221" stroke-linecap="round"/>
<path d="M69.9414 81.786L71.2387 79.579" stroke="#E56441" stroke-width="0.197221" stroke-linecap="round"/>
<path d="M66.4409 83.8964C66.4298 82.5415 65.6309 80.9021 65.6309 80.9021L66.4409 83.8964Z" fill="#E56441"/>
<path d="M66.4409 83.8964C66.4298 82.5415 65.6309 80.9021 65.6309 80.9021" stroke="#E56441" stroke-width="0.197221" stroke-linecap="round"/>
<path d="M49.541 103.205L62.0812 86.2113C62.161 86.1114 62.2746 86.0453 62.3996 86.0254C62.5246 86.0056 62.6525 86.0336 62.7583 86.104L66.0421 88.3139C66.1981 88.4214 66.3091 88.5842 66.3539 88.7706C66.3987 88.9569 66.3737 89.1535 66.2839 89.3222L56.1993 108.247L49.541 103.205Z" fill="#5661AE"/>
<path d="M52.588 110.383C54.9074 110.383 56.7876 108.47 56.7876 106.11C56.7876 103.75 54.9074 101.836 52.588 101.836C50.2689 101.836 48.3887 103.75 48.3887 106.11C48.3887 108.47 50.2689 110.383 52.588 110.383Z" fill="#5661AE"/>
<path d="M33.9658 84.2136C33.9658 84.2136 41.0031 86.1087 42.211 86.6003C43.4192 87.0922 43.4996 89.0589 43.5802 90.4522C43.6606 91.8455 43.3902 123.135 43.3902 123.135L27.816 122.525L16.1689 115.587C16.1689 115.587 16.6754 90.7604 16.8364 89.6131C16.9975 88.4657 15.7319 87.4778 17.1037 86.9001L25.9225 84.5295L33.9658 84.2136Z" fill="#5661AE"/>
<path d="M22.2468 95.3599L22.3722 118.477L15.6768 110.884L18.9161 94.6405L22.2468 95.3599Z" fill="#465393"/>
<path d="M24.7743 84.8828C24.7743 84.8828 23.7781 86.9217 24.7743 88.3281C25.7706 89.7345 29.7589 91.1009 32.4837 91.0606C35.2083 91.0205 36.652 88.3769 35.4168 84.6757L30.9041 83.3857L25.9229 84.5294L24.7743 84.8828Z" fill="#465393"/>
<path d="M36.0537 67.3112C36.0537 67.3112 38.0157 71.6198 35.923 72.5097C33.8303 73.3997 34.0741 67.5203 36.0537 67.3112Z" fill="#93523E"/>
<path d="M33.8407 81.0983L34.4084 87.6118C34.4084 87.6118 34.9525 88.4851 32.8332 88.9436C31.4698 89.2385 27.7986 87.7666 27.0863 87.325C26.7834 87.1613 26.5461 86.8955 26.4153 86.573C26.2844 86.2503 26.2682 85.8916 26.3692 85.5581C26.5857 84.761 27.4827 78.1207 27.4827 78.1207L33.8407 81.0983Z" fill="#FFCCB3"/>
<path d="M33.95 82.3539L30.5684 80.6538L34.3384 86.8087L33.95 82.3539Z" fill="#FF967C"/>
<path d="M34.9267 68.558C34.9267 68.558 36.9113 73.623 37.6311 77.1759C38.3573 80.7607 37.1986 81.656 35.6696 82.183C34.4636 82.599 32.5377 82.9305 31.2277 82.5131C28.8388 81.752 26.5017 79.5554 25.9427 79.1043C25.0773 78.4058 24.2229 75.2372 25.4913 73.4447C26.7598 71.652 31.7575 66.0187 34.9267 68.558Z" fill="#FFCCB3"/>
<path d="M32.3719 75.5491C32.6358 75.4433 32.7212 75.0254 32.5627 74.6154C32.4042 74.2054 32.0619 73.9588 31.7979 74.0644C31.534 74.1702 31.4485 74.5881 31.6069 74.9981C31.7654 75.4081 32.1079 75.6546 32.3719 75.5491Z" fill="#080B09"/>
<path d="M35.9993 74.0697C36.2632 73.9641 36.3486 73.5461 36.1901 73.1363C36.0318 72.7263 35.6893 72.4797 35.4253 72.5853C35.1613 72.6911 35.0759 73.1089 35.2345 73.5189C35.3928 73.9287 35.7353 74.1755 35.9993 74.0697Z" fill="#080B09"/>
<path d="M34.6689 74.7691C34.6689 74.7691 34.3466 75.7617 35.0241 75.665C35.6681 75.5501 36.1051 75.8738 35.5424 76.5389" fill="#E56441"/>
<path d="M34.6689 74.7691C34.6689 74.7691 34.3466 75.7617 35.0241 75.665C35.6681 75.5501 36.1051 75.8738 35.5424 76.5389" stroke="#E56441" stroke-width="0.197221" stroke-linecap="round"/>
<path d="M35.5737 77.4164L35.5771 77.4157L35.5804 77.4147C35.5898 77.4117 35.5998 77.4115 35.6091 77.4138C35.6187 77.4159 35.6275 77.4208 35.6346 77.4278C35.6416 77.4348 35.6468 77.4435 35.6496 77.453C35.6521 77.4628 35.6523 77.473 35.6498 77.4825L35.6477 77.4908L35.6468 77.4993C35.6054 77.9336 35.4991 78.1919 35.3702 78.3369C35.2456 78.4772 35.0894 78.5239 34.9121 78.5101C34.7302 78.4959 34.5304 78.4179 34.3368 78.3108C34.1456 78.205 33.9679 78.0751 33.8306 77.9635C33.8212 77.9546 33.8143 77.9436 33.8106 77.9311C33.8064 77.9182 33.806 77.9042 33.8094 77.8908C33.8125 77.8777 33.8194 77.8654 33.8287 77.8558C33.8383 77.8461 33.8502 77.8393 33.8633 77.8361L33.8643 77.8359C34.3881 77.7009 35.1781 77.5113 35.5737 77.4164Z" fill="#E56441" stroke="#E56441" stroke-width="0.208333"/>
<path d="M30.0737 73.8135L30.1233 73.8843C30.1868 73.9939 30.2904 74.0737 30.4114 74.1059C30.5322 74.1381 30.661 74.1203 30.7691 74.0565L32.5997 72.9087C32.6906 72.857 32.7589 72.7722 32.7914 72.6715C32.8237 72.5708 32.8179 72.4614 32.7747 72.3649C32.751 72.3045 32.7152 72.25 32.6691 72.2049C32.6233 72.1597 32.5685 72.1249 32.5083 72.1029C32.4483 72.0808 32.3843 72.0722 32.3206 72.077C32.2568 72.0821 32.195 72.1008 32.1389 72.1319L30.2587 73.2089C30.2068 73.2356 30.1608 73.2725 30.1231 73.3175C30.0856 73.3626 30.0572 73.4148 30.0402 73.4714C30.0229 73.5278 30.0168 73.5871 30.0227 73.6458C30.0285 73.7046 30.0458 73.7616 30.0737 73.8135Z" fill="#080B09"/>
<path d="M36.3978 70.8704L34.2494 71.0728C34.1859 71.0796 34.1244 71.1002 34.0692 71.1328C34.014 71.1655 33.9663 71.2098 33.9292 71.2628C33.8921 71.3156 33.8665 71.3758 33.854 71.4396C33.8415 71.5034 33.8423 71.5691 33.8565 71.6323C33.875 71.7366 33.9313 71.8301 34.0142 71.8941C34.0973 71.9583 34.2009 71.9882 34.3046 71.9783L36.4517 71.8627C36.5763 71.8526 36.6921 71.7928 36.7736 71.6963C36.855 71.5996 36.8957 71.4744 36.8865 71.3474L36.888 71.2604C36.8819 71.2015 36.8642 71.1447 36.8361 71.093C36.808 71.0412 36.7698 70.9959 36.7242 70.9594C36.6784 70.9229 36.6259 70.8964 36.5698 70.881C36.5138 70.8657 36.4553 70.8621 36.3978 70.8704Z" fill="#080B09"/>
<path d="M32.4636 69.5686C32.4636 69.5686 31.3913 71.645 29.4459 72.2606C27.5005 72.8765 28.5636 76.001 28.5636 76.001C28.5636 76.001 27.2297 74.6505 25.6963 75.4108C24.1628 76.1708 25.3268 79.1541 27.4453 79.1921L26.869 82.5489C26.869 82.5489 25.7961 81.1893 24.6678 80.4617C23.5393 79.7342 19.4857 76.9101 21.2763 73.1905C21.2763 73.1905 19.8753 67.9678 23.7178 65.2599C27.5603 62.5522 30.8861 63.574 30.8861 63.574C30.8861 63.574 31.8022 62.0953 33.9255 62.3972C36.0488 62.6993 36.5384 66.5955 35.8353 68.0047C35.1322 69.4139 33.9863 70.0128 32.4636 69.5686Z" fill="#93523E"/>
<path d="M16.4548 90.3858C19.1571 87.8778 19.955 89.4168 20.736 89.615C20.736 89.615 23.3394 90.5569 22.7681 92.8319C22.1644 95.2392 15.6765 110.884 15.6765 110.884L7.64209 108.465L8.23334 106.73L9.76292 102.236L11.3967 97.4311L11.5654 96.8549L13.5496 90.5069C13.5496 90.5069 15.0469 91.7308 16.4548 90.3858Z" fill="#5661AE"/>
<path d="M21.8065 94.7264C23.5088 92.7028 23.2767 89.6584 21.2883 87.9262C19.3 86.1939 16.3081 86.4301 14.6061 88.4534C12.9038 90.4768 13.1356 93.5213 15.1242 95.2536C17.1125 96.9857 20.1042 96.7497 21.8065 94.7264Z" fill="#5661AE"/>
<path d="M14.8813 107.041L29.7975 121.915C29.8844 122.009 29.934 122.132 29.9369 122.261C29.9398 122.389 29.8959 122.515 29.8134 122.612L27.2311 125.636C27.1059 125.779 26.9327 125.87 26.7452 125.891C26.5579 125.912 26.3696 125.861 26.2171 125.748L9.09814 113.099L14.8813 107.041Z" fill="#5661AE"/>
<path d="M11.653 114.008C13.9724 114.008 15.8526 112.095 15.8526 109.735C15.8526 107.375 13.9724 105.462 11.653 105.462C9.33382 105.462 7.45361 107.375 7.45361 109.735C7.45361 112.095 9.33382 114.008 11.653 114.008Z" fill="#5661AE"/>
<path d="M35.9202 104.176L27.825 126.998H11.5483C11.5483 126.302 11.8204 125.633 12.3046 125.14C12.789 124.648 13.4456 124.371 14.1304 124.371H25.906L32.8963 104.176H35.9202Z" fill="white"/>
<path d="M35.9204 104.176H57.7587L49.3129 126.998H27.8252L35.9204 104.176Z" fill="url(#paint3_linear_29_1457)"/>
<path d="M66.4141 29.7463C66.4141 29.7463 70.0528 28.9663 71.207 30.7671C72.3612 32.5678 73.5153 35.9508 76.1314 35.5121C78.7474 35.0735 80.7478 26.2258 83.3639 26.3042C85.9799 26.3825 84.8257 32.1765 87.6726 32.2547C90.5195 32.3329 89.827 29.0446 92.1353 29.0446C94.4437 29.0446 93.6741 36.0913 96.6749 36.1696C99.6757 36.248 99.3678 27.0872 103.907 27.2436" stroke="white" stroke-width="1.04167" stroke-miterlimit="10" stroke-linecap="round"/>
<path d="M55.792 28.529C57.6452 23.8969 55.861 18.7805 51.807 17.101C47.7531 15.4215 42.9645 17.815 41.1114 22.4471C39.2583 27.0791 41.0424 32.1956 45.0964 33.8751C49.1504 35.5545 53.9391 33.161 55.792 28.529Z" stroke="#FF967C" stroke-width="3.44183" stroke-miterlimit="10" stroke-linecap="round"/>
<path d="M52.2264 33.0111C50.0874 34.4468 47.4664 34.8568 45.0964 33.8751C41.0424 32.1956 39.2583 27.0791 41.1114 22.4471C42.9645 17.815 47.7531 15.4215 51.807 17.101" stroke="white" stroke-width="3.44183" stroke-miterlimit="10" stroke-linecap="round"/>
<path d="M69.1489 16.5642H85.1606" stroke="white" stroke-width="2.08333" stroke-miterlimit="10" stroke-linecap="round"/>
<path opacity="0.6" d="M68.3901 21.0587H74.9045" stroke="white" stroke-width="2.08333" stroke-miterlimit="10" stroke-linecap="round"/>
<path d="M190.371 128.273C190.325 128.279 190.304 128.305 190.329 128.326C190.308 128.352 190.308 128.352 190.315 128.399C190.217 128.722 190.148 129.053 190.108 129.389L194.058 132.619L194.496 132.119C194.496 132.119 193.038 130.284 192.492 129.75C192.256 129.515 192.046 129.3 191.835 129.086C191.652 128.892 191.488 128.673 191.329 128.5C191.108 128.192 190.469 128.31 190.463 128.263C190.438 128.242 190.371 128.273 190.371 128.273Z" fill="#233B62"/>
<path d="M160.502 100.202L164.316 103.964L185.644 124.922L186.033 125.283L186.202 125.55L186.227 125.571L189.248 130.228L189.585 130.761L189.698 130.939L191.741 134.112L190.058 134.964L189.571 135.209L188.883 135.546L187.798 136.118L187.779 136.144L186.627 136.747L186.571 136.658L183.946 131.552C183.437 130.566 182.723 129.704 181.854 129.027L158.662 110.961L154.254 107.526L160.502 100.202Z" fill="#FFCCB3"/>
<path d="M188.956 125.744C187.933 125.261 186.785 124.829 185.665 124.896C186.34 125.499 186.648 126.571 187.096 127.353C188.015 128.961 190.371 131.952 189.167 134.492C188.49 135.92 186.598 136.679 186.571 136.658C186.254 138.124 184.685 144.093 187.815 140.633C189.562 138.701 191.296 136.637 192.167 134.588C192.525 133.748 191.769 132.91 191.398 132.201C190.923 131.128 190.215 129.707 190.304 128.519L190.323 128.492C190.375 128.41 194.427 132.102 194.496 132.119C194.635 131.89 194.96 131.426 194.96 131.426C194.96 131.426 189.15 125.817 188.956 125.744Z" fill="#1C85E8"/>
<path d="M145.317 145.268C145.28 145.239 145.248 145.243 145.252 145.276C145.219 145.28 145.219 145.28 145.19 145.318C144.899 145.479 144.622 145.667 144.363 145.879L144.967 151L145.623 150.954C145.623 150.954 145.842 148.604 145.818 147.833C145.811 147.497 145.808 147.194 145.806 146.892C145.807 146.622 145.841 146.349 145.846 146.113C145.901 145.736 145.361 145.364 145.39 145.327C145.386 145.294 145.317 145.268 145.317 145.268Z" fill="#233B62"/>
<path d="M143.257 103.948L143.398 109.35L144.241 139.509L144.271 140.044L144.208 140.354L144.212 140.388L143.171 145.867L143.046 146.488L143.004 146.695L142.285 150.418L140.495 149.829L139.979 149.656L139.255 149.408L138.088 149.046L138.055 149.05L136.819 148.662L136.84 148.559L138.472 143.041C138.785 141.973 138.867 140.849 138.711 139.746L134.549 110.33L133.757 104.737L143.257 103.948Z" fill="#FFCCB3"/>
<path d="M146.044 142.453C145.645 141.38 145.122 140.255 144.274 139.505C144.343 140.417 143.826 141.403 143.608 142.279C143.16 144.084 142.79 147.898 140.183 148.857C138.718 149.397 136.844 148.592 136.84 148.559C135.606 149.381 130.382 152.531 134.996 152.284C137.573 152.147 140.231 151.905 142.262 151.061C143.095 150.715 143.13 149.578 143.352 148.807C143.751 147.702 144.22 146.181 145.1 145.396L145.133 145.392C145.226 145.37 145.586 150.892 145.623 150.954C145.88 150.888 146.431 150.788 146.431 150.788C146.431 150.788 146.132 142.644 146.044 142.453Z" fill="#1C85E8"/>
<path d="M137.511 63.4145L129.972 95.8127L129.958 98.1127L136.089 136.475L145.85 135.4L143.018 98.7617L150.784 79.6452L149.214 63.9684L137.511 63.4145Z" fill="#1F2D49"/>
<path d="M136.456 103.682C140.097 103.682 143.048 100.678 143.048 96.9732C143.048 93.2682 140.097 90.2646 136.456 90.2646C132.815 90.2646 129.863 93.2682 129.863 96.9732C129.863 100.678 132.815 103.682 136.456 103.682Z" fill="#1F2D49"/>
<path d="M145.493 92.671L143.634 76.6638L143.019 98.7617L145.493 92.671Z" fill="#0D1B33"/>
<path d="M157.862 63.3133C157.862 63.3133 161.377 69.3227 161.423 74.3552C161.494 81.9085 158.817 95.4518 158.817 95.4518L182.19 119.492L176.625 127.982C176.625 127.982 156.681 111.143 148.243 103.144L146.352 99.2499L143.633 76.6637L147.79 63.3133H157.862Z" fill="#1F2D49"/>
<path d="M137.511 63.4145L157.983 63.6286L159.973 67.8182L137.166 64.9012L137.511 63.4145Z" fill="#0D1B33"/>
<path d="M152.886 105.091C156.527 105.091 159.479 102.088 159.479 98.3824C159.479 94.6774 156.527 91.6738 152.886 91.6738C149.245 91.6738 146.294 94.6774 146.294 98.3824C146.294 102.088 149.245 105.091 152.886 105.091Z" fill="#1F2D49"/>
<path d="M135.122 18.8939C135.122 18.8939 135.396 22.0081 134.589 25.0015C133.781 27.995 127.668 34.3339 133.089 39.4991C138.511 44.6641 145.144 30.8123 145.144 30.8123L143.068 24.4145L135.887 16.8125L135.122 18.8939Z" fill="#1F2D49"/>
<path d="M151.664 19.6208C151.664 19.6208 153.291 21.7243 156.998 23.4437C160.636 25.131 164.552 27.9044 163.746 33.9499C162.938 39.9954 152.184 35.2999 149.025 31.8369C145.865 28.374 146.3 22.1912 146.3 22.1912L151.664 19.6208Z" fill="#1F2D49"/>
<path d="M143.346 30.9487C143.346 30.9487 139.219 32.6104 138.589 33.1233C137.959 33.6363 137.361 37.8227 136.29 39.8102C135.219 41.798 133.652 45.4667 135.94 48.8367C138.229 52.2065 137.986 54.8824 137.986 54.8824L137.499 63.3357L157.223 63.7057C157.398 63.7114 157.571 63.6792 157.731 63.6118C157.892 63.5444 158.036 63.4428 158.156 63.3141C158.275 63.1856 158.365 63.0326 158.423 62.8655C158.479 62.6985 158.5 62.5208 158.486 62.3448C158.267 59.8801 157.265 56.4189 157.186 52.4944C157.079 47.1756 157 29.4039 157 29.4039L148.407 29.1293C146.676 29.4331 143.346 30.9487 143.346 30.9487Z" fill="#FEBB94"/>
<path d="M153.617 36.6686C153.617 36.6686 150.743 39.3358 150.574 41.3146C150.405 43.2935 150.014 48.8108 146.319 49.3612C141.791 50.0358 140.606 50.6926 142.705 51.2088C144.804 51.725 149.568 50.8887 149.568 53.1015C149.568 54.6765 151.419 55.8546 152.349 54.9943C153.279 54.134 160.687 41.0564 153.617 36.6686Z" fill="#FF967C"/>
<path d="M118.949 38.9042L117.39 36.8742C117.064 36.3991 116.63 36.0107 116.125 35.7421C115.359 35.3514 114.183 34.6225 113.774 33.8941C113.097 32.7361 110.429 29.6085 112.744 27.1774C113.6 26.2802 113.386 26.4925 115.099 26.5194C116.812 26.5461 117.075 28.3547 117.93 29.5385C117.93 29.5385 118.123 28.173 119.069 27.5491C120.015 26.9252 119.387 30.7359 120.115 32.1801C120.843 33.6242 120.255 34.1701 121.979 36.7074L118.949 38.9042Z" fill="#FFCCB3"/>
<path d="M114.838 26.7278L116.23 29.9411" stroke="#E56441" stroke-width="0.197221" stroke-linecap="round"/>
<path d="M113.023 27.2992L114.951 30.7209" stroke="#E56441" stroke-width="0.197221" stroke-linecap="round"/>
<path d="M111.884 29.549L113.404 31.5916" stroke="#E56441" stroke-width="0.197221" stroke-linecap="round"/>
<path d="M117.572 30.2668C117.572 30.2668 116.983 31.9836 117.085 33.3364L117.572 30.2668Z" fill="#E56441"/>
<path d="M117.572 30.2668C117.572 30.2668 116.983 31.9836 117.085 33.3364" stroke="#E56441" stroke-width="0.197221" stroke-linecap="round"/>
<path d="M139.592 32.5703C137.992 33.1347 135.762 34.2793 135.158 35.5564L129.825 47.9187L120.944 34.1864L117.581 37.7911L125.875 55.2476C127.391 59.0863 131.241 60.5286 134.029 56.3914L138.485 49.2695L139.592 32.5703Z" fill="#FEBB94"/>
<path d="M137.317 43.2123C137.317 43.2123 136.837 42.3683 136.837 46.7739L134.029 56.3914L138.485 49.2696C142.06 44.3791 139.236 43.073 137.317 43.2123Z" fill="#FF967C"/>
<path d="M147.094 37.3795L132.363 43.3503C131.906 43.5359 131.683 44.064 131.865 44.5295L139.238 63.3655C139.42 63.8313 139.939 64.0585 140.396 63.873L155.127 57.902C155.585 57.7165 155.808 57.1886 155.626 56.7228L148.253 37.8868C148.071 37.4211 147.552 37.194 147.094 37.3795Z" fill="#1C85E8"/>
<path d="M134.611 45.122L140.686 42.6598" stroke="white" stroke-width="0.833333" stroke-miterlimit="10" stroke-linecap="round"/>
<path d="M135.528 47.335L138.297 46.2127" stroke="white" stroke-width="0.833333" stroke-miterlimit="10" stroke-linecap="round"/>
<path d="M142.824 26.5207L143.056 33.1286C143.056 33.1286 142.738 34.5755 144.197 34.415C145.657 34.2545 147.621 33.0851 148.726 31.8008C149.83 30.5165 149.755 30.4135 149.281 29.5706C148.808 28.7278 146.586 22.304 146.586 22.304L142.824 26.5207Z" fill="#FFCCB3"/>
<path d="M142.857 27.0748L145.548 25.3311C145.548 25.3311 144.355 30.6559 143.056 33.1285L142.857 27.0748Z" fill="#FCBA9F"/>
<path d="M135.602 16.6321C135.602 16.6321 135.559 23.2082 138.347 26.5177C140.166 28.6759 142.078 28.3897 145.269 24.8366C148.194 21.5787 148.605 19.8808 148.605 19.8808L146.585 13.4291C146.585 13.4291 135.93 10.6472 135.602 16.6321Z" fill="#FFCCB3"/>
<path d="M138.376 15.1065C138.376 15.1065 139.544 17.9924 141.713 18.7989C143.882 19.6054 144.449 21.1051 144.449 21.1051C144.449 21.1051 144.866 18.6376 146.57 18.7273C148.275 18.8169 147.928 21.8793 146.87 22.8961C146.87 22.8961 148.143 25.2983 149.222 27.0749L153.949 22.3014C153.949 22.3014 151.513 19.4366 150.978 17.1315C150.443 14.8264 148.71 8.65543 142.103 9.06417C134.347 9.54393 134.792 15.9581 135.122 19.5206C135.122 19.5206 137.554 18.5714 138.376 15.1065Z" fill="#1F2D49"/>
<path d="M139.216 24.4841L141.101 23.5428C141.103 23.5537 141.105 23.5653 141.106 23.5774C141.119 23.6781 141.125 23.8165 141.098 23.9685C141.045 24.266 140.865 24.627 140.329 24.8615C139.985 24.9749 139.692 24.863 139.476 24.7142C139.369 24.6393 139.282 24.5566 139.224 24.4924C139.221 24.4897 139.218 24.4869 139.216 24.4841Z" fill="#E56441" stroke="#E56441" stroke-width="0.208333"/>
<path d="M137.162 21.8136C137.4 21.7536 137.523 21.4155 137.436 21.058C137.35 20.7006 137.086 20.4593 136.848 20.5193C136.609 20.5791 136.487 20.9175 136.573 21.2749C136.66 21.6321 136.923 21.8734 137.162 21.8136Z" fill="#080B09"/>
<path d="M140.695 20.9801C140.934 20.9203 141.057 20.582 140.97 20.2245C140.883 19.8673 140.62 19.6261 140.381 19.6859C140.143 19.7458 140.02 20.084 140.107 20.4414C140.194 20.7989 140.457 21.0401 140.695 20.9801Z" fill="#080B09"/>
<path d="M135.791 19.8865L137.589 19.4665C137.619 19.4567 137.645 19.4362 137.661 19.4088C137.677 19.3813 137.683 19.3488 137.678 19.3172C137.658 19.2636 137.627 19.2144 137.588 19.1729C137.549 19.1315 137.502 19.0984 137.45 19.076C137.398 19.0535 137.342 19.0421 137.285 19.0421C137.229 19.0423 137.173 19.0541 137.121 19.0768L135.711 19.6846C135.594 19.7141 135.644 19.9233 135.791 19.8865Z" fill="#080B09"/>
<path d="M141.828 18.2486L139.486 18.9955C139.471 18.9211 139.471 18.8441 139.486 18.7697C139.501 18.6953 139.532 18.6249 139.576 18.563C139.619 18.5013 139.675 18.4496 139.74 18.4112C139.804 18.3729 139.876 18.3487 139.95 18.3402L141.821 18.0919C141.88 18.0773 141.916 18.2266 141.828 18.2486Z" fill="#080B09"/>
<path d="M138.423 20.6185L138.169 22.548L138.839 22.877" fill="#E56441"/>
<path d="M138.423 20.6185L138.169 22.548L138.839 22.877" stroke="#E56441" stroke-width="0.197221" stroke-linecap="round"/>
<path d="M140.205 54.4489L134.398 56.1447L133.688 59.7867L135.009 63.8175C135.009 63.8175 135.938 63.1815 135.744 61.6979C135.55 60.2141 140.458 60.2564 141.358 58.3912" fill="#FFCCB3"/>
<path d="M153.473 34.3752C153.473 34.3752 153.434 29.3689 157.375 29.3683C160.019 29.3679 161.283 30.6291 161.621 34.5647C161.856 37.3163 162.027 52.4136 162.027 52.4136C162.027 52.4136 162.692 59.3039 156.948 59.4326L140.364 58.9272L139.989 54.212L154.446 52.7456L153.473 34.3752Z" fill="#FEBB94"/>
<path d="M141.48 33.7492C141.48 33.7492 142.975 33.316 142.733 31.8212C142.497 30.3501 142.488 29.073 142.962 29.2509C142.962 29.2509 143.38 29.9812 145.983 29.1695C148.569 28.388 148.407 27.4853 148.407 27.4853C148.407 27.4853 148.773 27.1554 149.046 28.0022C149.319 28.8489 150.011 31.1937 151.476 31.0249L151.872 35.3954L144.084 38.004C144.066 38.0344 140.467 34.4861 141.48 33.7492Z" fill="#FEBB94"/>
<path d="M77.958 120.963H82.858" stroke="white" stroke-width="1.04167" stroke-miterlimit="10" stroke-linecap="round"/>
<path opacity="0.5" d="M78.9556 123.127H81.4058" stroke="white" stroke-width="1.04167" stroke-miterlimit="10" stroke-linecap="round"/>
<path d="M74.6938 116.643L78.4536 113.975L81.1022 115.77L84.6272 113.172" stroke="white" stroke-width="1.35503" stroke-linecap="round" stroke-linejoin="round"/>
<path d="M81.9175 112.04H85.6673V115.815" stroke="white" stroke-width="1.35503" stroke-linecap="round" stroke-linejoin="round"/>
<path d="M129.815 47.9143L132.309 51.6847L130.979 45.243L129.815 47.9143Z" fill="#FF967C"/>
<defs>
<linearGradient id="paint0_linear_29_1457" x1="86.9614" y1="13.8163" x2="90.9009" y2="79.5385" gradientUnits="userSpaceOnUse">
<stop stop-color="white"/>
<stop offset="1" stop-color="#94B9FF"/>
</linearGradient>
<linearGradient id="paint1_linear_29_1457" x1="77.2226" y1="33.2299" x2="93.6999" y2="146.731" gradientUnits="userSpaceOnUse">
<stop stop-color="white"/>
<stop offset="1" stop-color="#94B9FF"/>
</linearGradient>
<linearGradient id="paint2_linear_29_1457" x1="118.438" y1="33.2299" x2="134.915" y2="146.731" gradientUnits="userSpaceOnUse">
<stop stop-color="white"/>
<stop offset="1" stop-color="#94B9FF"/>
</linearGradient>
<linearGradient id="paint3_linear_29_1457" x1="42.0469" y1="104.121" x2="46.0664" y2="152.747" gradientUnits="userSpaceOnUse">
<stop stop-color="white"/>
<stop offset="1" stop-color="#94B9FF"/>
</linearGradient>
</defs>
</svg>
