<svg width="206" height="197" viewBox="0 0 206 197" fill="none" xmlns="http://www.w3.org/2000/svg">
<mask id="mask0_27_120" style="mask-type:luminance" maskUnits="userSpaceOnUse" x="0" y="0" width="206" height="197">
<path d="M205.116 0.987549H0V196.012H205.116V0.987549Z" fill="white"/>
</mask>
<g mask="url(#mask0_27_120)">
<path d="M41.0882 0.987549H166.685C168.585 0.987549 170.406 1.77203 171.75 3.16841C173.092 4.5648 173.846 6.45867 173.846 8.43351V16.6546H33.9276V8.43351C33.9276 6.45867 34.6821 4.5648 36.0248 3.16841C37.3678 1.77203 39.1892 0.987549 41.0882 0.987549Z" fill="#2B308B"/>
<path d="M33.9276 16.6546H173.846V148.537C173.846 150.325 173.508 152.095 172.85 153.746C172.192 155.398 171.229 156.898 170.013 158.162C168.798 159.426 167.354 160.429 165.767 161.113C164.177 161.797 162.475 162.149 160.756 162.149H47.018C45.299 162.149 43.5967 161.797 42.0086 161.113C40.4203 160.429 38.9771 159.426 37.7617 158.162C36.5461 156.898 35.5819 155.398 34.924 153.746C34.2663 152.095 33.9276 150.325 33.9276 148.537V16.6546Z" fill="url(#paint0_linear_27_120)"/>
<path d="M125.347 110.207H86.9694V129.587H125.347V110.207Z" fill="#FFCCB3"/>
<path d="M86.7434 122.155C82.2426 126.76 80.4717 149.439 80.7088 162.149H134.286C134.286 162.149 134.19 134.431 130.128 125.091C126.392 116.501 120.183 129.172 86.7434 122.155Z" fill="#1F2D49"/>
<path d="M118.899 22.0042C118.899 22.0042 123.344 16.7315 131.973 15.9644C140.602 15.1973 143.184 23.0562 142.815 27.8845C142.446 32.7129 135.684 42.6852 137.036 46.9044C138.389 51.1234 132.029 49.0779 131.336 40.6396C130.643 32.2014 128.06 20.4392 121.052 24.6582L118.899 22.0042Z" fill="#080B09"/>
<path d="M120.248 19.536C120.248 19.536 121.311 18.8954 122.081 20.3898C122.851 21.8841 124.289 24.9185 122.466 25.7229C120.644 26.5275 120.248 19.536 120.248 19.536Z" fill="#1C85E8"/>
<path d="M95.5992 68.1316C95.5992 68.1316 102.492 76.1768 100.2 78.7573C95.6594 84.061 83.583 94.029 79.6261 97.3286C79.4552 97.4646 79.2602 97.564 79.0521 97.6212C78.8442 97.6786 78.6273 97.6925 78.4142 97.6622C78.2011 97.6318 77.9957 97.558 77.8102 97.4447C77.6246 97.3314 77.4623 97.1812 77.3329 97.0025L67.9761 84.2104C67.6102 83.718 67.4396 83.0985 67.4992 82.4791C67.559 81.86 67.8444 81.288 68.2969 80.8808L86.4213 64.629L95.5992 68.1316Z" fill="#5A81FA"/>
<path d="M84.7169 78.3596C84.7169 78.3596 76.1265 83.6689 75.3524 94.3364L77.0632 96.6219C77.0632 96.6219 78.1374 98.5686 79.6261 97.3286C81.1149 96.0886 88.0011 90.3528 88.0011 90.3528L84.7169 78.3596Z" fill="#0E66AF"/>
<path d="M99.9784 48.4739L106.659 46.0201L98.3824 58.7764L99.9784 48.4739Z" fill="#FF967C"/>
<path d="M92.749 82.4037C98.1073 82.4037 102.451 77.8869 102.451 72.3148C102.451 66.7429 98.1073 62.2259 92.749 62.2259C87.3907 62.2259 83.0467 66.7429 83.0467 72.3148C83.0467 77.8869 87.3907 82.4037 92.749 82.4037Z" fill="#5A81FA"/>
<path d="M67.4844 103.94L59.0055 92.2661L67.0322 85.7863L68.2903 84.733L77.0855 96.6932L75.554 97.8386L67.4844 103.94Z" fill="#FFCCB3"/>
<path d="M75.5538 97.8386C73.2826 94.6766 69.0115 88.4966 67.0321 85.7863L68.2903 84.733L77.0632 96.622L75.5538 97.8386Z" fill="#FF967C"/>
<path d="M63.1161 105.559C67.0059 105.559 70.1592 102.28 70.1592 98.2356C70.1592 94.1906 67.0059 90.9116 63.1161 90.9116C59.2261 90.9116 56.0728 94.1906 56.0728 98.2356C56.0728 102.28 59.2261 105.559 63.1161 105.559Z" fill="#FFCCB3"/>
<path d="M69.0796 94.2957C69.0796 94.2957 46.3596 59.6003 45.3094 56.6539C44.2873 53.7763 38.9209 60.7006 38.9209 60.7006L56.5048 100.594L69.0796 94.2957Z" fill="#FFCCB3"/>
<path d="M100.358 45.9116L97.6271 65.7129C97.6271 65.7129 96.9101 68.3411 100.092 68.7388C103.274 69.1368 110.059 68.2477 112.482 65.5625C114.906 62.8773 114.058 61.547 114.058 61.547L108.919 40.0546L100.358 45.9116Z" fill="#FFCCB3"/>
<path d="M92.7994 21.4531C92.7994 21.4531 87.0676 35.4574 90.0548 45.0557C92.003 51.3153 96.2455 52.4408 105.962 47.7497C114.871 43.4487 117.185 40.195 117.185 40.195L118.498 24.5837C118.498 24.5837 98.6205 8.97079 92.7994 21.4531Z" fill="#FFCCB3"/>
<path d="M97.5788 60.0197C97.5788 60.0197 90.2363 62.141 88.7463 63.3805C87.2561 64.6201 86.1723 74.6956 83.97 79.6724C80.7096 87.0401 78.5988 90.9597 84.0763 99.0564C87.3798 103.94 86.2565 116.355 86.2565 116.355H126.479C125.26 91.9432 130.653 63.1656 130.653 63.1656L112.5 58.816C108.407 59.5498 97.5788 60.0197 97.5788 60.0197Z" fill="#5A81FA"/>
<path d="M96.2948 60.4135C96.2948 60.4135 96.8378 56.5761 98.573 56.3059C100.308 56.0358 110.912 54.3772 112.561 55.0995C114.21 55.8215 116.207 60.4135 116.207 60.4135C116.207 60.4135 112.822 68.9999 107.96 69.4511C103.099 69.9026 94.7328 68.3443 95.6175 65.1518C96.5023 61.9594 96.2948 60.4135 96.2948 60.4135Z" fill="#5A81FA"/>
<path d="M92.9926 61.5801C92.9926 61.5801 94.1655 68.9858 100.536 68.869C106.906 68.752 116.163 58.816 116.163 58.816" stroke="white" stroke-width="0.282727" stroke-miterlimit="10"/>
<path d="M121.854 72.3148C121.854 72.3148 115.524 76.6666 117.389 81.0578C119.486 85.9951 119.468 98.7109 113.45 99.5079C102.714 100.93 107.379 102.882 112.343 104.13C117.307 105.377 115.275 105.378 115.275 110.726C115.275 114.532 126.777 117.832 126.479 114.757C124.478 94.1811 132.792 81.1524 121.854 72.3148Z" fill="#0E66AF"/>
<path d="M92.2886 42.0572L97.6205 42.3315C97.6015 42.3997 97.5726 42.4931 97.5307 42.6029C97.4401 42.8412 97.2896 43.1551 97.0511 43.459C96.578 44.0617 95.7517 44.6345 94.3244 44.4844C93.423 44.3048 92.9105 43.6746 92.6203 43.078C92.4751 42.7792 92.3869 42.4909 92.3353 42.2773C92.314 42.1896 92.2988 42.1148 92.2886 42.0572Z" fill="#E56441" stroke="#E56441" stroke-width="0.208333"/>
<path d="M92.6404 32.8511C92.8632 31.9922 92.5894 31.1685 92.029 31.0112C91.4686 30.854 90.8336 31.4228 90.6107 32.2818C90.3879 33.1408 90.6617 33.9644 91.2221 34.1217C91.7825 34.2787 92.4175 33.7101 92.6404 32.8511Z" fill="#080B09"/>
<path d="M100.889 35.2969C101.112 34.4379 100.838 33.6143 100.278 33.457C99.7171 33.2999 99.0821 33.8686 98.8592 34.7275C98.6365 35.5865 98.9102 36.4101 99.4706 36.5674C100.031 36.7247 100.666 36.1558 100.889 35.2969Z" fill="#080B09"/>
<path d="M90.5546 28.4144L94.7478 29.6678C94.8207 29.683 94.8965 29.67 94.9611 29.6314C95.0257 29.5929 95.0744 29.5313 95.0988 29.4581C95.118 29.3206 95.1101 29.1804 95.0759 29.0461C95.0415 28.9115 94.9813 28.7859 94.8988 28.6765C94.8165 28.5669 94.7136 28.4759 94.5965 28.409C94.4794 28.342 94.3505 28.3002 94.2173 28.2866L90.6159 27.8925C90.3396 27.8149 90.2092 28.3175 90.5546 28.4144Z" fill="#080B09"/>
<path d="M104.89 32.1416L99.2038 30.9317C99.2553 30.7558 99.3415 30.5929 99.4571 30.4538C99.5728 30.3145 99.7151 30.2021 99.8751 30.1236C100.035 30.0452 100.209 30.0023 100.386 29.998C100.563 29.9937 100.738 30.0279 100.902 30.0985L105.052 31.8021C105.19 31.8407 105.097 32.1999 104.89 32.1416Z" fill="#080B09"/>
<path d="M95.1763 33.0967L92.4792 36.8736L93.4948 38.3668" stroke="#E56441" stroke-width="0.466419" stroke-linecap="round"/>
<path d="M100.192 74.302C100.714 74.302 101.138 73.0859 101.138 71.5854C101.138 70.0852 100.714 68.8688 100.192 68.8688C99.6699 68.8688 99.2465 70.0852 99.2465 71.5854C99.2465 73.0859 99.6699 74.302 100.192 74.302Z" fill="white"/>
<path d="M143.777 111.679L129.756 112.873L127.362 102.307L124.478 94.1811L139.235 92.3447L141.08 101.439L143.777 111.679Z" fill="#FFCCB3"/>
<path d="M139.733 94.8004L140.25 97.3504L125.719 97.6756L124.763 94.9819L139.733 94.8004Z" fill="#FF967C"/>
<path d="M128.24 83.0266C133.598 83.0266 137.942 78.5097 137.942 72.9377C137.942 67.3658 133.598 62.8488 128.24 62.8488C122.882 62.8488 118.538 67.3658 118.538 72.9377C118.538 78.5097 122.882 83.0266 128.24 83.0266Z" fill="#5A81FA"/>
<path d="M126.369 68.1946C126.369 68.1946 136.594 66.4492 137.462 69.8445C139.338 76.672 141.644 87.6327 142.205 92.8746C142.224 93.0973 142.2 93.3219 142.135 93.5353C142.071 93.7485 141.966 93.9465 141.827 94.1174C141.688 94.2883 141.518 94.4291 141.327 94.5314C141.136 94.6336 140.927 94.6956 140.712 94.7136L125.312 96.0806C124.716 96.138 124.122 95.9562 123.651 95.5721C123.18 95.188 122.868 94.631 122.78 94.0156L118.609 74.3787L126.369 68.1946Z" fill="#5A81FA"/>
<path d="M96.373 20.1218C96.373 20.1218 96.7357 26.9242 102.277 30.2205C102.277 30.2205 103.898 35.4377 109.946 36.6647C109.946 36.6647 109.589 31.8695 112.471 31.9202C117.366 32.0064 114.959 39.7275 111.649 40.9942C109.4 41.8551 108.046 44.9105 111.384 51.8738C119.05 49.0307 124.441 37.5482 122.328 24.8089C120.635 14.6072 108.473 11.2758 105.974 11.6081C105.974 11.6081 95.5957 7.88 90.1313 18.1045C85.46 26.8449 89.8225 32.0612 89.8225 32.0612L92.3121 24.2823C92.3121 24.2823 93.3519 25.0416 96.373 20.1218Z" fill="#080B09"/>
<path d="M143.829 136.886H106.69C105.972 136.886 105.279 136.613 104.74 136.119C104.201 135.625 103.855 134.943 103.765 134.202L100.338 105.753C100.285 105.322 100.322 104.884 100.446 104.469C100.569 104.053 100.776 103.67 101.052 103.344C101.329 103.018 101.669 102.757 102.05 102.578C102.431 102.399 102.845 102.307 103.263 102.307H147.257C147.675 102.307 148.088 102.399 148.469 102.578C148.851 102.757 149.191 103.018 149.467 103.344C149.744 103.67 149.951 104.053 150.074 104.469C150.197 104.884 150.234 105.322 150.182 105.753L146.754 134.202C146.665 134.943 146.318 135.625 145.78 136.119C145.241 136.613 144.548 136.886 143.829 136.886Z" fill="url(#paint1_linear_27_120)"/>
<path d="M125.347 121.777C126.787 121.777 127.954 120.563 127.954 119.066C127.954 117.569 126.787 116.355 125.347 116.355C123.908 116.355 122.74 117.569 122.74 119.066C122.74 120.563 123.908 121.777 125.347 121.777Z" fill="white"/>
<path d="M39.8865 62.9798L37.6486 58.5152C37.6486 58.5152 29.7352 53.8081 28.8181 52.1065C27.9008 50.4044 27.5404 45.5453 29.164 44.3011C29.164 44.3011 22.8504 39.3701 23.9252 38.371C24.9965 37.2995 37.4008 46.8815 37.4008 46.8815C37.4008 46.8815 35.8906 39.8222 38.1856 39.4914C38.8073 42.2275 39.8723 44.8336 41.335 47.198C43.7513 51.0827 44.049 54.562 44.049 54.562L46.8967 60.2452L39.8865 62.9798Z" fill="#FFCCB3"/>
<path d="M29.5896 44.4259L33.4132 46.9315" stroke="#FF967C" stroke-width="0.598308" stroke-linecap="round" stroke-linejoin="round"/>
<path d="M29.0196 47.2924L32.2646 49.3899" stroke="#FF967C" stroke-width="0.598308" stroke-linecap="round" stroke-linejoin="round"/>
<path d="M29.6503 50.3914L31.8146 51.8138" stroke="#FF967C" stroke-width="0.598308" stroke-linecap="round" stroke-linejoin="round"/>
<path d="M44.5465 10.716C45.553 10.716 46.3688 9.86762 46.3688 8.82105C46.3688 7.77449 45.553 6.92615 44.5465 6.92615C43.5401 6.92615 42.7242 7.77449 42.7242 8.82105C42.7242 9.86762 43.5401 10.716 44.5465 10.716Z" fill="white"/>
<path d="M51.9065 10.716C52.913 10.716 53.7288 9.86762 53.7288 8.82105C53.7288 7.77449 52.913 6.92615 51.9065 6.92615C50.9001 6.92615 50.0842 7.77449 50.0842 8.82105C50.0842 9.86762 50.9001 10.716 51.9065 10.716Z" fill="white"/>
<path d="M58.8219 10.716C59.8284 10.716 60.6442 9.86762 60.6442 8.82105C60.6442 7.77449 59.8284 6.92615 58.8219 6.92615C57.8155 6.92615 56.9996 7.77449 56.9996 8.82105C56.9996 9.86762 57.8155 10.716 58.8219 10.716Z" fill="white"/>
<path opacity="0.7" d="M4.08276 8.58882C11.4092 15.0861 30.7307 29.9005 55.2698 30.6082C55.7717 30.6238 56.2478 30.8424 56.5971 31.2174C56.9465 31.5922 57.1415 32.0941 57.1409 32.6162V73.0475C57.1411 73.5633 56.9507 74.0594 56.6088 74.4331C56.2669 74.8068 55.7998 75.0295 55.3044 75.055C47.9265 75.4367 19.9488 75.3923 1.41047 54.7537C1.07985 54.3831 0.896927 53.8956 0.898385 53.3902V10.12C0.898177 9.73634 1.00359 9.36047 1.20234 9.03704C1.40109 8.71382 1.68464 8.45624 2.01964 8.29528C2.35443 8.1341 2.72693 8.07605 3.09255 8.12825C3.45818 8.18025 3.80172 8.33991 4.08276 8.58882Z" fill="#FEBB94"/>
<path d="M6.86194 20.5033C6.86194 20.5033 12.6434 26.3449 20.5459 29.9735" stroke="white" stroke-width="1.5485" stroke-miterlimit="10" stroke-linecap="round"/>
<path opacity="0.4" d="M6.86194 27.5853C6.86194 27.5853 14.9082 35.3896 25.3751 38.2873" stroke="white" stroke-width="1.5485" stroke-miterlimit="10" stroke-linecap="round"/>
<path d="M5.66339 53.4815V36.5937L11.3574 40.8306V58.1266L5.66339 53.4815Z" fill="white"/>
<path d="M15.274 60.3054V48.2729L20.968 51.8138V63.7086L15.274 60.3054Z" fill="white"/>
<path d="M39.6215 69.7249V57.6924L33.9276 56.882V68.7767L39.6215 69.7249Z" fill="white"/>
<path d="M48.9742 70.2401V49.1732H43.2802V70.1025L48.9742 70.2401Z" fill="white"/>
<path d="M24.6009 65.5775V60.0763L30.2949 61.7414V67.7218L24.6009 65.5775Z" fill="white"/>
<g opacity="0.7">
<path d="M18.3434 92.3672C25.6698 97.9612 44.9913 112.559 69.5304 110.241C69.769 110.212 70.0111 110.236 70.2398 110.313C70.4686 110.39 70.6788 110.517 70.8563 110.685C71.0338 110.854 71.1744 111.06 71.2684 111.29C71.3623 111.52 71.4077 111.768 71.4015 112.018V152.45C71.389 152.985 71.1996 153.499 70.865 153.906C70.5306 154.313 70.0715 154.587 69.565 154.684C62.1869 155.975 31.5013 155.337 15.6709 138.862C15.5071 138.691 15.3775 138.488 15.2896 138.265C15.2017 138.042 15.1573 137.803 15.159 137.561V94.2912C15.159 92.5776 17.0894 91.4097 18.3434 92.3672Z" fill="#96BAFD"/>
</g>
<path d="M136.267 135.725C136.267 135.725 138.23 135.895 137.934 136.925C137.638 137.954 135.886 137.479 134.286 138.509C132.686 139.539 126.36 140.274 123.2 139.727C120.04 139.179 119.162 135.725 119.162 135.725C119.162 135.725 118.634 132.448 124.215 132.112C129.797 131.775 132.395 133.638 133.365 135.657L136.267 135.725Z" fill="#FFCCB3"/>
<path d="M121.535 132.621L122.74 135.993" stroke="#E56441" stroke-width="0.466419" stroke-linecap="round"/>
<path d="M124.657 132.072L125.863 135.444" stroke="#E56441" stroke-width="0.466419" stroke-linecap="round"/>
<path d="M127.954 132.358L129.159 135.729" stroke="#E56441" stroke-width="0.466419" stroke-linecap="round"/>
<path opacity="0.7" d="M195.667 95.6564C185.448 104.72 158.497 125.384 124.267 126.371C123.567 126.393 122.903 126.698 122.415 127.221C121.928 127.744 121.656 128.444 121.657 129.172V185.57C121.657 186.289 121.923 186.981 122.399 187.503C122.876 188.024 123.528 188.335 124.219 188.37C134.51 188.903 173.535 188.841 199.396 160.052C199.856 159.535 200.113 158.855 200.11 158.15V97.7924C200.11 97.2571 199.963 96.733 199.685 96.2818C199.408 95.8308 199.013 95.4716 198.546 95.2469C198.079 95.0223 197.558 94.9415 197.05 95.014C196.54 95.0866 196.06 95.3095 195.667 95.6564Z" fill="#2B308B"/>
<path d="M191.792 112.276C191.792 112.276 183.727 120.425 172.704 125.486" stroke="white" stroke-width="2.16" stroke-miterlimit="10" stroke-linecap="round"/>
<path opacity="0.4" d="M191.792 122.155C191.792 122.155 180.567 133.041 165.967 137.083" stroke="white" stroke-width="2.16" stroke-miterlimit="10" stroke-linecap="round"/>
<path d="M128.704 163.892C128.704 163.892 136.205 162.259 139.635 158.476C144.179 153.463 145.227 147.452 150.205 146.833C158.019 145.863 162.548 174.547 172.033 170.666C181.519 166.785 179.277 145.365 184.921 141.735C188.808 139.234 190.829 146.672 196.273 144.731" stroke="white" stroke-width="2.16" stroke-miterlimit="10" stroke-linecap="round"/>
<path opacity="0.7" d="M54.8869 140.355C60.494 142.02 73.6115 144.995 90.8 142.943C91.0763 142.902 91.3577 142.924 91.6248 143.008C91.8919 143.091 92.1384 143.234 92.3469 143.427C92.5555 143.619 92.7213 143.857 92.8327 144.123C92.9442 144.389 92.9988 144.677 92.9925 144.967V172.551C92.9798 173.16 92.7611 173.745 92.3748 174.202C91.9886 174.659 91.4594 174.96 90.8807 175.052C84.7607 175.922 66.589 177.783 53.0473 171.704C52.7009 171.544 52.4075 171.282 52.2044 170.949C52.0013 170.616 51.8977 170.229 51.9065 169.835V142.795C51.9065 141.196 53.4548 139.93 54.8869 140.355Z" fill="url(#paint2_linear_27_120)"/>
<path d="M30.2669 133.275C26.1786 131.776 22.8644 127.114 22.8644 122.863C22.8644 118.612 26.1786 116.38 30.2669 117.88V112.939C23.6621 110.517 18.308 114.121 18.308 120.989C18.308 127.857 23.6621 135.388 30.2669 137.81C36.5927 140.129 41.768 136.919 42.1942 130.61L37.6407 128.94C37.3188 132.764 34.1415 134.695 30.2669 133.275Z" fill="white"/>
<path d="M31.7855 111.917V116.857C35.8738 118.356 39.188 123.018 39.188 127.269C39.188 127.491 39.1769 127.707 39.1592 127.918L43.7125 129.587C43.7313 129.309 43.7444 129.027 43.7444 128.737C43.7444 121.869 38.39 114.338 31.7855 111.917Z" fill="#1C85E8"/>
<path d="M30.2669 133.275V137.81" stroke="white" stroke-width="0.505873" stroke-miterlimit="10"/>
<path d="M22.8644 122.863L18.308 121.192" stroke="white" stroke-width="0.505873" stroke-miterlimit="10"/>
<path d="M49.4453 123.569L57.9 125.24" stroke="white" stroke-width="2.16" stroke-miterlimit="10" stroke-linecap="round"/>
<path opacity="0.4" d="M49.4453 137.345L57.9 139.016" stroke="white" stroke-width="2.16" stroke-miterlimit="10" stroke-linecap="round"/>
<path d="M49.4453 130.597L61.5921 132.998" stroke="white" stroke-width="2.16" stroke-miterlimit="10" stroke-linecap="round"/>
<g opacity="0.7">
<path d="M201.931 5.39137C194.604 10.9852 181.202 25.0912 151.951 29.7779C149.712 30.1366 148.873 31.7935 148.873 33.6242V72.1896C148.886 72.7247 149.075 73.239 149.41 73.6458C149.744 74.0527 150.203 74.3273 150.71 74.4233C158.088 75.7149 186.502 68.1779 203.494 53.0037C205.117 51.5545 205.117 49.1232 205.117 48.618V7.31543C205.117 5.60185 203.185 4.43399 201.931 5.39137Z" fill="url(#paint3_linear_27_120)"/>
</g>
<path d="M152.741 36.6502V60.5037C152.741 60.7114 152.785 60.9163 152.872 61.1035C152.958 61.2907 153.084 61.4553 153.239 61.5853C153.395 61.7151 153.577 61.8069 153.772 61.8539C153.966 61.9007 154.168 61.9016 154.363 61.8563C158.542 60.8832 169.844 58.0698 176.981 54.5683C177.21 54.4561 177.402 54.2787 177.538 54.0568C177.671 53.835 177.744 53.5778 177.742 53.3155V30.0862C177.744 29.8539 177.688 29.6254 177.579 29.4213C177.473 29.2174 177.319 29.045 177.129 28.9196C176.942 28.7941 176.727 28.7198 176.504 28.7036C176.281 28.6873 176.058 28.7296 175.854 28.8266C171.877 30.7315 162.319 34.8926 154.005 35.267C153.664 35.2839 153.342 35.4373 153.106 35.6948C152.871 35.9524 152.74 36.2947 152.741 36.6502Z" fill="white"/>
<path d="M153.774 56.664V59.1729C153.774 59.3629 153.816 59.5503 153.897 59.7205C153.978 59.8908 154.096 60.0394 154.241 60.1547C154.386 60.2699 154.555 60.3488 154.734 60.385C154.914 60.4214 155.099 60.4142 155.275 60.3642L167.777 56.8098C167.975 56.7539 168.154 56.6461 168.3 56.4966C168.446 56.3471 168.55 56.1615 168.606 55.9569C168.663 55.7527 168.667 55.5369 168.619 55.3304C168.571 55.1238 168.473 54.9336 168.335 54.778L161.631 47.2788C161.51 47.1442 161.365 47.0392 161.2 46.9716C161.035 46.9038 160.858 46.875 160.682 46.8873C160.506 46.8997 160.334 46.9527 160.18 47.0426C160.026 47.1328 159.893 47.2573 159.791 47.4074L153.991 55.9517C153.85 56.1601 153.774 56.4089 153.774 56.664Z" fill="#1C85E8"/>
<path opacity="0.6" d="M166.521 50.7796L170.273 54.9195C170.394 55.0527 170.55 55.1454 170.721 55.1855C170.892 55.2258 171.071 55.2117 171.235 55.1452C172.344 54.695 174.833 53.6773 176.094 53.1136C176.252 53.0425 176.385 52.9251 176.481 52.7754C176.575 52.6257 176.625 52.4505 176.625 52.2713V48.3922C176.625 48.1942 176.563 48.0017 176.45 47.8433L171.175 40.4955C171.079 40.3635 170.952 40.2604 170.806 40.1972C170.66 40.1339 170.5 40.1127 170.344 40.1356C170.188 40.1588 170.04 40.2251 169.915 40.328C169.792 40.4309 169.698 40.5663 169.642 40.7203L166.338 49.8261C166.279 49.9871 166.265 50.1617 166.298 50.3303C166.329 50.4988 166.408 50.6543 166.521 50.7796Z" fill="#1C85E8"/>
<path d="M183.55 28.0483C188.719 25.3226 193.694 22.2149 198.435 18.7496" stroke="white" stroke-width="2.16" stroke-miterlimit="10" stroke-linecap="round"/>
<path d="M183.55 37.096C183.55 37.096 186.938 35.3792 191.585 32.4468" stroke="white" stroke-width="2.16" stroke-miterlimit="10" stroke-linecap="round"/>
<path d="M183.55 45.9419C188.719 43.216 193.694 40.1086 198.435 36.6433" stroke="white" stroke-width="2.16" stroke-miterlimit="10" stroke-linecap="round"/>
<path d="M183.55 55.8733C188.719 53.1474 193.694 50.04 198.435 46.5747" stroke="white" stroke-width="2.16" stroke-miterlimit="10" stroke-linecap="round"/>
<path d="M155.614 68.7356C156.63 68.7356 157.453 67.8792 157.453 66.8227C157.453 65.7662 156.63 64.9096 155.614 64.9096C154.598 64.9096 153.774 65.7662 153.774 66.8227C153.774 67.8792 154.598 68.7356 155.614 68.7356Z" fill="white"/>
<path d="M166.281 65.6405C167.296 65.6405 168.121 64.7842 168.121 63.7276C168.121 62.6711 167.296 61.8148 166.281 61.8148C165.265 61.8148 164.442 62.6711 164.442 63.7276C164.442 64.7842 165.265 65.6405 166.281 65.6405Z" fill="white"/>
<path d="M175.902 62.2233C176.919 62.2233 177.742 61.3668 177.742 60.3102C177.742 59.2537 176.919 58.3973 175.902 58.3973C174.888 58.3973 174.063 59.2537 174.063 60.3102C174.063 61.3668 174.888 62.2233 175.902 62.2233Z" fill="white"/>
</g>
<defs>
<linearGradient id="paint0_linear_27_120" x1="87.0159" y1="-164.709" x2="167.951" y2="317.901" gradientUnits="userSpaceOnUse">
<stop stop-color="white"/>
<stop offset="1" stop-color="#94B9FF"/>
</linearGradient>
<linearGradient id="paint1_linear_27_120" x1="124.018" y1="102.225" x2="129.561" y2="175.985" gradientUnits="userSpaceOnUse">
<stop stop-color="white"/>
<stop offset="1" stop-color="#94B9FF"/>
</linearGradient>
<linearGradient id="paint2_linear_27_120" x1="71.4267" y1="140.187" x2="78.5945" y2="216.186" gradientUnits="userSpaceOnUse">
<stop stop-color="white"/>
<stop offset="1" stop-color="#94B9FF"/>
</linearGradient>
<linearGradient id="paint3_linear_27_120" x1="170.213" y1="-81.6098" x2="215.669" y2="146.409" gradientUnits="userSpaceOnUse">
<stop stop-color="white"/>
<stop offset="1" stop-color="#94B9FF"/>
</linearGradient>
</defs>
</svg>
