<svg width="198" height="185" viewBox="0 0 198 185" fill="none" xmlns="http://www.w3.org/2000/svg">
<mask id="mask0_29_265" style="mask-type:luminance" maskUnits="userSpaceOnUse" x="0" y="0" width="198" height="185">
<path d="M197.88 0.25H0V184.75H197.88V0.25Z" fill="white"/>
</mask>
<g mask="url(#mask0_29_265)">
<path d="M98.9398 167.597C153.584 167.597 197.88 166.396 197.88 164.915C197.88 163.434 153.584 162.233 98.9398 162.233C44.2969 162.233 0 163.434 0 164.915C0 166.396 44.2969 167.597 98.9398 167.597Z" fill="#F5F8FF"/>
<path d="M124.689 0.25H33.9197C32.5715 0.25 31.4783 1.40987 31.4783 2.84043V66.2359C31.4783 67.6667 32.5715 68.8264 33.9197 68.8264H124.689C126.037 68.8264 127.13 67.6667 127.13 66.2359V2.84043C127.13 1.40987 126.037 0.25 124.689 0.25Z" fill="url(#paint0_linear_29_265)"/>
<path d="M122.652 44.9147H105.74C105.112 44.9147 104.604 45.4543 104.604 46.1199V65.5943C104.604 66.26 105.112 66.7996 105.74 66.7996H122.652C123.28 66.7996 123.788 66.26 123.788 65.5943V46.1199C123.788 45.4543 123.28 44.9147 122.652 44.9147Z" fill="#FEBB94"/>
<path d="M59.8924 44.7097H35.4303C34.8991 44.7097 34.4684 45.1666 34.4684 45.7303V65.7788C34.4684 66.3427 34.8991 66.7996 35.4303 66.7996H59.8924C60.4236 66.7996 60.8542 66.3427 60.8542 65.7788V45.7303C60.8542 45.1666 60.4236 44.7097 59.8924 44.7097Z" fill="white"/>
<path d="M101.576 44.7097H64.0022C63.3486 44.7097 62.8187 45.272 62.8187 45.9655V65.5438C62.8187 66.2373 63.3486 66.7996 64.0022 66.7996H101.576C102.23 66.7996 102.76 66.2373 102.76 65.5438V45.9655C102.76 45.272 102.23 44.7097 101.576 44.7097Z" fill="white"/>
<path d="M122.27 9.20667H88.2465C87.4079 9.20667 86.7281 9.92796 86.7281 10.8177V41.1281C86.7281 42.0177 87.4079 42.739 88.2465 42.739H122.27C123.108 42.739 123.788 42.0177 123.788 41.1281V10.8177C123.788 9.92796 123.108 9.20667 122.27 9.20667Z" fill="#5CA4E6"/>
<path d="M80.0253 77.429C82.1048 74.9913 81.5154 74.3389 82.4905 72.8992C83.4479 71.4959 83.237 67.3633 84.1511 68.1508C85.065 68.9382 85.0702 70.4179 85.0702 70.4179C86.0741 69.2713 87.2723 66.9975 89.0252 67.146C90.7782 67.2948 90.8009 67.8971 91.5716 68.9737C93.6146 71.8686 89.6044 74.4278 88.7725 75.5783C88.242 76.297 85.1247 78.1089 84.7195 78.5749L82.9823 80.2347L80.0253 77.429Z" fill="#FFCCB3"/>
<path d="M86.7281 71.021L89.6946 67.5074" stroke="#EF6A77" stroke-width="0.200504" stroke-linecap="round"/>
<path d="M87.9308 72.016L91.0202 68.8264" stroke="#EF6A77" stroke-width="0.200504" stroke-linecap="round"/>
<path d="M89.3716 73.1439L91.1662 71.1931" stroke="#EF6A77" stroke-width="0.200504" stroke-linecap="round"/>
<path d="M48.8768 97.1528L31.4783 163.422H35.0226L55.1326 97.1528H48.8768Z" fill="#D1E8F7"/>
<path d="M48.8768 97.1528L47.5996 102.018L54.2658 100.009L55.1326 97.1528H48.8768Z" fill="#5CA4E6"/>
<path d="M172.505 149.919L163.08 163.213C162.858 163.526 162.527 163.733 162.163 163.788C161.797 163.843 161.425 163.741 161.131 163.506L160.255 162.807L171.354 147.151L172.23 147.849C172.525 148.085 172.719 148.435 172.771 148.823C172.823 149.211 172.728 149.605 172.505 149.919Z" fill="#5661AE"/>
<path d="M163.615 142.133L167.012 145.064L163.561 150.716L159.729 147.613L163.615 142.133Z" fill="#BC775C"/>
<path d="M165.123 143.561L160.891 148.46L159.861 147.598L163.825 142.43L165.123 143.561Z" fill="#93523E" stroke="#93523E" stroke-width="0.185941"/>
<path d="M166.557 144.7C166.557 144.7 165.603 148.261 162.458 150.085L159.619 161.864C159.71 162.54 160.422 162.974 160.895 163.135C160.999 163.17 161.11 163.169 161.215 163.134C161.319 163.098 161.408 163.029 161.473 162.936L171.549 148.725C171.716 148.487 171.791 148.19 171.756 147.896C171.718 147.601 171.575 147.334 171.354 147.151C170.474 146.419 169.123 145.315 168.539 144.936C167.633 144.35 166.99 144.215 166.557 144.7Z" fill="#1C85E8"/>
<path d="M161.802 152.527L163.418 152.16C163.477 152.146 163.539 152.148 163.596 152.166C163.654 152.184 163.706 152.216 163.751 152.26C163.794 152.305 163.827 152.36 163.846 152.421C163.864 152.482 163.868 152.547 163.857 152.61C163.844 152.687 163.81 152.758 163.758 152.815C163.706 152.871 163.641 152.909 163.569 152.925L161.585 153.35L161.802 152.527Z" fill="white"/>
<path d="M161.421 154.394L163.028 154.022C163.087 154.008 163.148 154.011 163.206 154.028C163.264 154.046 163.318 154.078 163.36 154.123C163.405 154.167 163.437 154.222 163.455 154.283C163.474 154.344 163.478 154.409 163.468 154.472C163.455 154.549 163.42 154.621 163.368 154.677C163.318 154.733 163.251 154.771 163.178 154.787L161.222 155.217L161.421 154.394Z" fill="white"/>
<path d="M160.93 156.426L162.52 156.049C162.579 156.036 162.641 156.038 162.698 156.055C162.756 156.073 162.81 156.105 162.853 156.15C162.895 156.194 162.929 156.249 162.948 156.31C162.966 156.371 162.97 156.436 162.959 156.499C162.946 156.576 162.912 156.648 162.86 156.704C162.808 156.76 162.743 156.798 162.67 156.814L160.737 157.228L160.93 156.426Z" fill="white"/>
<path d="M131.314 126.64L158.213 149.635L164.349 142.047L140.83 118.635L131.314 126.64Z" fill="#1F2D49"/>
<path d="M145.742 123.524V138.974L158.214 149.635L160.004 137.721L145.742 123.524Z" fill="#0D1B33"/>
<path d="M133.701 84.3646L129.279 121.777H141.642L152.381 84.5522L133.701 84.3646Z" fill="#1F2D49"/>
<path d="M144.316 112.508L146.392 93.9486H151.497L144.316 112.508Z" fill="#0D1B33"/>
<path d="M155.413 164.063H139.734C139.365 164.063 139.011 163.908 138.75 163.631C138.488 163.353 138.342 162.978 138.342 162.586V161.424H156.806V162.586C156.806 162.978 156.659 163.353 156.399 163.631C156.136 163.908 155.783 164.063 155.413 164.063Z" fill="#5661AE"/>
<path d="M155.932 151.845L155.768 156.488L149.435 156.958L149.469 151.845H155.932Z" fill="#BC775C"/>
<path d="M155.765 153.983L149.53 153.339L149.56 151.947L155.835 152.202L155.765 153.983Z" fill="#93523E" stroke="#93523E" stroke-width="0.185941"/>
<path d="M155.768 155.883C155.768 155.883 152.512 157.214 149.249 155.645L138.67 160.318C138.215 160.801 138.316 161.665 138.479 162.163C138.516 162.272 138.583 162.367 138.672 162.433C138.761 162.5 138.868 162.535 138.977 162.535H155.737C156.017 162.535 156.285 162.419 156.486 162.211C156.685 162.003 156.8 161.721 156.806 161.424C156.828 160.237 156.847 158.428 156.782 157.704C156.679 156.585 156.393 155.957 155.768 155.883Z" fill="#1C85E8"/>
<path d="M147.014 156.556L148.262 157.705C148.308 157.747 148.343 157.8 148.365 157.86C148.386 157.92 148.394 157.984 148.386 158.048C148.379 158.111 148.357 158.172 148.322 158.224C148.288 158.277 148.241 158.319 148.188 158.348C148.122 158.384 148.047 158.398 147.974 158.388C147.9 158.377 147.831 158.344 147.776 158.292L146.264 156.865L147.014 156.556Z" fill="white"/>
<path d="M145.379 157.354L146.625 158.494C146.671 158.536 146.706 158.589 146.728 158.649C146.749 158.709 146.757 158.773 146.75 158.837C146.742 158.9 146.72 158.961 146.685 159.013C146.651 159.066 146.605 159.108 146.551 159.137C146.485 159.173 146.41 159.187 146.337 159.177C146.264 159.166 146.195 159.133 146.139 159.081L144.639 157.681L145.379 157.354Z" fill="white"/>
<path d="M143.554 158.161L144.793 159.282C144.839 159.324 144.874 159.377 144.896 159.436C144.917 159.496 144.925 159.561 144.917 159.624C144.91 159.688 144.888 159.749 144.853 159.801C144.819 159.853 144.772 159.896 144.718 159.925C144.652 159.961 144.578 159.974 144.505 159.964C144.431 159.954 144.362 159.921 144.307 159.869L142.834 158.479L143.554 158.161Z" fill="white"/>
<path d="M159.881 84.5522C159.779 86.4494 159.779 88.3513 159.881 90.2484C160.292 96.381 158.978 114.29 158.989 116.646C158.998 119.003 157.537 152.194 157.537 152.194H148.648C148.648 152.194 146.376 123.669 146.323 120.405C146.271 117.14 145.742 84.6864 145.742 84.6864L159.881 84.5522Z" fill="#1F2D49"/>
<path d="M133.433 86.6299L159.881 90.2484V84.5522L133.57 85.4702L133.433 86.6299Z" fill="#0D1B33"/>
<path d="M135.461 128.335C138.875 128.335 141.642 125.399 141.642 121.777C141.642 118.154 138.875 115.218 135.461 115.218C132.047 115.218 129.279 118.154 129.279 121.777C129.279 125.399 132.047 128.335 135.461 128.335Z" fill="#1F2D49"/>
<path d="M181.525 93.9486H19.243V97.1528H181.525V93.9486Z" fill="url(#paint1_linear_29_265)"/>
<path fill-rule="evenodd" clip-rule="evenodd" d="M97.1153 160.049C94.7174 159.15 92.2459 158.223 89.9675 158.395C89.916 158.399 89.8662 158.414 89.821 158.44C89.7758 158.466 89.7364 158.503 89.7059 158.547C89.6752 158.591 89.6539 158.641 89.6434 158.694C89.633 158.748 89.6336 158.803 89.6453 158.856L90.5996 163.133C90.6191 163.222 90.6682 163.299 90.7375 163.352C90.8069 163.404 90.8919 163.429 90.9768 163.42L106.468 161.833C107.61 161.716 108.161 160.998 108.243 160.009C108.245 159.975 108.238 159.941 108.223 159.911C108.207 159.881 108.184 159.857 108.156 159.841C108.127 159.825 108.095 159.817 108.064 159.82C108.032 159.823 108.001 159.835 107.975 159.856C106.266 161.216 104.123 161.812 102.004 161.518C100.475 161.309 98.8137 160.686 97.1153 160.049Z" fill="#5661AE"/>
<path fill-rule="evenodd" clip-rule="evenodd" d="M88.7354 147.709C88.7354 147.709 90.3333 154.43 90.3781 155.151C90.382 155.552 90.358 155.952 90.3065 156.349C90.2351 157.063 90.1558 157.858 90.2751 158.38C92.4674 158.308 94.8251 159.191 97.1153 160.05C98.8137 160.686 100.475 161.309 102.004 161.518C104.02 161.798 106.063 161.272 107.734 160.042C107.664 158.815 106.567 157.78 104.543 157.801C100.916 157.839 98.9087 157.769 96.9078 155.178C95.4857 153.337 94.7996 145.568 94.7996 145.568L88.7354 147.709Z" fill="#FFCCB3"/>
<path fill-rule="evenodd" clip-rule="evenodd" d="M96.445 154.105C95.7767 154.271 93.1178 154.918 90.5235 155.366C90.0195 155.454 89.8595 156.558 90.2405 157.107C90.5033 157.513 90.7346 157.941 90.9322 158.386C91.8361 158.443 92.732 158.599 93.6055 158.851C93.1447 157.803 93.6375 157.118 94.5877 156.87C95.3379 156.674 97.1486 156.641 98.0859 156.637C98.1375 156.637 98.1878 156.621 98.2312 156.591C98.2743 156.562 98.3087 156.52 98.3301 156.47C98.3515 156.42 98.3591 156.365 98.3518 156.311C98.3448 156.257 98.323 156.206 98.2896 156.164L96.7118 154.198C96.6799 154.158 96.638 154.128 96.5908 154.111C96.5437 154.095 96.4934 154.093 96.445 154.105Z" fill="white"/>
<path fill-rule="evenodd" clip-rule="evenodd" d="M105.932 161.042C104.274 161.724 103.113 161.582 103.113 161.582L102.76 157.695L105.614 157.543L105.932 161.042Z" fill="white"/>
<path d="M87.2262 120.592C89.9778 119.717 91.5393 116.64 90.7139 113.721C89.8887 110.801 86.9891 109.144 84.2376 110.02C81.486 110.896 79.9245 113.972 80.7499 116.892C81.5751 119.811 84.4746 121.468 87.2262 120.592Z" fill="#FFCCB3"/>
<path d="M87.2709 110.034L78.6484 106.902L74.6351 118.374L85.7897 120.435L87.2709 110.034Z" fill="#FFCCB3"/>
<path d="M90.8878 114.573L95.265 149.281L89.5869 151.365L81.0034 118.412L90.8878 114.573Z" fill="#FFCCB3"/>
<path fill-rule="evenodd" clip-rule="evenodd" d="M72.908 162.455C70.6427 161.228 68.308 159.964 66.0282 159.815C65.9767 159.812 65.9252 159.82 65.8772 159.84C65.8292 159.859 65.7857 159.89 65.7498 159.929C65.7141 159.968 65.6866 160.016 65.6697 160.067C65.6528 160.119 65.6464 160.173 65.6515 160.228L66.0655 164.601C66.0741 164.691 66.113 164.775 66.1752 164.837C66.2373 164.899 66.3186 164.935 66.404 164.938L81.957 165.532C83.1037 165.576 83.7392 164.942 83.9434 163.973C83.9497 163.939 83.9469 163.905 83.9354 163.873C83.9237 163.841 83.9036 163.814 83.8778 163.794C83.8517 163.774 83.8209 163.762 83.7889 163.761C83.7567 163.759 83.7249 163.767 83.697 163.784C81.8335 164.893 79.6351 165.184 77.5718 164.595C76.0816 164.174 74.5123 163.324 72.908 162.455Z" fill="#5661AE"/>
<path fill-rule="evenodd" clip-rule="evenodd" d="M66.1349 149.05C66.1349 149.05 66.8837 155.936 66.8385 156.657C66.7924 157.055 66.7189 157.449 66.6185 157.835C66.459 158.533 66.2814 159.31 66.335 159.843C68.517 160.079 70.7442 161.285 72.9078 162.456C74.5123 163.325 76.0814 164.174 77.5716 164.595C79.5353 165.156 81.6253 164.92 83.4343 163.935C83.5178 162.708 82.5591 161.529 80.5503 161.267C76.9503 160.796 74.9689 160.447 73.3077 157.598C72.1268 155.573 72.4124 147.777 72.4124 147.777L66.1349 149.05Z" fill="#FCBA9F"/>
<path fill-rule="evenodd" clip-rule="evenodd" d="M72.9824 156.469C72.2993 156.54 69.583 156.81 66.9557 156.891C66.4451 156.907 66.1494 157.98 66.459 158.577C66.6688 159.016 66.8451 159.473 66.9856 159.942C67.8744 160.125 68.7431 160.404 69.5776 160.777C69.2511 159.674 69.8249 159.063 70.7974 158.95C71.5655 158.861 73.3647 159.081 74.2942 159.209C74.3454 159.216 74.3972 159.207 74.4437 159.184C74.4904 159.161 74.5296 159.124 74.557 159.078C74.5845 159.031 74.5988 158.978 74.5984 158.923C74.598 158.868 74.5828 158.815 74.5547 158.769L73.2353 156.599C73.2085 156.555 73.1708 156.519 73.1261 156.496C73.0815 156.473 73.0317 156.464 72.9824 156.469Z" fill="white"/>
<path fill-rule="evenodd" clip-rule="evenodd" d="M81.5247 164.673C79.7955 165.117 78.6631 164.814 78.6631 164.814L78.7957 160.911L81.6441 161.16L81.5247 164.673Z" fill="white"/>
<path d="M68.0098 121.96C70.8461 121.476 72.7764 118.645 72.3212 115.636C71.866 112.626 69.1978 110.578 66.3614 111.061C63.5251 111.544 61.5948 114.375 62.05 117.385C62.5052 120.394 65.1734 122.443 68.0098 121.96Z" stroke="#5CA4E6" stroke-width="0.203959" stroke-miterlimit="10"/>
<path d="M72.3876 116.505L72.4123 151.522L66.5249 152.794L62.1123 118.927L72.3876 116.505Z" fill="#FCBA9F"/>
<path d="M56.9751 103.72C56.9751 103.72 55.3922 111.94 57.4666 115.375C60.0925 119.722 63.304 120.388 65.6774 120.435L78.5002 119.261C78.5002 119.261 78.4154 111.439 83.1646 108.516C83.1646 108.516 63.7004 100.894 56.9751 103.72Z" fill="#5661AE"/>
<path d="M52.039 61.787L51.0204 67.3066L45.1253 66.882L46.2547 61.015L52.039 61.787Z" fill="#FFCCB3"/>
<path d="M51.9796 62.108L51.4849 64.7894C51.4849 64.7894 50.1301 63.5642 49.8685 61.6521L51.9796 62.108Z" fill="#FCBA9F"/>
<path d="M43.3079 68.4515C43.3079 68.4515 44.6505 64.7343 45.4518 65.1857C47.3562 66.2584 50.1379 66.0595 51.3693 65.4148C52.1073 65.0285 52.1354 68.4515 52.1354 68.4515H43.3079Z" fill="#FEBB94"/>
<path d="M43.3079 68.4515L37.6509 69.2555C37.4956 69.2776 37.3546 69.363 37.2578 69.4938C37.1609 69.6244 37.1159 69.79 37.1323 69.9553L41.082 109.713L61.3496 107.602L58.8412 69.7692L52.1355 68.4515H43.3079Z" fill="#FEBB94"/>
<path d="M57.7306 79.78L56.1497 76.7292L56.5387 79.78H57.7306Z" fill="#FF967C"/>
<path d="M58.4896 69.7002C60.6268 70.048 62.4184 71.5591 63.0169 72.8793L68.304 85.6589L81.2867 74.6421L84.9775 78.7667L73.3073 94.065C70.9603 97.3446 66.9007 98.6941 64.1357 94.4174L59.7181 87.0553L58.4896 69.7002Z" fill="#FEBB94"/>
<path d="M105.724 39.7411C112.972 39.7411 118.848 33.5065 118.848 25.8157C118.848 18.1247 112.972 11.8901 105.724 11.8901C98.4744 11.8901 92.5986 18.1247 92.5986 25.8157C92.5986 33.5065 98.4744 39.7411 105.724 39.7411Z" fill="#FEBB94"/>
<path d="M110.401 25.4772C110.401 24.5766 110.17 23.6927 109.733 22.9205C109.296 22.1483 108.67 21.5168 107.92 21.0936C107.171 20.6702 106.327 20.4711 105.479 20.5175C104.631 20.5639 103.811 20.8539 103.108 21.3568C102.403 21.8597 101.842 22.5561 101.481 23.3719C101.12 24.1877 100.977 25.0919 101.065 25.988C101.152 26.8839 101.466 27.7378 101.976 28.4581C102.485 29.1786 103.171 29.7385 103.958 30.0778V31.7075H107.483V30.0778C108.346 29.7056 109.084 29.0691 109.603 28.2495C110.124 27.4302 110.401 26.4648 110.401 25.4772Z" stroke="white" stroke-width="0.691342" stroke-linecap="round" stroke-linejoin="round"/>
<path d="M103.958 31.7075H107.496V32.5067C107.496 32.8452 107.37 33.17 107.143 33.4095C106.918 33.649 106.611 33.7836 106.293 33.7836H105.161C104.841 33.7836 104.536 33.649 104.309 33.4095C104.084 33.17 103.958 32.8452 103.958 32.5067V31.7075Z" stroke="white" stroke-width="0.691342" stroke-linecap="round" stroke-linejoin="round"/>
<path d="M104.93 31.7075V26.0064C104.93 25.8698 104.878 25.739 104.787 25.6426C104.696 25.5461 104.573 25.4918 104.445 25.4918H104.43C104.302 25.4918 104.177 25.5461 104.088 25.6426C103.997 25.739 103.945 25.8698 103.945 26.0064C103.945 26.0738 103.958 26.1407 103.982 26.2033C104.006 26.2656 104.041 26.3222 104.088 26.3702C104.133 26.4179 104.187 26.4558 104.244 26.4816C104.304 26.5075 104.367 26.5207 104.43 26.5207H107.011C107.074 26.5207 107.137 26.5075 107.197 26.4816C107.255 26.4558 107.308 26.4179 107.353 26.3702C107.4 26.3222 107.435 26.2656 107.459 26.2033C107.483 26.1407 107.496 26.0738 107.496 26.0064C107.496 25.8698 107.444 25.739 107.353 25.6426C107.262 25.5461 107.139 25.4918 107.011 25.4918H106.968C106.84 25.4918 106.717 25.5461 106.626 25.6426C106.535 25.739 106.483 25.8698 106.483 26.0064V31.7075" stroke="white" stroke-width="0.691342" stroke-linecap="round" stroke-linejoin="round"/>
<path d="M105.726 17.8478V19.1223" stroke="white" stroke-width="0.691342" stroke-linecap="round" stroke-linejoin="round"/>
<path d="M101.396 19.0755L101.996 20.1793" stroke="white" stroke-width="0.691342" stroke-linecap="round" stroke-linejoin="round"/>
<path d="M98.2252 22.436L99.2646 23.0732" stroke="white" stroke-width="0.691342" stroke-linecap="round" stroke-linejoin="round"/>
<path d="M113.221 22.4468L112.182 23.084" stroke="white" stroke-width="0.691342" stroke-linecap="round" stroke-linejoin="round"/>
<path d="M110.055 19.0818L109.454 20.1855" stroke="white" stroke-width="0.691342" stroke-linecap="round" stroke-linejoin="round"/>
<path d="M68.304 85.6589L69.7811 88.7397L70.9053 83.4512L68.304 85.6589Z" fill="#FF967C"/>
<path d="M37.6942 69.2493C37.6942 69.2493 36.1676 69.2207 34.8842 71.6038C33.6007 73.9867 28.4029 88.4213 28.4029 88.4213C28.4029 88.4213 26.0286 93.8683 30.8415 94.0725H40.9161L37.6942 69.2493Z" fill="#FEBB94"/>
<path d="M38.8308 79.78L38.4091 77.7808L37.3478 79.78H38.8308Z" fill="#FF967C"/>
<path d="M65.483 120.421H43.4806C42.7876 120.421 42.1178 120.156 41.5944 119.674C41.0708 119.192 40.7287 118.526 40.6307 117.798L35.9809 83.2665C35.9227 82.8332 35.9528 82.3917 36.0692 81.9719C36.1856 81.552 36.3858 81.1638 36.656 80.8331C36.9262 80.5025 37.2603 80.2373 37.6356 80.0556C38.0108 79.8739 38.4184 79.78 38.8308 79.78H60.8334C61.5262 79.78 62.196 80.0451 62.7196 80.5269C63.243 81.0085 63.5851 81.6746 63.6831 82.4024L68.3329 116.934C68.3913 117.367 68.3612 117.809 68.2446 118.229C68.1282 118.649 67.9281 119.037 67.6578 119.368C67.3876 119.698 67.0537 119.963 66.6784 120.145C66.3032 120.327 65.8954 120.421 65.483 120.421Z" fill="#5CA4E6"/>
<path d="M64 120.421H80.8502C80.9948 120.421 81.1371 120.38 81.262 120.303C81.3872 120.226 81.4909 120.115 81.5627 119.982C81.6345 119.849 81.6717 119.698 81.6705 119.544C81.6696 119.39 81.6304 119.24 81.5567 119.108C81.4993 119.005 81.4223 118.915 81.3308 118.845C81.2392 118.775 81.1348 118.725 81.0244 118.7L67.3839 115.553L64 120.421Z" fill="#5CA4E6"/>
<path d="M64 120.421H41.9976C41.3046 120.421 40.6348 120.156 40.1114 119.674C39.5878 119.192 39.2457 118.526 39.1477 117.798L34.498 83.2665C34.4396 82.8332 34.4698 82.3917 34.5862 81.9719C34.7026 81.552 34.9028 81.1638 35.173 80.8331C35.4432 80.5025 35.7773 80.2373 36.1525 80.0556C36.5278 79.8739 36.9353 79.78 37.3478 79.78H59.3503C60.0432 79.78 60.7129 80.0451 61.2365 80.5269C61.76 81.0085 62.1021 81.6746 62.2001 82.4024L66.8499 116.934C66.9083 117.367 66.8782 117.809 66.7618 118.229C66.6452 118.649 66.4451 119.037 66.1749 119.368C65.9046 119.698 65.5706 119.963 65.1954 120.145C64.8202 120.327 64.4124 120.421 64 120.421Z" fill="url(#paint2_linear_29_265)"/>
<path d="M153.859 88.6849C153.859 88.6849 152.671 91.0668 152.381 91.34C152.092 91.6135 147.317 92.2383 146.392 92.5897C145.468 92.941 145.026 93.4723 145.026 93.9486H156.25C156.25 93.9486 156.54 93.6613 156.75 92.7457C156.958 91.8303 157.325 91.442 157.325 91.442L153.859 88.6849Z" fill="#BC775C"/>
<path d="M137.725 51.1608C138.464 47.2943 136.728 47.3939 136.15 46.7791C136.15 46.7791 133.983 44.8828 132.331 46.6505C130.583 48.5202 120.563 63.0448 120.563 63.0448L126.833 69.163L128.011 67.6709L131.064 63.8079L134.329 59.679L134.735 59.209L139.139 53.9155C139.139 53.9155 137.308 53.1964 137.725 51.1608Z" fill="#5661AE"/>
<path d="M140.348 51.8197C141.193 49.1424 139.832 46.245 137.309 45.3483C134.786 44.4517 132.055 45.895 131.21 48.5723C130.365 51.2497 131.725 54.1469 134.248 55.0436C136.772 55.9405 139.502 54.4969 140.348 51.8197Z" fill="#5661AE"/>
<path d="M134.677 59.1885C134.803 58.3802 135.056 56.764 135.328 55.291L136.775 48.1613C136.775 48.1613 132.89 54.2537 131.1 58.4974C129.775 61.6775 128.237 64.9186 127.982 67.6606L131.035 63.7974L134.3 59.6687L134.677 59.1885Z" fill="#465393"/>
<path d="M114.301 46.6925C112.811 43.8093 113.527 43.32 112.893 41.6795C112.269 40.0789 113.377 36.1108 112.316 36.6518C111.255 37.1929 110.926 38.6308 110.926 38.6308C110.201 37.2683 109.532 34.7617 107.794 34.4749C106.057 34.188 105.903 34.7682 104.918 35.6257C102.298 37.9389 105.639 41.4152 106.197 42.739C106.556 43.5688 109.192 46.0986 109.484 46.6515L110.811 48.6938L114.301 46.6925Z" fill="#BC775C"/>
<path d="M109.182 38.8095L107.064 34.6615" stroke="#93523E" stroke-width="0.200504" stroke-linecap="round"/>
<path d="M107.794 39.4811L105.487 35.6182" stroke="#93523E" stroke-width="0.200504" stroke-linecap="round"/>
<path d="M106.146 40.2237L104.827 37.8842" stroke="#93523E" stroke-width="0.200504" stroke-linecap="round"/>
<path d="M109.705 42.461C109.716 41.0247 110.529 39.2868 110.529 39.2868" stroke="#93523E" stroke-width="0.200504" stroke-linecap="round"/>
<path d="M126.886 62.9291L114.137 44.9147C114.056 44.809 113.94 44.7387 113.813 44.7178C113.686 44.6967 113.556 44.7265 113.448 44.8011L110.11 47.1437C109.951 47.2577 109.838 47.4302 109.793 47.6276C109.748 47.8251 109.773 48.0337 109.864 48.2124L120.117 68.274L126.886 62.9291Z" fill="#5661AE"/>
<path d="M123.788 70.5379C126.146 70.5379 128.058 68.5097 128.058 66.0079C128.058 63.5061 126.146 61.4779 123.788 61.4779C121.43 61.4779 119.519 63.5061 119.519 66.0079C119.519 68.5097 121.43 70.5379 123.788 70.5379Z" fill="#5661AE"/>
<path d="M141.627 42.707C141.627 42.707 135.402 44.808 134.174 45.3529C132.946 45.898 132.864 48.0785 132.782 49.6229C132.725 50.705 133.876 68.4742 133.952 78.7653C133.968 80.9639 133.581 82.359 133.333 83.5808C133.085 84.8028 133.333 85.4679 133.333 85.4679L160.004 85.721C160.004 85.721 159.205 49.9646 159.041 48.6928C158.877 47.4209 160.164 46.3255 158.769 45.6853L148.585 42.707H141.627Z" fill="white"/>
<path d="M138.28 43.8539C138.28 43.8539 139.296 48.7862 139.962 52.7336C140.628 56.6809 140.83 89.3594 140.83 89.3594C140.83 89.3594 133.037 87.7517 131.981 85.852C130.925 83.9521 132.959 75.4163 133.117 67.6606C133.275 59.9049 131.737 47.8689 133.352 45.7808C133.352 45.7808 133.766 45.3452 138.28 43.8539Z" fill="#5661AE"/>
<path d="M151.378 43.5368C151.378 43.5368 147.68 51.7118 147.907 54.2033C148.133 56.6949 148.146 77.9434 147.907 82.3796C147.758 85.0784 147.371 87.7564 146.749 90.378C146.749 90.378 156.837 91.136 160.735 89.8414C160.735 89.8414 162.587 77.4799 161.371 73.064C160.157 68.648 159.229 45.6971 159.229 45.6971L151.378 43.5368Z" fill="#5661AE"/>
<path d="M154.108 54.5226C154.108 54.5226 154.485 69.3382 154.407 74.2766C154.359 77.3539 151.042 78.6572 151.032 80.4389C151.027 81.4931 153.651 80.259 154.359 81.3488C155.066 82.4385 153.857 85.852 153.857 85.852L160.004 85.721L162.468 73.0413L157.278 53.7601L154.108 54.5226Z" fill="#465393"/>
<path d="M141.755 39.4048L141.177 46.3094C141.177 46.3094 141.023 47.3819 142.779 47.7212C144.173 47.9905 147.07 46.2526 147.723 45.68C149.177 44.4075 149.311 43.6375 149.157 43.0478C148.938 42.2028 148.218 36.2485 148.218 36.2485L141.755 39.4048Z" fill="#BC775C"/>
<path d="M141.375 45.0554L141.731 40.7996L144.83 39.1757L141.375 45.0554Z" fill="#93523E" stroke="#93523E" stroke-width="0.185941"/>
<path d="M138.31 26.3366C138.31 26.3366 137.123 31.9777 136.965 35.8196C136.806 39.6958 138.111 40.4338 139.73 40.7233C141.006 40.9515 142.992 40.9681 144.241 40.3066C146.517 39.1001 150.255 36.1721 150.745 35.6041C151.503 34.7246 151.451 30.8019 148.557 29.8318C146.453 29.1261 141.088 23.1354 138.31 26.3366Z" fill="#BC775C"/>
<path d="M138.322 26.9381C140.048 27.6561 143.297 27.1844 145.081 27.7989C146.863 28.4151 145.242 29.0655 145.319 30.8922C145.369 32.0754 145.454 34.3364 146.139 34.3064C146.823 34.2766 147.226 31.7088 148.669 31.8067C150.112 31.9065 150.792 32.5603 150.76 33.5395C150.729 34.5169 149.692 35.3686 148.874 35.8208C147.85 36.3834 147.428 36.1475 147.428 36.1475C147.428 36.1475 148.58 40.6497 148.754 40.4713C148.754 40.4713 149.997 39.7269 150.222 38.4238C150.222 38.4238 151.871 38.0446 151.507 36.2941C151.507 36.2941 152.533 35.9443 152.046 34.9308C152.046 34.9308 154.701 33.0364 153.318 30.7182C153.318 30.7182 154.577 29.3853 153.072 28.8217C153.072 28.8217 155.066 25.7317 152.23 25.0729C152.23 25.0729 152.42 23.6185 151.122 23.674C151.122 23.674 150.555 21.1723 147.723 22.159C147.71 21.658 147.554 21.1731 147.276 20.7679C146.998 20.3626 146.611 20.0558 146.166 19.8879C144.562 19.2026 143.518 20.1458 143.518 20.1458C143.518 20.1458 141.835 18.689 140.949 20.8249C140.949 20.8249 139.676 20.1344 138.721 20.8681C137.765 21.5994 138.23 23.1326 138.23 23.1326C138.23 23.1326 137.137 22.8609 136.739 23.8209C136.176 25.1718 136.966 25.664 136.966 25.664C136.966 25.664 135.188 27.895 137.689 30.0082L138.322 26.9381Z" fill="#493212"/>
<path d="M142.666 32.5073C142.76 32.0509 142.607 31.6281 142.326 31.5628C142.044 31.4975 141.74 31.8146 141.646 32.2707C141.552 32.7269 141.704 33.1497 141.986 33.215C142.267 33.2803 142.572 32.9634 142.666 32.5073Z" fill="#080B09"/>
<path d="M138.79 31.581C138.884 31.1249 138.732 30.7021 138.45 30.6368C138.168 30.5715 137.864 30.8883 137.77 31.3446C137.676 31.8008 137.828 32.2236 138.11 32.2889C138.391 32.3542 138.696 32.0373 138.79 31.581Z" fill="#080B09"/>
<path d="M139.556 32.7924C139.556 32.7924 140.037 33.776 139.342 33.791C138.677 33.7812 138.29 34.1949 138.96 34.7945" stroke="#93523E" stroke-width="0.200504" stroke-linecap="round"/>
<path d="M139.063 35.7039L139.066 35.7043L139.069 35.7045C139.481 35.7359 140.305 35.7988 140.852 35.8503H140.853C140.869 35.8517 140.884 35.8576 140.897 35.8675C140.91 35.8776 140.92 35.891 140.927 35.9068C140.933 35.9223 140.935 35.9395 140.933 35.9563C140.93 35.9725 140.924 35.9878 140.915 36.0007C140.794 36.1413 140.636 36.3086 140.46 36.4529C140.282 36.5987 140.092 36.7159 139.909 36.7624C139.73 36.8082 139.562 36.7859 139.411 36.6575C139.255 36.5249 139.107 36.2698 138.996 35.8209L138.994 35.8132L138.991 35.8059C138.986 35.7941 138.984 35.7809 138.985 35.7681C138.987 35.755 138.991 35.7428 138.999 35.7324C139.006 35.7219 139.016 35.7138 139.027 35.7089C139.039 35.7038 139.051 35.7022 139.063 35.7039Z" fill="#93523E" stroke="#93523E" stroke-width="0.185941"/>
<path d="M144.017 31.0039L143.978 31.0866C143.932 31.2122 143.84 31.3133 143.724 31.3679C143.608 31.4224 143.476 31.4259 143.357 31.3776L141.337 30.4906C141.238 30.4519 141.156 30.3749 141.107 30.2751C141.059 30.1753 141.047 30.0597 141.075 29.9514C141.09 29.8841 141.117 29.8208 141.156 29.7657C141.195 29.7105 141.244 29.6649 141.301 29.6315C141.358 29.5982 141.421 29.5779 141.485 29.5724C141.55 29.5666 141.615 29.5755 141.676 29.5986L143.735 30.4032C143.791 30.4219 143.843 30.4527 143.888 30.4933C143.933 30.5342 143.97 30.5841 143.996 30.6401C144.022 30.6961 144.038 30.7573 144.041 30.8198C144.045 30.8824 144.036 30.9449 144.017 31.0039Z" fill="#080B09"/>
<path d="M137.201 29.0087L139.39 28.8522C139.455 28.8483 139.52 28.8591 139.58 28.884C139.641 28.9089 139.696 28.9469 139.741 28.9959C139.787 29.0448 139.823 29.1036 139.845 29.1681C139.868 29.2326 139.877 29.3015 139.873 29.3703C139.871 29.4826 139.83 29.5901 139.756 29.6714C139.683 29.7527 139.584 29.8018 139.478 29.8093L137.305 30.0565C137.178 30.0673 137.053 30.0247 136.955 29.9375C136.858 29.8505 136.798 29.7262 136.786 29.5919L136.771 29.5011C136.768 29.4386 136.777 29.3758 136.797 29.317C136.817 29.2581 136.848 29.204 136.888 29.158C136.928 29.1121 136.976 29.0752 137.03 29.0495C137.084 29.0239 137.142 29.0101 137.201 29.0087Z" fill="#080B09"/>
<path d="M159.43 49.25C156.681 46.5915 155.871 48.2229 155.077 48.433C155.077 48.433 152.431 49.4315 153.011 51.843C153.624 54.3947 160.22 70.9784 160.22 70.9784L168.543 68.8879L167.788 66.5753L166.233 61.8117L164.573 56.7182L164.4 56.1074L162.382 49.3782C162.382 49.3782 160.861 50.6758 159.43 49.25Z" fill="#5661AE"/>
<path d="M160.783 54.4099C162.804 52.5738 163.041 49.3465 161.309 47.2017C159.578 45.0568 156.536 44.8066 154.515 46.6428C152.494 48.479 152.258 51.7063 153.989 53.851C155.72 55.996 158.76 56.2461 160.783 54.4099Z" fill="#5661AE"/>
<path d="M160.157 68.648L152.795 89.7787C152.756 89.9085 152.764 90.0493 152.816 90.174C152.868 90.2987 152.961 90.3986 153.08 90.4542L156.743 92.1617C156.919 92.2414 157.118 92.2488 157.299 92.1823C157.479 92.1158 157.632 91.9802 157.723 91.8019L168.059 71.7883L160.157 68.648Z" fill="#5661AE"/>
<path d="M164.273 74.272C166.631 74.272 168.543 72.2439 168.543 69.742C168.543 67.2402 166.631 65.212 164.273 65.212C161.916 65.212 160.004 67.2402 160.004 69.742C160.004 72.2439 161.916 74.272 164.273 74.272Z" fill="#5661AE"/>
<path d="M48.9958 120.421H65.0361C65.0361 122.299 64.3332 124.099 63.0818 125.427C61.8304 126.755 60.1333 127.5 58.3637 127.5H55.6683C53.8987 127.5 52.2015 126.755 50.9503 125.427C49.6989 124.099 48.9958 122.299 48.9958 120.421Z" fill="#E7EFFF"/>
<path d="M57.3721 127.5H56.66V161.532H57.3721V127.5Z" fill="#5CA4E6"/>
<path d="M56.66 161.532L46.8828 164.893H66.9975L57.3721 161.532H56.66Z" fill="#5CA4E6"/>
<path d="M24.8986 97.1528L7.50012 163.422H11.0443L31.1542 97.1528H24.8986Z" fill="#E7EFFF"/>
<path d="M24.8986 97.1528L23.6212 102.018L30.2874 100.009L31.1542 97.1528H24.8986Z" fill="#96BAFD"/>
<path d="M173.217 97.1528L190.616 163.422H187.072L166.96 97.1528H173.217Z" fill="#D1E8F7"/>
<path d="M173.217 97.1528L174.193 100.873L167.862 100.122L166.96 97.1528H173.217Z" fill="#5CA4E6"/>
<path d="M52.3065 50.0859C52.3065 50.0859 54.646 54.565 55.4574 56.4136C56.2689 58.262 56.5463 60.2563 55.1949 61.174C53.3563 62.4231 51.3217 62.1455 49.1291 61.8857C47.231 61.6606 44.8526 55.9938 45.144 54.6025C45.4354 53.2112 48.7362 47.6304 52.3065 50.0859Z" fill="#FFCCB3"/>
<path d="M54.0509 55.2198C54.2214 55.0736 54.195 54.7392 53.9919 54.4729C53.7889 54.2065 53.4863 54.1089 53.3158 54.255C53.1455 54.4012 53.1719 54.7356 53.375 55.002C53.5778 55.2685 53.8805 55.366 54.0509 55.2198Z" fill="#080B09"/>
<path d="M51.5307 54.5388L53.3158 53.1919C53.2723 53.1382 53.2185 53.0948 53.1581 53.0644C53.0978 53.0343 53.0322 53.0177 52.9655 53.0159C52.8987 53.0141 52.8325 53.0273 52.7708 53.0544C52.709 53.0816 52.6534 53.122 52.6075 53.1733L51.4249 54.4455C51.3829 54.4816 51.4677 54.5929 51.5307 54.5388Z" fill="#080B09"/>
<path d="M55.1198 57.9998C54.8801 58.158 54.6036 58.2417 54.3213 58.2417C54.0391 58.2417 53.7624 58.158 53.5227 57.9998" stroke="#EF6A77" stroke-width="0.185941" stroke-miterlimit="10" stroke-linecap="round"/>
<path d="M50.6286 52.7724L54.451 50.7212C54.451 50.7212 53.0648 45.9373 47.9869 45.4375C44.2616 45.0708 40.799 47.25 39.4572 50.6545C38.1153 54.0591 39.2628 59.6683 42.6658 61.015C45.5444 62.154 45.4518 65.1858 45.4518 65.1858L49.6667 59.3209C49.6667 59.3209 46.7506 57.8156 47.4499 55.9782C48.3978 53.4872 50.7801 56.3669 50.7801 56.3669L49.1682 51.389L50.6286 52.7724Z" fill="#1F2D49"/>
<path d="M54.6681 54.7374C54.6681 54.7374 55.3057 55.6187 55.6915 55.7888C56.0772 55.9589 55.7319 56.5849 55.4749 56.6719C55.2179 56.7589 54.5216 55.1535 54.6681 54.7374Z" fill="#FFCCB3"/>
<path d="M38.91 59.5431C41.4115 59.5431 43.4392 57.3916 43.4392 54.7374C43.4392 52.0835 41.4115 49.9318 38.91 49.9318C36.4087 49.9318 34.3809 52.0835 34.3809 54.7374C34.3809 57.3916 36.4087 59.5431 38.91 59.5431Z" fill="#0D1B33"/>
<path d="M38.4091 59.7542C40.9106 59.7542 42.9382 57.6027 42.9382 54.9486C42.9382 52.2946 40.9106 50.1429 38.4091 50.1429C35.9078 50.1429 33.8799 52.2946 33.8799 54.9486C33.8799 57.6027 35.9078 59.7542 38.4091 59.7542Z" fill="#1F2D49"/>
<path d="M82.8323 9.20667H35.9772C35.144 9.20667 34.4684 9.92342 34.4684 10.8075V41.1062C34.4684 41.9903 35.144 42.7071 35.9772 42.7071H82.8323C83.6655 42.7071 84.341 41.9903 84.341 41.1062V10.8075C84.341 9.92342 83.6655 9.20667 82.8323 9.20667Z" fill="#FEBB94"/>
<path d="M66.8793 49.4696H69.3845" stroke="#D4DCF4" stroke-width="2.23129" stroke-miterlimit="10" stroke-linecap="round"/>
<path d="M74.8983 49.4696H98.2257" stroke="#5661AE" stroke-width="2.23129" stroke-miterlimit="10" stroke-linecap="round"/>
<path d="M66.8793 55.2914H69.3845" stroke="#D4DCF4" stroke-width="2.23129" stroke-miterlimit="10" stroke-linecap="round"/>
<path d="M74.8983 55.2914H85.7595" stroke="#5661AE" stroke-width="2.23129" stroke-miterlimit="10" stroke-linecap="round"/>
<path d="M66.8793 61.2153H69.3845" stroke="#D4DCF4" stroke-width="2.23129" stroke-miterlimit="10" stroke-linecap="round"/>
<path d="M74.8983 61.2153H93.5765" stroke="#5661AE" stroke-width="2.23129" stroke-miterlimit="10" stroke-linecap="round"/>
<path d="M37.7849 27.1798C37.7849 27.1798 41.9139 26.2571 43.2235 28.3876C44.5331 30.5182 45.8427 34.5206 48.8112 34.0016C51.7796 33.4827 53.2123 23.0142 56.1806 23.1067C59.149 23.1995 58.6769 30.0551 61.9072 30.1477C65.1376 30.2404 64.2373 26.3163 66.394 26.4236C69.0104 26.5536 68.7171 34.6869 72.1221 34.7795C75.527 34.8722 75.1778 24.0338 80.329 24.2191" stroke="white" stroke-width="1.18198" stroke-miterlimit="10" stroke-linecap="round"/>
<path d="M39.1016 14.278H47.3451" stroke="white" stroke-width="1.87477" stroke-miterlimit="10" stroke-linecap="round"/>
<path opacity="0.4" d="M39.1016 18.3599H56.1373" stroke="white" stroke-width="1.87477" stroke-miterlimit="10" stroke-linecap="round"/>
<path d="M33.9952 0.25H124.613C125.281 0.25 125.921 0.531336 126.393 1.03226C126.865 1.53298 127.13 2.21226 127.13 2.92053V6.94349H31.4783V2.92053C31.4783 2.21226 31.7435 1.53298 32.2156 1.03226C32.6875 0.531336 33.3277 0.25 33.9952 0.25Z" fill="#5CA4E6"/>
<path d="M181.525 93.9486H154.809V97.1528H181.525V93.9486Z" fill="#96BAFD"/>
<path d="M149.238 97.1528L166.637 163.422H163.093L142.983 97.1528H149.238Z" fill="#E7EFFF"/>
<path d="M149.238 97.1528L150.516 102.018L143.85 100.009L142.983 97.1528H149.238Z" fill="#5CA4E6"/>
</g>
<defs>
<linearGradient id="paint0_linear_29_265" x1="76.9229" y1="0.0870375" x2="88.2888" y2="146.309" gradientUnits="userSpaceOnUse">
<stop stop-color="white"/>
<stop offset="1" stop-color="#94B9FF"/>
</linearGradient>
<linearGradient id="paint1_linear_29_265" x1="96.3437" y1="93.9409" x2="96.3583" y2="100.815" gradientUnits="userSpaceOnUse">
<stop stop-color="white"/>
<stop offset="1" stop-color="#94B9FF"/>
</linearGradient>
<linearGradient id="paint2_linear_29_265" x1="49.8672" y1="79.6833" x2="61.5044" y2="165.282" gradientUnits="userSpaceOnUse">
<stop stop-color="white"/>
<stop offset="1" stop-color="#94B9FF"/>
</linearGradient>
</defs>
</svg>
