<svg width="198" height="188" viewBox="0 0 198 188" fill="none" xmlns="http://www.w3.org/2000/svg">
<path d="M151.5 27.0641H100.399C99.2456 27.0641 98.3104 28.0769 98.3104 29.3262V68.3663C98.3104 69.6154 99.2456 70.6282 100.399 70.6282H151.5C152.653 70.6282 153.588 69.6154 153.588 68.3663V29.3262C153.588 28.0769 152.653 27.0641 151.5 27.0641Z" fill="#FEBB94"/>
<path d="M136.476 51.46C136.476 53.7144 135.859 55.9181 134.702 57.7927C133.546 59.6671 131.901 61.1281 129.978 61.9908C128.054 62.8536 125.938 63.0792 123.896 62.6395C121.854 62.1997 119.978 61.1142 118.506 59.52C117.034 57.9258 116.031 55.8949 115.625 53.6838C115.219 51.4726 115.427 49.1807 116.224 47.0979C117.02 45.0152 118.37 43.2349 120.101 41.9824C121.832 40.73 123.867 40.0614 125.949 40.0614" stroke="white" stroke-width="3.58225" stroke-miterlimit="10"/>
<path d="M127.91 37.8818C130.702 37.8818 133.38 39.0828 135.354 41.2204C137.328 43.358 138.437 46.2574 138.437 49.2804" stroke="#1C85E8" stroke-width="3.58225" stroke-miterlimit="10"/>
<path d="M103.16 62.418H109.321" stroke="white" stroke-width="1.40132" stroke-miterlimit="10" stroke-linecap="round"/>
<path opacity="0.4" d="M103.16 66.1531H115.893" stroke="white" stroke-width="1.40132" stroke-miterlimit="10" stroke-linecap="round"/>
<path d="M138.437 62.4557H144.599" stroke="white" stroke-width="1.40132" stroke-miterlimit="10" stroke-linecap="round"/>
<path opacity="0.4" d="M138.437 66.1909H151.171" stroke="white" stroke-width="1.40132" stroke-miterlimit="10" stroke-linecap="round"/>
<path d="M7.42875 23.4331H81.61C83.5802 23.4331 85.4698 24.2806 86.8629 25.7891C88.2561 27.2975 89.0387 29.3435 89.0387 31.4769V36.2912H0V31.4769C0 29.3435 0.782708 27.2975 2.17583 25.7891C3.56896 24.2806 5.45854 23.4331 7.42875 23.4331Z" fill="#1C85E8"/>
<path d="M0 36.2913H89.0387V127.218C89.0387 128.913 88.4171 130.538 87.3104 131.737C86.2036 132.935 84.7025 133.608 83.1373 133.608H5.90146C4.33625 133.608 2.83521 132.935 1.72854 131.737C0.621666 130.538 0 128.913 0 127.218V36.2913Z" fill="url(#paint0_linear_29_268)"/>
<path opacity="0.6" d="M45.4057 116.274C62.456 116.274 76.278 101.308 76.278 82.8461C76.278 64.3844 62.456 49.418 45.4057 49.418C28.3553 49.418 14.5334 64.3844 14.5334 82.8461C14.5334 101.308 28.3553 116.274 45.4057 116.274Z" stroke="white" stroke-width="6.25" stroke-miterlimit="10"/>
<path d="M8.22329 32.1546C9.22975 32.1546 10.0456 31.2712 10.0456 30.1814C10.0456 29.0919 9.22975 28.2085 8.22329 28.2085C7.21683 28.2085 6.401 29.0919 6.401 30.1814C6.401 31.2712 7.21683 32.1546 8.22329 32.1546Z" fill="white"/>
<path d="M15.5833 32.1546C16.5897 32.1546 17.4056 31.2712 17.4056 30.1814C17.4056 29.0919 16.5897 28.2085 15.5833 28.2085C14.5768 28.2085 13.761 29.0919 13.761 30.1814C13.761 31.2712 14.5768 32.1546 15.5833 32.1546Z" fill="white"/>
<path d="M22.4988 32.1546C23.5051 32.1546 24.3209 31.2712 24.3209 30.1814C24.3209 29.0919 23.5051 28.2085 22.4988 28.2085C21.4923 28.2085 20.6765 29.0919 20.6765 30.1814C20.6765 31.2712 21.4923 32.1546 22.4988 32.1546Z" fill="white"/>
<path d="M105.739 77.3025H179.921C181.89 77.3025 183.78 78.15 185.173 79.6585C186.567 81.1669 187.348 83.2129 187.348 85.3462V90.1606H98.3104V85.3462C98.3104 83.2129 99.0931 81.1669 100.486 79.6585C101.88 78.15 103.769 77.3025 105.739 77.3025Z" fill="#1C85E8"/>
<path d="M98.3104 90.1606H187.348V181.088C187.348 182.782 186.728 184.408 185.621 185.606C184.515 186.804 183.013 187.478 181.448 187.478H104.212C102.647 187.478 101.146 186.804 100.039 185.606C98.9323 184.408 98.3104 182.782 98.3104 181.088V90.1606Z" fill="url(#paint1_linear_29_268)"/>
<path opacity="0.6" d="M147.456 172.247C164.507 172.247 178.327 157.281 178.327 138.819C178.327 120.357 164.507 105.391 147.456 105.391C130.405 105.391 116.583 120.357 116.583 138.819C116.583 157.281 130.405 172.247 147.456 172.247Z" stroke="white" stroke-width="6.25" stroke-miterlimit="10"/>
<path d="M106.534 86.0239C107.54 86.0239 108.356 85.1405 108.356 84.0507C108.356 82.9612 107.54 82.0778 106.534 82.0778C105.528 82.0778 104.712 82.9612 104.712 84.0507C104.712 85.1405 105.528 86.0239 106.534 86.0239Z" fill="white"/>
<path d="M113.894 86.0239C114.9 86.0239 115.716 85.1405 115.716 84.0507C115.716 82.9612 114.9 82.0778 113.894 82.0778C112.887 82.0778 112.072 82.9612 112.072 84.0507C112.072 85.1405 112.887 86.0239 113.894 86.0239Z" fill="white"/>
<path d="M120.809 86.0239C121.816 86.0239 122.631 85.1405 122.631 84.0507C122.631 82.9612 121.816 82.0778 120.809 82.0778C119.803 82.0778 118.987 82.9612 118.987 84.0507C118.987 85.1405 119.803 86.0239 120.809 86.0239Z" fill="white"/>
<path d="M133.839 147.232L129.448 187.5H147.089L157.157 147.471L133.839 147.232Z" fill="#1F2D49"/>
<path d="M147.643 185.299L145.568 172.937L149.681 159.44H156.055L147.643 185.299Z" fill="#0D1B33"/>
<path d="M166.517 147.471C166.392 149.888 166.392 152.31 166.517 154.727C167.032 162.539 165.561 184.498 165.573 187.5H149.91C149.845 183.342 148.869 147.642 148.869 147.642L166.517 147.471Z" fill="#1F2D49"/>
<path d="M133.505 150.117L166.517 154.727V147.471L133.839 147.232L133.505 150.117Z" fill="#0D1B33"/>
<path d="M139.762 106.392C140.684 101.466 138.517 101.593 137.796 100.81C137.796 100.81 135.09 98.3947 133.029 100.646C130.847 103.028 118.34 121.53 118.34 121.53L126.166 129.323L127.636 127.422L131.447 122.502L135.523 117.242L136.029 116.644L141.527 109.901C141.527 109.901 139.241 108.985 139.762 106.392Z" fill="#FEBB94"/>
<path d="M143.035 107.231C144.09 103.821 142.392 100.13 139.242 98.9876C136.093 97.8454 132.684 99.6839 131.629 103.094C130.574 106.505 132.272 110.196 135.422 111.338C138.572 112.48 141.98 110.641 143.035 107.231Z" fill="#FEBB94"/>
<path d="M135.957 116.617C136.115 115.588 136.43 113.529 136.77 111.653L138.576 102.571C138.576 102.571 133.726 110.332 131.492 115.737C129.837 119.788 127.918 123.917 127.601 127.409L131.411 122.489L135.486 117.229L135.957 116.617Z" fill="#FF967C"/>
<path d="M120.241 97.5473C119.833 93.3821 120.88 93.1802 120.894 90.922C120.902 88.7153 123.979 84.6298 122.511 84.7124C121.044 84.795 120.013 86.3138 120.013 86.3138C119.795 84.3341 120.163 81.0397 118.292 79.7965C116.421 78.5536 115.981 79.1552 114.457 79.6497C110.39 81.002 112.66 86.8295 112.702 88.6761C112.739 89.8385 114.627 94.1859 114.712 94.988L115.314 98.0799L120.241 97.5473Z" fill="#FFCCB3"/>
<path d="M117.923 85.614L117.366 79.6354" stroke="#E56441" stroke-width="0.250277" stroke-linecap="round"/>
<path d="M116.02 85.6803L115.115 79.9373" stroke="#E56441" stroke-width="0.250277" stroke-linecap="round"/>
<path d="M113.785 85.6937L113.328 82.2567" stroke="#E56441" stroke-width="0.250277" stroke-linecap="round"/>
<path d="M116.868 90.1782C117.533 88.4962 119.257 86.8773 119.257 86.8773L116.868 90.1782Z" fill="#E56441"/>
<path d="M116.868 90.1782C117.533 88.4962 119.257 86.8773 119.257 86.8773" stroke="#E56441" stroke-width="0.250277" stroke-linecap="round"/>
<path d="M127.366 123.19L120.859 95.3726C120.813 95.2057 120.712 95.0631 120.575 94.9722C120.438 94.8813 120.275 94.8484 120.117 94.88L115.21 95.8928C114.975 95.944 114.767 96.088 114.625 96.2964C114.483 96.5048 114.418 96.7629 114.442 97.0205L117.145 125.943L127.366 123.19Z" fill="#FEBB94"/>
<path d="M122.402 130.964C125.345 130.964 127.731 128.38 127.731 125.194C127.731 122.007 125.345 119.423 122.402 119.423C119.459 119.423 117.073 122.007 117.073 125.194C117.073 128.38 119.459 130.964 122.402 130.964Z" fill="#FEBB94"/>
<path d="M143.915 96.0979C143.915 96.0979 137.823 98.0442 136.29 98.7385C134.757 99.4329 134.655 102.21 134.552 104.178C134.481 105.556 134.24 126.407 134.335 139.516C134.355 142.317 133.872 144.094 133.563 145.65C133.478 146.065 133.432 146.488 133.425 146.913C133.423 147.062 133.449 147.21 133.5 147.349C133.551 147.488 133.626 147.614 133.723 147.721C133.819 147.828 133.934 147.913 134.061 147.972C134.187 148.031 134.324 148.062 134.461 148.063L165.65 148.379C165.65 148.379 167.034 148.597 166.7 146.888C166.369 145.019 166.188 143.123 166.159 141.22C165.846 127.605 165.788 104.802 165.652 103.723C165.448 102.102 167.055 100.707 165.313 99.8915L156.902 96.5786L143.915 96.0979Z" fill="#FEBB94"/>
<path d="M159.494 111.149C159.494 111.149 159.967 130.021 159.867 136.311C159.807 140.231 155.667 141.892 155.655 144.161C155.648 145.504 159 144.669 160.48 144.147C163.807 142.973 165.996 144.567 165.996 144.567L165.109 110.177L159.494 111.149Z" fill="#FF967C"/>
<path d="M145.323 89.4281L147.183 99.9463L147.84 100.699C147.84 100.699 147.579 101.036 148.327 100.225C150.089 98.3117 154.73 95.9803 154.538 95.2292C154.263 94.1527 153.465 87.4478 153.465 87.4478L145.323 89.4281Z" fill="#FFCCB3"/>
<path d="M145.247 90.127H150.147L144.765 99.1791L145.247 90.127Z" fill="#FF967C"/>
<path d="M159.436 85.5475C160.867 81.7079 156.494 81.2209 155.738 81.1703C154.982 81.1196 155.488 74.9078 155.488 74.9078C155.488 74.9078 147.76 70.6923 145.577 71.6968C145.577 71.6968 142.444 78.7192 140.963 83.3867C139.483 88.0539 140.122 90.5658 141.677 91.2452C143.74 92.3727 146.449 92.7309 148.386 92.2123C151.836 91.2887 154.025 88.307 154.025 88.307C154.084 88.298 154.117 88.2937 154.117 88.2937C154.117 88.2937 158.086 89.1737 159.436 85.5475Z" fill="#FFCCB3"/>
<path d="M157.359 88.9217C160.148 86.8137 162.494 84.4568 162.938 81.4656C163.834 75.4385 160.711 73.9817 160.711 73.9817C162.788 69.711 158.05 67.404 155.607 66.543C147.53 63.6971 142.605 66.7853 142.262 70.1696C142.116 71.587 142.326 72.9152 142.989 74.0045C142.967 75.0492 143.067 76.0925 143.287 77.1099L144.622 74.4345C144.883 74.7977 145.227 75.0821 145.619 75.2603C150.006 77.5238 154.507 75.0147 154.507 75.0147C152.753 77.2098 152.74 82.0697 152.853 83.0848C153.015 84.5484 153.85 83.4791 153.85 83.4791C154.673 82.0404 157.732 80.991 158.532 83.9752C159.157 86.3007 153.523 88.5892 153.523 88.5892L154.088 92.2125C155.138 92.4453 154.982 91.2436 155.261 91.6447C155.54 92.046 156.132 92.3041 156.246 91.0733C156.361 89.8428 157.361 88.9204 157.361 88.9204L157.359 88.9217Z" fill="#BC775C"/>
<path d="M148.62 82.0351C148.873 81.5066 148.818 80.9332 148.498 80.7541C148.179 80.5752 147.715 80.8583 147.463 81.3866C147.21 81.9149 147.265 82.4883 147.584 82.6675C147.904 82.8466 148.368 82.5635 148.62 82.0351Z" fill="#080B09"/>
<path d="M144.23 79.5373C144.482 79.009 144.428 78.4356 144.108 78.2565C143.788 78.0774 143.325 78.3607 143.072 78.889C142.82 79.4173 142.874 79.9907 143.194 80.1699C143.514 80.3487 143.977 80.0656 144.23 79.5373Z" fill="#080B09"/>
<path d="M144.784 81.2961C144.784 81.2961 145.065 82.6749 144.221 82.4495C143.423 82.2046 142.83 82.5779 143.456 83.5504" stroke="#E56441" stroke-width="0.250277" stroke-linecap="round"/>
<path d="M143.307 84.6935L143.31 84.695L143.313 84.6962C143.8 84.8793 144.774 85.2452 145.418 85.5001L145.419 85.5006C145.44 85.5087 145.458 85.5227 145.472 85.5412C145.486 85.5599 145.495 85.5822 145.498 85.6062C145.502 85.6298 145.498 85.6542 145.49 85.6763C145.481 85.6975 145.468 85.7162 145.45 85.73C145.262 85.8611 145.019 86.012 144.762 86.1281C144.502 86.2457 144.236 86.324 143.999 86.3172C143.767 86.3106 143.566 86.2227 143.421 86.0079C143.272 85.7873 143.17 85.418 143.173 84.8256L143.173 84.8166L143.172 84.8076C143.169 84.7891 143.171 84.7699 143.178 84.7523C143.184 84.7347 143.195 84.7194 143.208 84.7077C143.222 84.6962 143.238 84.6887 143.256 84.6862C143.273 84.6838 143.291 84.6862 143.307 84.6935Z" fill="#E56441" stroke="#E56441" stroke-width="0.208333"/>
<path d="M150.707 80.6592L150.636 80.7471C150.541 80.8856 150.4 80.9779 150.244 81.0043C150.087 81.0305 149.927 80.9887 149.798 80.8877L147.634 79.0884C147.526 79.0061 147.45 78.8827 147.422 78.7428C147.394 78.603 147.416 78.4568 147.482 78.3334C147.52 78.2556 147.572 78.1875 147.636 78.1331C147.7 78.079 147.773 78.0399 147.852 78.019C147.931 77.9978 148.013 77.9951 148.092 78.0108C148.172 78.0264 148.248 78.0602 148.315 78.1101L150.551 79.8211C150.613 79.864 150.666 79.9202 150.708 79.9858C150.75 80.0517 150.779 80.1259 150.793 80.2042C150.808 80.2824 150.808 80.363 150.793 80.441C150.778 80.5193 150.749 80.5935 150.707 80.6592Z" fill="#080B09"/>
<path d="M143.1 75.8161L145.786 76.3904C145.865 76.4085 145.94 76.4446 146.005 76.4962C146.071 76.5481 146.126 76.6142 146.166 76.6904C146.206 76.7667 146.23 76.8513 146.238 76.9386C146.246 77.0259 146.236 77.1141 146.21 77.1971C146.174 77.3347 146.091 77.4522 145.978 77.5267C145.865 77.6011 145.73 77.6268 145.6 77.5989L142.905 77.1416C142.749 77.1105 142.61 77.0139 142.52 76.8727C142.429 76.7315 142.394 76.5574 142.422 76.3882L142.431 76.2711C142.446 76.193 142.476 76.119 142.518 76.0536C142.56 75.988 142.614 75.9325 142.676 75.8899C142.739 75.8475 142.808 75.819 142.881 75.8064C142.954 75.7938 143.028 75.7969 143.1 75.8161Z" fill="#080B09"/>
<path d="M156.242 112.061L136.306 113.93C135.687 113.989 135.228 114.579 135.282 115.25L137.451 142.374C137.505 143.045 138.05 143.541 138.67 143.483L158.605 141.614C159.225 141.556 159.684 140.965 159.63 140.294L157.461 113.17C157.407 112.499 156.861 112.003 156.242 112.061Z" fill="#1C85E8"/>
<path d="M138.388 117.094L146.609 116.324" stroke="white" stroke-width="1.05164" stroke-miterlimit="10" stroke-linecap="round"/>
<path d="M138.704 120.301L142.452 119.95" stroke="white" stroke-width="1.05164" stroke-miterlimit="10" stroke-linecap="round"/>
<path d="M165.796 105.2C162.727 101.039 161.348 103.032 160.269 103.134C160.269 103.134 156.617 103.871 156.905 107.216C157.209 110.755 162.584 134.342 162.584 134.342L173.863 133.424L173.327 130.172L172.227 123.473L171.055 116.31L170.948 115.457L169.63 106.034C169.63 106.034 167.386 107.422 165.796 105.2Z" fill="#FEBB94"/>
<path d="M166.554 112.382C169.554 110.388 170.492 106.139 168.652 102.892C166.811 99.644 162.886 98.6275 159.886 100.621C156.888 102.615 155.948 106.864 157.79 110.112C159.632 113.36 163.554 114.376 166.554 112.382Z" fill="#FEBB94"/>
<path d="M139.553 135.322L132.441 135.895L130.759 140.188L131.334 145.489C131.334 145.489 132.558 144.949 132.684 143.074C132.811 141.199 138.473 142.529 139.953 140.47" fill="#FFCCB3"/>
<path d="M166.684 128.376L139.089 134.008C138.923 134.05 138.777 134.156 138.68 134.307C138.582 134.458 138.539 134.642 138.56 134.825L139.227 140.511C139.262 140.783 139.389 141.031 139.583 141.207C139.778 141.383 140.026 141.475 140.279 141.464L168.704 140.26L166.684 128.376Z" fill="#FEBB94"/>
<path d="M168.317 140.306C171.436 140.306 173.963 137.569 173.963 134.192C173.963 130.815 171.436 128.078 168.317 128.078C165.198 128.078 162.669 130.815 162.669 134.192C162.669 137.569 165.198 140.306 168.317 140.306Z" fill="#FEBB94"/>
<path d="M55.1116 83.2725L64.7114 127.166L65.4031 133.608H49.0337L38.2112 105.262L40.2104 84.023L55.1116 83.2725Z" fill="#1F2D49"/>
<path d="M44.9492 122.91L47.3165 101.223L48.0998 131.162L44.9492 122.91Z" fill="#0D1B33"/>
<path d="M29.1995 83.1356C29.1995 83.1356 24.7232 91.2772 24.6645 98.0954C24.5763 108.329 23.9026 133.608 23.9026 133.608H43.6524L47.3163 101.223L42.0245 83.1356H29.1995Z" fill="#1F2D49"/>
<path d="M55.1116 83.2725L29.0453 83.5626L26.5122 89.2386L55.552 85.2867L55.1116 83.2725Z" fill="#0D1B33"/>
<path d="M85.1756 38.0018L86.5633 34.852C86.8402 34.1261 87.2743 33.483 87.8293 32.977C88.6766 32.2317 89.9408 30.917 90.2516 29.8313C90.7796 28.0977 93.25 23.1647 89.7146 20.6393C88.4066 19.7083 88.7302 19.9251 86.6083 20.4717C84.4864 21.0181 84.6493 23.4886 83.9058 25.31C83.9058 25.31 83.2971 23.561 81.9521 23.0181C80.6068 22.4751 82.4193 27.3282 81.9054 29.4557C81.3916 31.5829 82.2706 32.1297 80.8137 36L85.1756 38.0018Z" fill="#FFCCB3"/>
<path d="M86.9884 20.6696L86.1284 25.3352" stroke="#E56441" stroke-width="0.251117" stroke-linecap="round"/>
<path d="M89.4 20.8839L87.9287 25.9851" stroke="#E56441" stroke-width="0.251117" stroke-linecap="round"/>
<path d="M91.4243 23.52L90.0879 26.6754" stroke="#E56441" stroke-width="0.251117" stroke-linecap="round"/>
<path d="M84.5483 26.1663C84.5483 26.1663 85.745 28.2615 85.9848 30.0812L84.5483 26.1663Z" fill="#E56441"/>
<path d="M84.5483 26.1663C84.5483 26.1663 85.745 28.2615 85.9848 30.0812" stroke="#E56441" stroke-width="0.251117" stroke-linecap="round"/>
<path d="M47.8372 42.3564C49.9436 41.8572 53.1132 41.5748 54.603 42.6163L69.4365 53.7192L81.0153 33.2288L86.1984 36.3336L75.5438 62.1238C73.9774 66.5193 70.0722 66.4534 67.6859 64.9544L59.9459 60.8579L47.8372 42.3564Z" fill="#5661AE"/>
<path d="M57.2577 53.0176C57.2577 53.0176 57.2285 51.6964 60.106 56.7875L67.6858 64.9544L59.946 60.8579C52.8696 57.7789 55.0833 54.2369 57.2577 53.0176Z" fill="#465393"/>
<path d="M47.6822 39.2872C47.6822 39.2872 52.937 41.5385 53.7393 42.2335C54.5416 42.9283 55.3034 48.6001 56.6672 51.293C58.0312 53.986 60.0266 58.9565 57.1122 63.522C54.1978 68.0875 54.5078 71.7133 54.5078 71.7133L55.128 83.166L30.0126 83.6673C29.7916 83.6747 29.5714 83.6314 29.3668 83.5398C29.1624 83.4484 28.978 83.3111 28.8264 83.1367C28.6745 82.9623 28.5587 82.7552 28.4864 82.5287C28.4139 82.3023 28.3868 82.0618 28.4068 81.8231C28.6857 78.4841 29.9605 73.7947 30.0607 68.4778C30.1966 61.2718 30.2982 37.194 30.2982 37.194L41.2391 36.8223C43.4428 37.2337 47.6822 39.2872 47.6822 39.2872Z" fill="#5661AE"/>
<path d="M56.9426 63.7932C56.9426 63.7932 53.5165 64.5908 50.6728 64.751C47.8288 64.9111 49.3069 67.3091 51.9184 67.6037C54.5297 67.8985 55.0357 68.1002 55.0357 68.1002C55.5088 66.5865 56.149 65.1403 56.9426 63.7932Z" fill="#465393"/>
<path d="M29.6479 73.5583L28.7686 79.079C28.7686 79.079 29.3486 80.7257 32.0542 81.7358C34.7598 82.7458 37.1856 82.4426 38.7715 80.5231C40.3575 78.6037 45.8836 69.739 45.8836 69.739L29.6479 73.5583Z" fill="#465393"/>
<path d="M34.6039 47.0366C34.6039 47.0366 38.2641 50.6501 38.4795 53.3309C38.6947 56.012 39.1926 63.4873 43.8964 64.2328C49.662 65.1466 51.1712 66.0365 48.4984 66.7358C45.8257 67.4354 39.7597 66.3021 39.7597 69.3002C39.7597 71.434 37.4028 73.0304 36.2187 71.8646C35.0345 70.6991 25.6026 52.9813 34.6039 47.0366Z" fill="#465393"/>
<path d="M58.9465 41.8464L56.0913 48.5301L61.2597 50.9231L64.3461 43.3348L58.9465 41.8464Z" fill="#96BAFD"/>
<path d="M58.0118 45.1678L63.2525 46.1633L62.5925 47.5028L58.0118 45.7735V45.1678Z" fill="#96BAFD"/>
<path d="M60.941 34.5782C59.5677 34.0119 58.0306 34.7584 57.5079 36.2452L57.0406 37.5743C56.5177 39.0611 57.2071 40.7255 58.5804 41.2914C59.9535 41.8576 61.4906 41.1112 62.0135 39.6244L62.4806 38.2953C63.0035 36.8085 62.3141 35.1441 60.941 34.5782Z" fill="#1C85E8"/>
<path d="M67.2998 35.3328C74.5919 38.601 82.0071 35.8347 82.0071 35.8347L74.8217 56.2019C74.8217 56.2019 70.0442 47.88 63.7928 45.307C61.4892 44.3591 67.2998 35.3328 67.2998 35.3328Z" fill="#96BAFD"/>
<path d="M80.9542 47.081C82.9519 41.4 83.5748 36.3837 82.3454 35.8769C81.1163 35.3702 78.5004 39.5649 76.5029 45.2459C74.5054 50.9269 73.8825 55.9432 75.1117 56.4498C76.3409 56.9567 78.9567 52.762 80.9542 47.081Z" fill="white"/>
<path d="M80.9547 47.0803C82.9522 41.3993 83.7189 36.4424 82.667 36.0088C81.6149 35.575 79.1429 39.829 77.1454 45.5101C75.1479 51.1911 74.3812 56.148 75.4331 56.5818C76.4849 57.0153 78.957 52.7616 80.9547 47.0803Z" fill="#1C85E8"/>
<path d="M63.3194 33.6919L68.3527 35.7667L64.8456 45.7412L59.8123 43.6661C59.5029 43.5387 59.22 43.3465 58.9794 43.1006C58.7388 42.8547 58.545 42.5597 58.4096 42.2328C58.2742 41.9059 58.1996 41.5533 58.19 41.1951C58.1804 40.8369 58.2363 40.4803 58.354 40.1455L60.0679 35.2709C60.1856 34.9362 60.3631 34.6296 60.5902 34.3691C60.8173 34.1085 61.0898 33.8987 61.3917 33.7521C61.6936 33.6055 62.0192 33.5247 62.35 33.5143C62.6808 33.5039 63.0102 33.5644 63.3194 33.6919Z" fill="url(#paint2_linear_29_268)"/>
<path d="M64.6241 36.3914L62.0816 35.3431C61.8656 35.254 61.6235 35.3716 61.5412 35.6057C61.4589 35.8399 61.5674 36.1018 61.7837 36.1909L64.3262 37.2392C64.5422 37.3283 64.7843 37.2107 64.8666 36.9766C64.9489 36.7424 64.8403 36.4805 64.6241 36.3914Z" fill="white"/>
<path d="M63.7786 38.2761L61.2361 37.2278C61.0199 37.1387 60.778 37.2563 60.6955 37.4904C60.6132 37.7246 60.7217 37.9865 60.938 38.0756L63.4805 39.1239C63.6967 39.213 63.9386 39.0954 64.0209 38.8613C64.1032 38.6271 63.9947 38.3652 63.7786 38.2761Z" fill="white"/>
<path d="M78.1148 42.9531L78.4261 43.0932C78.8921 43.303 79.2655 43.6989 79.469 44.199C79.6726 44.6991 79.6905 45.2646 79.519 45.7785C79.4269 46.0542 79.2834 46.3064 79.0971 46.5191C78.9109 46.7318 78.6861 46.9003 78.4367 47.0145C78.1873 47.1286 77.9188 47.1857 77.6482 47.1821C77.3776 47.1785 77.1105 47.1142 76.8638 46.9935L76.6765 46.9019C76.6765 46.9019 77.2305 44.5949 78.1148 42.9531Z" fill="url(#paint3_linear_29_268)"/>
<path d="M52.2646 53.4701L54.6776 50.5245C54.6776 50.5245 54.4584 47.9116 54.6776 46.9139C54.8969 45.9163 54.8967 45.4887 55.5111 44.966C56.1253 44.4435 58.0119 43.3982 58.0119 43.3982V45.7736L63.6986 47.4602C63.6986 47.4602 64.5301 48.8904 63.2526 49.6718C63.9644 50.8333 63.0871 51.8006 63.0871 51.8006C63.0871 51.8006 63.538 53.1288 62.4197 53.3828C62.4197 53.3828 62.6182 54.3788 61.4082 54.7999C61.4082 54.7999 61.0488 55.4532 59.6059 55.6486C59.2086 55.7023 58.0122 55.8191 58.0122 55.8191L55.7309 58.2682L52.2646 53.4701Z" fill="#FFCCB3"/>
<path d="M52.8591 52.7445L57.0735 56.8268L57.5481 56.3174L53.1427 52.3982L52.8591 52.7445Z" fill="#FCBA9F"/>
<path d="M63.1391 49.6743C63.1391 49.6743 61.8804 49.5489 61.2852 49.317L63.1391 49.6743Z" fill="#E56441"/>
<path d="M63.1391 49.6743C63.1391 49.6743 61.8804 49.5489 61.2852 49.317" stroke="#E56441" stroke-width="0.251117" stroke-linecap="round"/>
<path d="M62.905 51.76C62.905 51.76 61.646 51.6346 61.051 51.4027L62.905 51.76Z" fill="#E56441"/>
<path d="M62.905 51.76C62.905 51.76 61.646 51.6346 61.051 51.4027" stroke="#E56441" stroke-width="0.251117" stroke-linecap="round"/>
<path d="M62.4102 53.346C62.4102 53.346 61.1513 53.2206 60.5563 52.9887L62.4102 53.346Z" fill="#E56441"/>
<path d="M62.4102 53.346C62.4102 53.346 61.1513 53.2206 60.5563 52.9887" stroke="#E56441" stroke-width="0.251117" stroke-linecap="round"/>
<path d="M61.2852 54.7902C61.2852 54.7902 60.0265 54.6648 59.4313 54.4329L61.2852 54.7902Z" fill="#E56441"/>
<path d="M61.2852 54.7902C61.2852 54.7902 60.0265 54.6648 59.4313 54.4329" stroke="#E56441" stroke-width="0.251117" stroke-linecap="round"/>
<path d="M35.8494 42.832C35.8494 42.832 34.7527 36.1539 29.8187 37.146C26.5108 37.8112 25.215 39.8097 25.6933 45.137C26.0275 48.8615 28.5206 65.4722 29.4171 72.2579C30.3371 79.2222 36.0612 80.4507 39.925 76.9874L57.8525 57.5811L52.3356 52.2376L38.4731 64.5843L35.8494 42.832Z" fill="#5661AE"/>
<path fill-rule="evenodd" clip-rule="evenodd" d="M53.1414 41.8464L48.1369 39.4841C47.2394 44.2852 47.6231 43.2705 47.0048 43.6319C47.0048 43.6319 41.7248 43.8498 40.3641 36.8744L34.5679 37.0826C34.5679 37.0826 32.9419 41.883 39.8519 44.2134C38.765 47.0264 42.5871 51.8383 47.4679 46.4169C50.8502 51.8762 53.1233 46.7839 51.4902 44.8074C53.9314 43.2685 53.1414 41.8464 53.1414 41.8464Z" fill="white"/>
<path d="M48.3473 33.2881L48.0519 42.2405C48.0519 42.2405 48.4562 44.201 46.5981 43.9834C44.74 43.7659 42.2385 42.1816 40.8323 40.4415C39.4262 38.7016 39.5221 38.562 40.1246 37.4201C40.7273 36.2782 43.5569 27.5751 43.5569 27.5751L48.3473 33.2881Z" fill="#FFCCB3"/>
<path d="M48.3049 34.0388L44.8789 31.6763C44.8789 31.6763 46.3968 38.8906 48.0518 42.2404L48.3049 34.0388Z" fill="#FCBA9F"/>
<path d="M44.477 9.63708C44.5711 7.91748 44.2249 6.2033 43.4761 4.68356C42.2372 2.25834 39.6639 -1.09582 35.7561 0.349027C31.8484 1.79387 28.9893 5.04471 30.4666 9.63708C31.9438 14.2295 36.0478 15.6991 38.1388 15.2098C40.2299 14.7205 44.477 9.63708 44.477 9.63708Z" fill="#493212"/>
<path d="M45.7357 10.2757C45.5107 9.86468 45.1738 9.53917 44.7713 9.34359C44.3688 9.14801 43.9203 9.09207 43.4871 9.1832C41.9409 9.4918 40.3134 10.8135 38.9298 12.3998C37.5463 13.9858 37.5913 15.137 38.2198 15.8392C38.8484 16.5412 45.7357 10.2757 45.7357 10.2757Z" fill="#1C85E8"/>
<path d="M57.2427 20.7697C57.2427 20.7697 56.4181 29.3952 52.5423 33.3228C50.0146 35.8843 47.6969 35.2281 44.2408 30.102C41.0719 25.402 40.7933 23.1162 40.7933 23.1162L44.1423 14.9572C44.1423 14.9572 57.6369 12.8773 57.2427 20.7697Z" fill="#FFCCB3"/>
<path d="M55.8713 19.0808C55.8713 19.0808 53.9644 22.3677 50.4713 22.421C50.4713 22.421 48.3663 24.5568 45.1581 23.4331C45.1581 23.4331 46.551 21.1451 45.1581 20.3434C42.7927 18.982 41.9779 23.5216 43.2394 25.1027C44.0967 26.1771 44.1454 28.125 43.5058 29.2437C42.8663 30.3623 41.9427 32.4356 41.9427 32.4356C41.9427 32.4356 40.0871 30.7932 39.1069 29.6655C35.6975 25.7429 35.14 16.4956 40.7723 12.0824C46.4044 7.66889 52.3331 11.1997 53.4446 12.0824C53.4446 12.0824 59.3627 13.2015 59.3733 19.8658C59.3823 25.5631 55.6373 26.9186 55.6373 26.9186L56.755 22.3197C56.755 22.3197 56.0638 22.4 55.8713 19.0808Z" fill="#493212"/>
<path d="M49.6486 29.8692L52.1617 31.2042C52.1505 31.2179 52.138 31.2331 52.1242 31.2489C52.0467 31.3384 51.9338 31.4541 51.7917 31.5588C51.5084 31.7672 51.1184 31.9265 50.6607 31.7654C49.9561 31.4379 49.7167 30.9306 49.6465 30.5108C49.6107 30.2971 49.6184 30.1029 49.6353 29.9619C49.6394 29.9274 49.644 29.8965 49.6486 29.8692Z" fill="#E56441" stroke="#E56441" stroke-width="0.208333"/>
<path d="M55.5314 26.7956C55.6436 26.3037 55.4845 25.8378 55.1761 25.7553C54.8678 25.6729 54.5268 26.005 54.4147 26.4972C54.3024 26.9892 54.4614 27.455 54.7699 27.5374C55.0782 27.6199 55.4191 27.2876 55.5314 26.7956Z" fill="#080B09"/>
<path d="M50.9592 25.6484C51.0715 25.1564 50.9123 24.6906 50.604 24.608C50.2956 24.5257 49.9546 24.8577 49.8425 25.3499C49.7302 25.8419 49.8894 26.3077 50.1977 26.3901C50.5061 26.4726 50.8471 26.1404 50.9592 25.6484Z" fill="#080B09"/>
<path d="M56.5434 24.8841L54.2168 24.3057C54.1778 24.2924 54.1449 24.2642 54.1238 24.2263C54.1028 24.1886 54.0951 24.144 54.1022 24.1004C54.128 24.0264 54.1674 23.9588 54.218 23.9017C54.2688 23.8446 54.3297 23.7991 54.397 23.7682C54.4643 23.7372 54.5368 23.7215 54.6099 23.7217C54.683 23.7217 54.7553 23.7379 54.8226 23.7693L56.6472 24.6062C56.799 24.6468 56.7334 24.9349 56.5434 24.8841Z" fill="#080B09"/>
<path d="M48.7311 22.629L51.7615 23.6572C51.7817 23.5548 51.782 23.449 51.7622 23.3463C51.7422 23.2439 51.7028 23.1469 51.6461 23.0619C51.5897 22.9768 51.5172 22.9055 51.4336 22.8527C51.3501 22.8 51.2574 22.7666 51.1611 22.7548L48.7399 22.4131C48.664 22.3928 48.6172 22.5985 48.7311 22.629Z" fill="#080B09"/>
<path d="M53.1379 25.892L53.4666 28.5486L52.6 29.0016" stroke="#E56441" stroke-width="0.255206" stroke-linecap="round"/>
<path d="M86.001 140.308H2.66333C1.1925 140.308 0 141.599 0 143.191V171.371C0 172.963 1.1925 174.255 2.66333 174.255H86.001C87.4719 174.255 88.6644 172.963 88.6644 171.371V143.191C88.6644 141.599 87.4719 140.308 86.001 140.308Z" fill="#1C85E8"/>
<path d="M27.561 157.114H29.6501C29.8326 157.113 30.0078 157.035 30.1368 156.895C30.266 156.755 30.3385 156.565 30.3385 156.367C30.3385 156.169 30.266 155.98 30.1368 155.84C30.0078 155.7 29.8326 155.621 29.6501 155.62H27.561C27.378 155.62 27.2028 155.699 27.0735 155.839C26.9441 155.979 26.8716 156.169 26.8716 156.367C26.8716 156.565 26.9441 156.755 27.0735 156.895C27.2028 157.035 27.378 157.114 27.561 157.114Z" fill="white"/>
<path d="M23.5502 149.016C23.5502 148.896 23.5237 148.778 23.4727 148.672C23.4216 148.565 23.3477 148.474 23.2572 148.405C23.1666 148.336 23.062 148.292 22.9525 148.276C22.8429 148.26 22.7312 148.273 22.627 148.313L9.68391 153.359H6.67078C6.48787 153.359 6.31245 153.437 6.18328 153.577C6.05391 153.717 5.9812 153.907 5.9812 154.105V158.629C5.9812 158.827 6.05391 159.017 6.18328 159.157C6.31245 159.297 6.48787 159.376 6.67078 159.376H9.11475V165.415C9.11475 165.513 9.13266 165.61 9.16724 165.701C9.20183 165.791 9.25266 165.874 9.31662 165.943C9.38079 166.012 9.45683 166.067 9.54037 166.105C9.62412 166.142 9.7137 166.162 9.80433 166.162H13.46C13.5506 166.162 13.6404 166.142 13.7239 166.105C13.8077 166.067 13.8837 166.012 13.9477 165.943C14.0116 165.874 14.0624 165.791 14.097 165.701C14.1318 165.61 14.1495 165.513 14.1495 165.415V161.117L22.627 164.421C22.7312 164.462 22.8429 164.475 22.9525 164.458C23.062 164.442 23.1666 164.398 23.257 164.329C23.3477 164.26 23.4216 164.169 23.4727 164.063C23.5235 163.956 23.5502 163.838 23.5502 163.719V149.016ZM7.36037 157.882V154.852H9.11475V157.882H7.36037ZM12.7706 164.668H10.4939V159.692L12.7706 160.579V164.668ZM10.4939 158.104V154.63L22.1712 150.078V162.656L10.4939 158.104Z" fill="white"/>
<path d="M27.5265 162.06L26.4819 160.929C26.4179 160.859 26.3419 160.804 26.2581 160.767C26.1746 160.729 26.085 160.71 25.9944 160.71C25.9038 160.71 25.8142 160.729 25.7304 160.767C25.6469 160.804 25.5709 160.859 25.5067 160.929C25.4427 160.998 25.3919 161.08 25.3573 161.171C25.3227 161.261 25.3048 161.359 25.3048 161.456C25.3048 161.555 25.3227 161.652 25.3573 161.742C25.3919 161.833 25.4427 161.915 25.5067 161.984L26.5513 163.116C26.6154 163.185 26.6913 163.24 26.775 163.277C26.8588 163.315 26.9484 163.334 27.039 163.334C27.1294 163.334 27.2192 163.315 27.3027 163.277C27.3865 163.24 27.4625 163.185 27.5265 163.116C27.5904 163.046 27.6413 162.964 27.6759 162.873C27.7106 162.783 27.7284 162.686 27.7284 162.587C27.7284 162.49 27.7106 162.392 27.6759 162.302C27.6413 162.211 27.5904 162.129 27.5265 162.06Z" fill="white"/>
<path d="M25.5067 151.806C25.6361 151.946 25.8115 152.024 25.9944 152.024C26.1773 152.024 26.3527 151.946 26.4819 151.806L27.5265 150.675C27.6559 150.535 27.7284 150.345 27.7284 150.147C27.7284 149.949 27.6559 149.759 27.5265 149.619C27.3971 149.479 27.2217 149.4 27.0388 149.4C26.8561 149.4 26.6806 149.479 26.5513 149.619L25.5067 150.75C25.3775 150.89 25.3048 151.08 25.3048 151.278C25.3048 151.476 25.3775 151.666 25.5067 151.806Z" fill="white"/>
<path d="M38.9685 149.615H52.6068" stroke="white" stroke-width="3.10169" stroke-miterlimit="10" stroke-linecap="round"/>
<path d="M38.9685 166.15H64.2418" stroke="white" stroke-width="3.10169" stroke-miterlimit="10" stroke-linecap="round"/>
<path opacity="0.4" d="M38.9685 157.882H71.3198" stroke="white" stroke-width="3.10169" stroke-miterlimit="10" stroke-linecap="round"/>
<path d="M195.99 110.404H180.621C179.782 110.404 179.1 111.142 179.1 112.051V127.235C179.1 128.145 179.782 128.882 180.621 128.882H195.99C196.832 128.882 197.513 128.145 197.513 127.235V112.051C197.513 111.142 196.832 110.404 195.99 110.404Z" fill="#1C85E8"/>
<path d="M182.575 122.451L185.25 119.554C185.425 119.364 185.663 119.258 185.909 119.258C186.157 119.258 186.394 119.364 186.569 119.554L188.661 121.819C188.836 122.009 189.073 122.115 189.321 122.115C189.567 122.115 189.805 122.009 189.98 121.819L193.4 118.116" stroke="white" stroke-width="1.07547" stroke-miterlimit="10" stroke-linecap="round"/>
<path d="M191.813 117.449H193.715C193.8 117.449 193.884 117.486 193.944 117.552C194.005 117.618 194.038 117.707 194.038 117.8V119.664" stroke="white" stroke-width="1.07547" stroke-miterlimit="10" stroke-linecap="round"/>
<path d="M149.729 82.4263C150.209 81.2429 149.924 79.9634 149.093 79.5682C148.261 79.173 147.198 79.8118 146.719 80.9952C146.239 82.1786 146.524 83.4583 147.355 83.8535C148.186 84.2488 149.249 83.6097 149.729 82.4263Z" stroke="#080B09" stroke-width="0.208333" stroke-miterlimit="10"/>
<path d="M144.959 80.2197C145.439 79.0363 145.154 77.7565 144.323 77.3613C143.492 76.9661 142.429 77.6052 141.949 78.7886C141.469 79.972 141.754 81.2515 142.585 81.6467C143.417 82.0419 144.48 81.4031 144.959 80.2197Z" stroke="#080B09" stroke-width="0.208333" stroke-miterlimit="10"/>
<path d="M144.96 80.2208C144.96 80.2208 146.108 80.1987 146.719 80.9952" stroke="#080B09" stroke-width="0.208333" stroke-miterlimit="10"/>
<path d="M149.59 82.7212H154.538" stroke="#080B09" stroke-width="0.208333" stroke-miterlimit="10"/>
<path d="M47.4679 46.4169C47.4679 46.4169 47.8069 51.3661 47.4679 55.289" stroke="#96BAFD" stroke-width="0.208333" stroke-miterlimit="10"/>
<path fill-rule="evenodd" clip-rule="evenodd" d="M148.701 97.2943C153.321 94.1619 154.088 92.2122 154.088 92.2122L156.034 96.2943L150.637 100.699C150.42 100.08 150.156 99.4834 149.846 98.914L148.327 100.225L148.701 97.2943ZM143.111 96.2682L145.104 94.653C145.104 94.653 144.948 96.1495 147.011 97.1671L147.183 99.9463L146.184 98.8973L144.853 100.799L143.111 96.2682Z" fill="#1C85E8"/>
<path d="M148.327 100.225L148.701 97.2944L149.846 98.914L148.327 100.225Z" fill="#1C85E8"/>
<path d="M147.011 97.1671L146.184 98.8973L147.183 99.9463L147.011 97.1671Z" fill="#1C85E8"/>
<path d="M147.182 99.9463L147.812 108.368C147.821 108.485 147.866 108.596 147.941 108.683C148.015 108.769 148.115 108.825 148.223 108.842C148.294 108.854 148.366 108.848 148.434 108.825C148.503 108.802 148.566 108.763 148.619 108.71C148.672 108.658 148.713 108.593 148.74 108.521C148.767 108.449 148.779 108.372 148.774 108.294L148.327 100.225L147.839 100.699L147.182 99.9463Z" fill="#1C85E8"/>
<path d="M149.951 103.615C150.283 103.615 150.553 103.324 150.553 102.964C150.553 102.604 150.283 102.313 149.951 102.313C149.619 102.313 149.35 102.604 149.35 102.964C149.35 103.324 149.619 103.615 149.951 103.615Z" fill="#1C85E8"/>
<path d="M150.147 107.452C150.479 107.452 150.748 107.16 150.748 106.8C150.748 106.44 150.479 106.149 150.147 106.149C149.814 106.149 149.545 106.44 149.545 106.8C149.545 107.16 149.814 107.452 150.147 107.452Z" fill="#1C85E8"/>
<defs>
<linearGradient id="paint0_linear_29_268" x1="42.3027" y1="36.0598" x2="66.6978" y2="241.928" gradientUnits="userSpaceOnUse">
<stop stop-color="white"/>
<stop offset="1" stop-color="#94B9FF"/>
</linearGradient>
<linearGradient id="paint1_linear_29_268" x1="140.613" y1="89.9291" x2="165.008" y2="295.797" gradientUnits="userSpaceOnUse">
<stop stop-color="white"/>
<stop offset="1" stop-color="#94B9FF"/>
</linearGradient>
<linearGradient id="paint2_linear_29_268" x1="64.4831" y1="34.1444" x2="58.9457" y2="56.0429" gradientUnits="userSpaceOnUse">
<stop stop-color="white"/>
<stop offset="1" stop-color="#94B9FF"/>
</linearGradient>
<linearGradient id="paint3_linear_29_268" x1="78.0826" y1="42.943" x2="79.4552" y2="51.8024" gradientUnits="userSpaceOnUse">
<stop stop-color="white"/>
<stop offset="1" stop-color="#94B9FF"/>
</linearGradient>
</defs>
</svg>
