<svg width="1613" height="1864" viewBox="0 0 1613 1864" fill="none" xmlns="http://www.w3.org/2000/svg">
<g clip-path="url(#clip0_237_1017)">
<rect width="1613" height="1864" fill="white"/>
<g opacity="0.35">
<rect x="1355.49" y="1205.24" width="93.6527" height="93.6527" transform="rotate(49.9824 1355.49 1205.24)" fill="#80A0FF" fill-opacity="0.23"/>
<rect x="1303.38" y="1057" width="112.383" height="112.383" transform="rotate(90 1303.38 1057)" fill="#80A0FF" fill-opacity="0.23"/>
<rect x="1137.85" y="1112" width="53.8503" height="53.8503" transform="rotate(90 1137.85 1112)" fill="#80A0FF" fill-opacity="0.23"/>
<rect width="84.2874" height="84.2874" transform="matrix(-1 0 0 1 1275.29 1529)" fill="#80A0FF" fill-opacity="0.23"/>
<rect width="23.4132" height="23.4132" transform="matrix(-1 0 0 1 1419.98 1369.54)" fill="#80A0FF" fill-opacity="0.23"/>
<rect width="35.1198" height="35.1198" transform="matrix(-1 0 0 1 1613.14 1253.65)" fill="#80A0FF" fill-opacity="0.23"/>
<rect width="49.1677" height="49.1677" transform="matrix(-1 0 0 1 1534.17 1044)" fill="#80A0FF" fill-opacity="0.23"/>
<rect width="23.4132" height="23.4132" transform="matrix(-1 0 0 1 1469.15 1112)" fill="#80A0FF" fill-opacity="0.23"/>
<rect width="63.2156" height="63.2156" transform="matrix(-0.455434 -0.89027 -0.89027 0.455434 98.1423 1057.35)" fill="#80A0FF" fill-opacity="0.23"/>
</g>
<rect width="49.1677" height="49.1677" transform="matrix(0.383684 -0.923465 -0.923465 -0.383684 949.402 1364.95)" fill="#80A0FF" fill-opacity="0.23"/>
<rect width="23.4132" height="23.4132" transform="matrix(0.383684 -0.923465 -0.923465 -0.383684 911.554 1278.82)" fill="#80A0FF" fill-opacity="0.23"/>
<rect x="1260.4" y="798.278" width="93.6527" height="93.6527" transform="rotate(176.344 1260.4 798.278)" fill="#80A0FF" fill-opacity="0.23"/>
<rect x="1464.52" y="678.292" width="53.8503" height="53.8503" transform="rotate(-143.638 1464.52 678.292)" fill="#80A0FF" fill-opacity="0.23"/>
<rect width="23.4132" height="23.4132" transform="matrix(0.592879 -0.805292 -0.805292 -0.592879 1089.85 752.795)" fill="#80A0FF" fill-opacity="0.23"/>
<rect x="1646.38" y="49" width="112.383" height="112.383" transform="rotate(90 1646.38 49)" fill="#80A0FF" fill-opacity="0.12"/>
<rect x="734.355" y="328.21" width="93.6527" height="93.6527" transform="rotate(72.5343 734.355 328.21)" fill="#80A0FF" fill-opacity="0.12"/>
<rect width="35.1198" height="35.1198" transform="matrix(-0.923532 -0.38352 -0.38352 0.923532 953.732 471.733)" fill="#80A0FF" fill-opacity="0.12"/>
<rect x="280.383" y="945" width="112.383" height="112.383" transform="rotate(90 280.383 945)" fill="#80A0FF" fill-opacity="0.12"/>
<rect width="84.2874" height="84.2874" transform="matrix(-1 0 0 1 385.287 1445)" fill="#80A0FF" fill-opacity="0.12"/>
<rect width="49.1677" height="49.1677" transform="matrix(-0.148329 -0.988938 -0.988938 0.148329 466.917 1287.62)" fill="#80A0FF" fill-opacity="0.12"/>
<rect width="23.4132" height="23.4132" transform="matrix(-0.148329 -0.988938 -0.988938 0.148329 444.9 1183.44)" fill="#80A0FF" fill-opacity="0.12"/>
<rect width="63.2156" height="63.2156" transform="matrix(-0.148329 -0.988938 -0.988938 0.148329 402.18 1230.1)" fill="#80A0FF" fill-opacity="0.12"/>
<rect width="49.1677" height="49.1677" transform="matrix(-1 0 0 1 168.383 312)" fill="#80A0FF" fill-opacity="0.12"/>
<rect width="23.4132" height="23.4132" transform="matrix(-1 0 0 1 79.4131 312)" fill="#80A0FF" fill-opacity="0.12"/>
<rect width="63.2156" height="63.2156" transform="matrix(-1 0 0 1 231.216 406)" fill="#80A0FF" fill-opacity="0.12"/>
<rect x="55.9221" y="208" width="74.9222" height="74.9222" transform="rotate(90 55.9221 208)" fill="#80A0FF" fill-opacity="0.12"/>
<rect width="49.1677" height="49.1677" transform="matrix(-1 0 0 1 474.117 0)" fill="#80A0FF" fill-opacity="0.12"/>
<rect width="23.4132" height="23.4132" transform="matrix(-1 0 0 1 385.147 0)" fill="#80A0FF" fill-opacity="0.12"/>
<rect width="63.2156" height="63.2156" transform="matrix(-1 0 0 1 206.216 145)" fill="#80A0FF" fill-opacity="0.12"/>
<rect x="124.845" y="1214.73" width="93.6527" height="93.6527" transform="rotate(171.95 124.845 1214.73)" fill="#80A0FF" fill-opacity="0.12"/>
<rect width="35.1198" height="35.1198" transform="matrix(0.529433 -0.848352 -0.848352 -0.529433 47.7939 1431.67)" fill="#80A0FF" fill-opacity="0.12"/>
<rect width="49.1677" height="49.1677" transform="matrix(-0.148329 -0.988938 -0.988938 0.148329 1577.92 369.624)" fill="#80A0FF" fill-opacity="0.12"/>
<rect width="23.4132" height="23.4132" transform="matrix(-0.148329 -0.988938 -0.988938 0.148329 1470.63 181.154)" fill="#80A0FF" fill-opacity="0.12"/>
<rect width="63.2156" height="63.2156" transform="matrix(-0.148329 -0.988938 -0.988938 0.148329 1427.89 296.81)" fill="#80A0FF" fill-opacity="0.12"/>
</g>
<defs>
<clipPath id="clip0_237_1017">
<rect width="1613" height="1864" fill="white"/>
</clipPath>
</defs>
</svg>
